<mxfile host="65bd71144e" modified="2020-11-16T01:53:14.871Z" agent="5.0 (X11; Linux x86_64) AppleWebKit/537.36 (KHTML, like Gecko) Code/1.51.1 Chrome/83.0.4103.122 Electron/9.3.3 Safari/537.36" etag="8E8DYleGlmj4Yld_o9uP" version="13.6.5">
    <diagram id="mmuTf6AMXJ74GCbRsGWS" name="Page-1">
        <mxGraphModel dx="961" dy="759" grid="0" gridSize="10" guides="1" tooltips="1" connect="1" arrows="1" fold="1" page="1" pageScale="1" pageWidth="850" pageHeight="1100" background="#ffffff" math="0" shadow="0">
            <root>
                <mxCell id="0"/>
                <mxCell id="1" parent="0"/>
                <mxCell id="74" style="edgeStyle=orthogonalEdgeStyle;rounded=0;orthogonalLoop=1;jettySize=auto;html=1;strokeColor=#000000;" edge="1" parent="1" source="2">
                    <mxGeometry relative="1" as="geometry">
                        <mxPoint x="521" y="86.60000000000002" as="targetPoint"/>
                    </mxGeometry>
                </mxCell>
                <mxCell id="2" value="" style="shadow=0;dashed=0;html=1;strokeColor=none;fillColor=#4495D1;labelPosition=center;verticalLabelPosition=bottom;verticalAlign=top;align=center;outlineConnect=0;shape=mxgraph.veeam.script;" parent="1" vertex="1">
                    <mxGeometry x="149" y="64.2" width="44.8" height="44.8" as="geometry"/>
                </mxCell>
                <mxCell id="48" style="edgeStyle=orthogonalEdgeStyle;rounded=0;orthogonalLoop=1;jettySize=auto;html=1;strokeColor=#000000;fontSize=12;fontColor=#4495D1;" parent="1" source="2" edge="1">
                    <mxGeometry relative="1" as="geometry">
                        <mxPoint x="171.4000000000001" y="250" as="targetPoint"/>
                    </mxGeometry>
                </mxCell>
                <mxCell id="7" value="" style="whiteSpace=wrap;html=1;labelBackgroundColor=#FFFFFF;fontColor=#4495D1;fillColor=#FFFFFF;dashed=1;strokeColor=#4495D1;imageAspect=1;" parent="1" vertex="1">
                    <mxGeometry x="523" y="31" width="179" height="166" as="geometry"/>
                </mxCell>
                <mxCell id="49" style="edgeStyle=orthogonalEdgeStyle;rounded=0;orthogonalLoop=1;jettySize=auto;html=1;strokeColor=#000000;fontSize=12;fontColor=#4495D1;" parent="1" source="3" edge="1">
                    <mxGeometry relative="1" as="geometry">
                        <mxPoint x="521" y="273.6" as="targetPoint"/>
                    </mxGeometry>
                </mxCell>
                <mxCell id="50" style="edgeStyle=orthogonalEdgeStyle;rounded=0;orthogonalLoop=1;jettySize=auto;html=1;strokeColor=#000000;fontSize=12;fontColor=#4495D1;" parent="1" source="3" edge="1">
                    <mxGeometry relative="1" as="geometry">
                        <mxPoint x="169.4000000000001" y="430" as="targetPoint"/>
                    </mxGeometry>
                </mxCell>
                <mxCell id="3" value="" style="shadow=0;dashed=0;html=1;strokeColor=none;fillColor=#4495D1;labelPosition=center;verticalLabelPosition=bottom;verticalAlign=top;align=center;outlineConnect=0;shape=mxgraph.veeam.script;" parent="1" vertex="1">
                    <mxGeometry x="147" y="251.2" width="44.8" height="44.8" as="geometry"/>
                </mxCell>
                <mxCell id="58" style="edgeStyle=orthogonalEdgeStyle;rounded=0;orthogonalLoop=1;jettySize=auto;html=1;strokeColor=#000000;fontSize=12;fontColor=#4495D1;" parent="1" source="4" edge="1">
                    <mxGeometry relative="1" as="geometry">
                        <mxPoint x="364" y="454.60000000000014" as="targetPoint"/>
                    </mxGeometry>
                </mxCell>
                <mxCell id="73" style="edgeStyle=orthogonalEdgeStyle;rounded=0;orthogonalLoop=1;jettySize=auto;html=1;strokeColor=#000000;fontSize=12;fontColor=#4495D1;" parent="1" source="4" edge="1">
                    <mxGeometry relative="1" as="geometry">
                        <mxPoint x="169.4000000000001" y="604" as="targetPoint"/>
                    </mxGeometry>
                </mxCell>
                <mxCell id="4" value="" style="shadow=0;dashed=0;html=1;strokeColor=none;fillColor=#4495D1;labelPosition=center;verticalLabelPosition=bottom;verticalAlign=top;align=center;outlineConnect=0;shape=mxgraph.veeam.script;" parent="1" vertex="1">
                    <mxGeometry x="147" y="432.20000000000005" width="44.8" height="44.8" as="geometry"/>
                </mxCell>
                <mxCell id="26" value="" style="edgeStyle=orthogonalEdgeStyle;rounded=0;orthogonalLoop=1;jettySize=auto;html=1;fontSize=16;fontColor=#4495D1;" parent="1" source="5" target="10" edge="1">
                    <mxGeometry relative="1" as="geometry"/>
                </mxCell>
                <mxCell id="5" value="&lt;b&gt;&lt;font style=&quot;font-size: 12px&quot;&gt;ACI&lt;/font&gt;&lt;/b&gt;" style="aspect=fixed;html=1;points=[];align=center;image;fontSize=12;image=img/lib/mscae/Container_Instances.svg;labelBackgroundColor=#FFFFFF;fontColor=#4495D1;" parent="1" vertex="1">
                    <mxGeometry x="543" y="40" width="31" height="31" as="geometry"/>
                </mxCell>
                <mxCell id="6" value="&lt;b&gt;&lt;font style=&quot;font-size: 12px&quot;&gt;Container&lt;br&gt;Registry&lt;/font&gt;&lt;/b&gt;" style="aspect=fixed;html=1;points=[];align=center;image;fontSize=12;image=img/lib/mscae/Container_Registries.svg;fontColor=#4495D1;labelBackgroundColor=#FFFFFF;" parent="1" vertex="1">
                    <mxGeometry x="592.95" y="41" width="36.05" height="31" as="geometry"/>
                </mxCell>
                <mxCell id="9" value="" style="whiteSpace=wrap;html=1;labelBackgroundColor=#FFFFFF;fontColor=#4495D1;fillColor=#FFFFFF;dashed=1;strokeColor=#4495D1;" parent="1" vertex="1">
                    <mxGeometry x="523" y="216" width="180" height="149" as="geometry"/>
                </mxCell>
                <mxCell id="10" value="Jenkins&#10;Container" style="shape=image;verticalLabelPosition=bottom;labelBackgroundColor=#ffffff;verticalAlign=top;aspect=fixed;imageAspect=0;image=data:image/jpeg,/9j/4AAQSkZJRgABAQAAAQABAAD/2wCEAAQEBAQEBAUFBQUHBwYHBwoJCAgJCg8KCwoLCg8WDhAODhAOFhQYExITGBQjHBgYHCMpIiAiKTEsLDE+Oz5RUW0BBAQEBAQEBQUFBQcHBgcHCgkICAkKDwoLCgsKDxYOEA4OEA4WFBgTEhMYFCMcGBgcIykiICIpMSwsMT47PlFRbf/CABEIASwBLAMBIQACEQEDEQH/xAAdAAABBAMBAQAAAAAAAAAAAAAGAAQFBwMICQEC/9oACAEBAAAAAN/vK8lS9gFFU0NQB/lBWtieV5WkQ3nrxnxqAP8AKCtbE8ryVL2AUrCxhj8ojxifmB6IL3If81PpPr5sNcHldUbfu+EkXuQ/Ab4wx+UR4umro6xAE+SwoqavxCOhNKCIM3KsrF8efOuGmPUMlirD9rt0dYgCfJUIZSVpAP5uKipqQH9X6luSpN5MGJJJBvM7qGXkmYVykrSAfzay+V5Kl7AKKpoagHfMuyWHQVisGVJKL0jrHr4CtbE8ryVL2AUjTEwySDdk7dMojlBcN2Uxvpj1i1q2n2KSVUVrpf1PPviVxMMkg3ZKAdHWIAnyWFFTTU6mrEhQrfOO1A3R8SSSAaL3v9rt0dYgCfJVCpJJJffPIoX213FTdxkrw/8AqAnWohrNvr6kkklNeV5Kl7AKKprUbmlul9SxNswknurmw8lqLtu700p7ovksTyvJUvYBSn/uSxMM71rQ/NSUn7JA9mtpUvdC633VubUK6dWLP1ikerjT7ksTDO9QW6OsQBPkofx2vGpd89WESb6JJYM6x88t5SzmeJ7M7g5jrEAT5KsWEbdz8fHc3xqeht1vrFaf0kkllxQvOzpnypOKQ642SNu5+PhUX+V5Kl7CoOWV6MKn6iTz5JJJCbqb1nHdluap6PGvUCvZUvYBSd5zBuHy+hFVTfzAwm2cHt0kl6CFOnUpblUKjJj2jexhy3D5chVeujrEAT3Hi5mCUNUvS63/AJxZclfh+owDc9R74aYz/irvdrcDEAT5Kl5XkqXhHH66cCSD9hNysOuexvnukpGbK+qL0fsJKCsLe6UL2AUrCxhj8o13532L4kkBdYGgTSu0PmCg4Oyznkxa8ml8DfUzOUR4umro6xAFBaYnKS8BKq3+2xw1bQm3kivqj9CIwcuuYX1WfaDEAT5KhDKStIDW7S47SHaqmCqtdpz8X19A7+zwVBFan6/uye+qx7ONYB/NrL5XkqX6288rJZ1jAWF9xkZLbk6vloqD3EJv5KosvuK1UG9UXBewCkaYmGSQrXlDcVRYS2KZJLA5tf7+ANpYeetY2MOjGJKekXsg3ZKAdHWIAm+NN1V+NEkOkkm1y42n3snq/MUu9gLyygu2+7OIAnyVQqSS5rh8lr/aY8kvPWB+xvKut666n9UaZbXCqT67mKSSmvK8lS+P155xW7SxTDpesH/kBt9e9ak+daBNyk6jGvXGvZUvYBSn/uSxMM8vyFlYIXcYUsnz8xRhtfZ+qOxmp9cDt5YKn6TXrJYmGd6gt0dYgCfJai5L3DTpKyWN7g+VjgC+ch4FQb22byr/AKFG2IAnyVYsI27n4+FmNM9Nx4xjMQi7+zEwns8VWwPgv9n0TYXlzJ37eu5+PhUX+V5Kl7AKKpnm7p9Z0P8Abu5OmblJKmOYMD1Y1j2pHbl1phNiJUvYBSd5zBuHy5DDwBVyJYQqVp9W0klW/IPF0TD9xqnsoB1031bh8uQqvXR1iAJ8lhRU05c15FJSfZtJJBXGzJtwzveItSiLC2ZxAE+SpeV5Kl7AKKpoa0B1GIXqhu2cokkOcX2hhvCK12/zdE6+lS9gFKwsYY/KI8Yn5geb0do7T0x89V7ySSHeawF0lthyMfBVjDH5RHi6aujrEAT5LCipq/D8QTrbU187upJD+pYpt3KxVh+126OsQBPkqEMpK0gH83FRU1IQDQkzB/ObqcklD6ekvmyLUkzCuUlaQD+bWXyvJUvYBRVNDUAf5QVrYnLTqT9JJlzBDN+r/wAoK1sTyvJUvYBSNMTDJIN2Tt0ywP8ALG/ErqKKbWWLkbVZze6ytH2WN+JXEwySDdkoB0dYgCfJYUVNX4hFWH7XeLUuoxX7zk187pOBCKsP2u3R1iAJ8lVdujrEAT5LCipq/EIqw/a7dHWIPmZyHEzV+IRVh+126OsQBPkq/8QAGwEBAAIDAQEAAAAAAAAAAAAAAAQFAQMGAgf/2gAIAQIQAAAAAAAAGYeJgAAgV3ndd5AA00uss7EAGayt9eU+2wAM4qtMqsS7f0ACo8RRazwAUkbPrysrEAFDp97Wm2mAEfRKqI8qRF37LEA5y02wIgnaJ84DPFdDGjjM2MvwI3I9BDweszIsHrQKeku9lebJ2qPWdbtBz9bsvaxsmydECt6ScDmYa5i7dNjq0xol9aA5aMs/G+Nu2SKLxdXAOVjuijaN0Xb1PPUlxdA5aNedpRVc7Rv22HBWd0DmdvdSq6l5Hpa7Pe/P5dyDnej6GOqOJkbdncfP7W1BR3HRa0P59dWubb530U8FW7PU8cV1UO5ruF6veCLUd/r8e48ujuKHlevAcz9BxnEOfVT+WhX4Ci7X1nGIPibRyMAIl/tr2rx7x5wALTfoqydqjABZSI9aScRwAsZOmrJKMAG2y81Ru9RwAbZdeM4AAzgAAAAAAAAAAAAMmAAAAH//xAAcAQEAAQUBAQAAAAAAAAAAAAAABAEDBQYHCAL/2gAIAQMQAAAAAAAAFJCwAAJU76s4ygAH3lbhj4YAKTp3z9oWPqAKVn3Y+QRcdQAUrkayhjogApXKSKfP1SDDAH185a982a3cZYAMzP1nJ341mRZuYwA7TyWLNlKVh5yupAU9Reb/ALkCkTZNx40BnPSXnWNU+aRNw6p5sqDo/XuQaPOLcO5vnWfNeOB2PoMLghbiWL3VOicJ1EHdtucY121egfd/tWx8d56D0FsTnvNrUi1bs+jZXKuYA9D51xHW79mTb1nrvVeZcoB6Fz/KeG7BkbVbU3X/AFHofJwd9gec4WT3H0Z5+3ef5y9Na1y0HcOR6Ffbh6W1mFa87ep+d85B13Rua3GY9Ycj0G/qvrjiOmA6Hf4ddXO68Zn63tPp/wA54cGw9L83fdy3Jx+0a70juvmUCvffMPzWk/E5/Fdnz3GQHXuB260rkrmP3bB1AbJo0PLUv/fzX6qAUxEWVmDHXpYAYmHLy5DrLADFwZGaIlJgAWcN95wj/MmoAWYGVFKgAUqAABSoAAAAAFKgAAUKgAAAP//EADUQAAEDAwMDAwMDAwMFAQAAAAQDBQYBAgcACBAUFjQRFTUSEyAhJEQiMTIjJSYXGDAzNkH/2gAIAQEAAQgA0b4ZPDJ8mPxI/BT4jP8AL4kfnJ8Mnxg/B/nFclWXKDLWWu5bBGkaLyJfcVgqPkUvotvOxInX0sV3gYddLLUiWzPWCHm+1NGJHMbiguSz6kfnJ8Mnxg/B/nFcm+GTwyfJj8SPwU+etD0QuJeKvZZ0B2msdYY5FVfrQ9PSiZgtiY3QHaY/2PUdV1oenlO8smy8XoDtNZCAoCKS/Wh6LEKVKXUTQaj17/p1kndTjqDXrgNs03TZXl33UA1bzXU361YftcybJkUinETZm222U6wvZkBdbXon3aLkYCl97S7RbIeNHCwg/HO7yexe9EWUR6aRjKbPY/xboTtNZCAoCKS/Wh6LEKVKXUT6A7XWh6IXEvFXss6A7TWOsMciqv1oenpRMwWxMboDtdAdwB5wvD38YRxHPOU4k38TiOeCpw9/JkaSSUXUtTSyPm6C4jASQeHOa563LLrgslmD8MYobqOeSBIG6bhHQAyN48xDBsZoW1Zb1bLa/rUin/51F2vvqaVUougoOvP9s8BllixTFWzJe32bpq24bzKwZeYeqEe/kyOAvDG5A84Xh7+MI4jnnKc+yOeh2s4ZZJdX3ts0ccM4jKCi+yOem5BVoWuXM97bNOf+8fa6H2Rz02rpNCFyBvvbZo4EpxKUKFz/AJ7sxkirEonijbys9072ydLMmitLQsOyYqw445UcrJ7PU0xxB0kEL1rr/wC35TyCMGRo6syPSts5wPkX1Rgk2aMuxYWTsvsjnod0AFQSQV97bNeyOeh2s4ZZJdX3ts0ccM4jKCi+yOem5BVoWuXM97bNe9tnBvhk8MnyY/Ej8FPiM/y+JH5yfErlyMBxm7yVbDxUGVk7pPsmT7dAzSEygrfji1POk1Ha1q1sSspS2++t9fWtttbq+lDiQGu2y5wp6Vttup+D9Io/EGZd7kGbct4eyox9KPt5yevjPIQSq+j/ADiuTfDJ4ZPkx+JH4KfPcYOrngQuy4ZPtw7SLcs0K2mr9xg6KKTfE+nG7cO0L/x/6+q7jB0SNe+30JGdKN8Taj39+ytmGW5dfLlC8f7Xb1QE3zIoQ+FYjS1KP4tcU23dMeiCtf8AVd6atpW6tKUz1n+sDVUisUa8CZnyDWr45YEx1kXG3vTZIvwyfikLKpUfSdnrabjs0WtrTkbGEoxm62gPeEZ9SU4ji7uWoylGX3Ep9uHa7jB1c8CF2XDJ9uHaRblmhW01fuMHRRSb4n043bh2u3DuAPOF4e/jCOI55ynEm/icRzwVNb0JQo1wNljqG2SFs7e1OuTH1+f3KRmVKN1iQSrnuXOLs08u1WFkd3em2zGVXlRfJkorWt1a1r+eUIYNPoI9Miuzh6qZDZqw3heGNyB5wvD38YRxHPOU57Z17H0P7rXc2vc/eP2Ou2ddL2/+613Nr/6PXbOklFWZS0FLei+hHzOONSEVv6HDWPGpPSdPW+2ldrAHXvmQ5VfqtKVpW2oggjeIgGHpNO6+tNQWWESAyYNJ+rba3XUpSNyZil7Sm7MenJA5dpcrQcUzROeQlgf9bYKWtOcMhxylHzof2uu5tds69j6H91rubXufvH7HXbOul7f/AHWu5tdzcG+GTwyfJj8SPwU+Iz/L43F7iEIJ9+LREihq/qcTHzx7MY4/LKEf2E9WiQd31WUv1tOHsSxWQtT8LL7K209MpuC+IsnNmR0Gp1bH1sEdGtO76FLLtYUf+x8lzXFrnqpKQdtl6uPZQz44zlKIUn3+tiLcXKn+xveWWWswsmj/AAb4ZPDJ8mPxI/BT57jO0m9FGX2jKduA6XbUGhK41DuM7Q5N77fUYrtwHRNKsFbKCbhs534wjtjS3RiOlypwWLNyGeF98JnEx9hbI2UwkFwX3aDOm5uUKa8aztzEd0o4+bZiaNffcPv5t9Pqp6z/ADNnTHc2eRTphuAyHklkUi5OA4c/QjG4jc+63PwI/wBG7JDDhzKQOT4ykdWabWJ2ZJ3Etmxbthbok5Cvkpy+0rOuaZqINgrMh2JJGoM4AtTK6BDHg9xnaTeijL7RlO3AdLtqDQlcah3Gdocm99vqMV24DrtwHgDzheHv4wjiOecpxkqYsePIsZKnY9wkWUpmY5uYAQjYKgINj+K/9TMpN7MvmR5nrEyXM2PIFuOyfF1xD5HuWam5qn7NMmXbU7SCRZafX6/8LvRROqd44ogl1bhuFkUCUVUCJtGZJtuyGHJo1CZqxZBjoz8y0p611KFqGZ2nC1JvHqLpXuwu0PMd4pVMcvaqV6Ct6SgHnC8PfxhHEc85Tn2Rs0Q1gCoKrpe9uegTinEpMUr2Rs05IJNCFq4Qbi7GEpo27r8pVmc2rGQIawUY2q25VRb61LfTbgWk05yAGXz71CmIZlagFBmh/wANNUNXxdEyAMaxholiViaCVqKP5/au+j6+JHHGWWshjG9RK+WYczlSLNNltvUW00xGWvUzl71T9P7Vf24mLvqJIGH5q05cgjZIVCGsAVBVdL3tz0CcU4lJileyNmnJBJoQtXC97c9e9ufBvhk8MnyY/Ej8FPWTJrTGeMX2S2QdoueXyi5BKtaU+mmn4g+JzUF+b2x3j2UYVacg1g2NbW3t6f8A4J4/LxeESR8Ghcj7thkdfbTShGwRQw+b7pIexqVAiuHsVztyyDXKE5nj5SMQeSvNceDfaZyF66lDT7uzrJ2bRchVi2Q6x0o3wyeGT5MfiR+Cnz152hCylSkE1OiD06IIDALKodedpmUvLJvsK3ozKhsoY4cLBmyjZHkVL77633VurqRslr63VRtxdlyT4idCULK7s8a0bqkW4Wn+Vss5HUeCPx9K0/unkyCe9HMRbk1AShkcGxdp27Z3ilFg45ZtYkr+UkTOGeIYYwihQy6SbmDpE8DRnGG5B0JiGKGOIkx4OoDGAhXVK+laVo+pExqT9SDG5RZM45FZKL0QenRBAYBZVDrztMyl5ZN9hXRB66IPgDzheHv4wjiO+arXU4e1Mi5Pe3S0mtiSVqVnLuwNb3bTqpNHKR9Qb6duBARGF4x0t9PS+7hBdAlP7iGkq+iluspzF/g8YWfGiZY4gGeY42PqT7try5FV71WUoXNbLWqZOBD56e6TYN0juCMryZeyiWH8JMmLkLia5ilNmTcuqpCVr61r6cZDC+sQI6mzqQ1e8cHsCunv4wjiOecp+Bvhk8MnyY/GU3u6MY0lzvTHQn35GmpUi76la0/Gbt9TWO5azZ1KrFAJLElV6el9K8GSm/E2XSm92utrbWtK6pXU7tnO3ORLvUQZd3kRISso9o7psTVppTdLiivpSg69ShkCK7g8mWQCGqAgwFl6UW9zV5k41C4+4p62YPNRciPTLfW2tta21ZPkx+JH4KfPWh6IXEvFXss6A7TWOsMciqv1oet1blaNg97tTxelT7jsRWtfWta/j6UrStKw+R1xLlVtd07rkSELFUNZCgbPkiLFsDniPI7xG3euLMiVpWlfSuixBDxVwzHrbDiV3WvVQQ2k4zSv9VIrhLGENLRObJLJWeIsZz89T+auuQ5S4SFyZzgnFtHWC5VTosiqlXbS4XNmboffo0EqhhH0NY6wxyKq/Wh6elEzBbExugO10B3AHnC8PfxhHG7lX7WFmSzWNqfS0Ot/41rS22t1zzOghPqRbTCynBdUona/l0R3Zh4G9LJ1surxlbFLLlNjoKTEM4yfGTpSFZZZ3hpkLem5M3Ftt1/r9OQM/wAAgdqw9k9yXM8sOyNzpdELKA0to2ublHj7rkmV7CfBqrD8Wf526xKpUTMkM9NPfxhHEc85Tn2Rz0O1nDLJLq+9tmjjhnEZQUX2Rz1vDEWRw6xUVx1d/szhb+D1KGxk9U73B7e5MvRDTfEkrPS8+gw1qFR7XdrWZS070sZ5g3BqR5c4RPdSgF/RIJtu3RXbUUYPLMpZPlLf0krj8lkMVNocws26bLIqF1q5W7fJRVPtCON+43KIi15yg16JN4tg8Ck5KH3dR1zXEXVbi3dnQeEaKJpqOTGfS+yPvqL8FVW3Vn+dusV0qtmSGeijmAipcmqccM4jKCi+yOem5BVoWuXM97bNe9tnBvhk8MnyY/G7oChWFz1tY4W/0nRDg5wCbB6kGPU8IKsvQbWmPlOVaLLBhDAJfaGVIRR/zVcVLv0SXstJtutWhcvmuLna91iMS3qR0ylg8tl8la8k50dn4G4uz1utq5xaNO31Vv8AZ5hAnFJ6jsa3UTcL6EF8mZgnmUTwo86McVbY2lW9G4la71rSaCpgzZNVJAhQe71te7BHFpXVrjmy+pbipxW+idLr67eAqumbIWlpyu+pwK0yfJj8SPwU+e4wdXPAhdlwyfbh2kW5ZoVtNX7jB1mMNGXYfnAKGPyftvSiVdZDvVq7CWXR5hGVQSOIIKTH9KXKnLqetLfwIGHKp6LQhG0KYfYpX+9dJUSuvpRVxqdSn0sseq6gTopJ7yYeGtezC2DNTcwLeoiq33r631n9KXSOP0pp4U+2BfTUGB6Rjovdp/I6RjcltbOGSrlltQ6qkfOUUvvqi3LNCtpq/cYOiik3xPpxu3DtduHcAecLw9/GEcMaKRSpQqxzcvBZ6a2EVp6VrTWQQKrN4x1sQM8gK5zs9bE7/wA0jKNL+0uVyttbFb7a6d3RtjgdpbnjfE5ee7n19PR2jY4Uj94ac6x9mDEAqhi4cUzou32GVdinm+WL1kenil5JAgaSA6YiCIyesgGURaUBabKGCgEZk0mV09/GEcRzzlOe2dex9D+613Nr3P3j9jrtnXTUj/oVXeDDqsWTEn9CNuPujIIvU4OxwCJDvb172x0RUUNs+odWn40rbWtaU06IVIBVto0zGOLMrfe43zxU0xFui0JwcMiRR8nSax+3XLQp4uTMev2V2KKqxbeXSxLFDUlqxOiKaSVNxTg0OjwyMSNKf2pSLoe6SqpFeJu4VOfL0U8Ywm6CYvi7Jf3Nr3P3j9jrtnXS9v8A7rXc2u5uDfDJ4ZPkx+JH4KetwUKrkHER1w0BdaDnKAKanLb0bzcva1L9c1DKXenp+leKf3pqNo9Wq7fXWlaVrSujwW8Wy8i7BECGjsbQkResswyk1hhgyOz3IlX6Grxgzdyl1jFAmrUxk4EPZHN9NqQc4lmOrkcv0wiqmoAB0zSsXdp4crGhsJNu23wFTIOVG2pJvhk8MnyY/Ej8FPnuM7Sb0UZfaMp24DpdtQaErjUO4ztDk3vt9Rig2gcNS69PPmNV8VZGKHDZHVN6bUS7Z2FQljqvSIL/AFhEI1Jt+ghW3mmoyl9F7pXV/wDndw6hKmJp1SheZJlCPtAqw/LkJmX20R/60r6VqMdTCO4EZxpndej7lDDzLZl2a2TSTUbAtPF6hBI4SQQdgIg4iZTq1g1rQqZyBF2ISHE26wemMcZhnKpvRRl9oynbgOl21BoSuNQ7jO0OTe+31GK7cB124DwB5wvD38YRxHPOU4zzisbK8KWbUmB0KizyuMc4IWHthaNsPW+k5dLThb6E1rykqkvb9ScerSt7n6X/AOd3Kw6RNv0rFMF/61HjWVsgwv6BkcjZSaMkR4FIsjKkodF0CFB6hBIWIUVcgUra1q2OiYTta4kOEpfXhSiOoFtpylOFUVVZXslOEZriIxttyK7Q+a24+kIqd6Lkgnfp7+MI4jnnKc+yNmiGsAVBVdL3tz0CcU4lJileyNmnJBJoQtXC97c9NBCh16ipW6/Bah9CMhxqFSi0W9JtObLKgyj7GnOn9aVeFl0RrPrVXLsSNvWCa31dqqRWibu5mrfaFb4Bl559Kgi7d8/H+laI7T85EU9Va7QMzaL2oZvGp6pSbEeTYcKuW+jNrgZb9Y5QhAKn2yW3bFlR3io0lB2/YkasuSUwV1VAwjt7ZLXG+I5dl2SLqLxJKi1ErKLbv4pfFcngSVvg7+3zeBssvS97c9AnFOJSYpXsjZpyQSaELVwve3PXvbnwb4ZPDJ8mPxI/BT4jP8vVaUrStK7ktuasTXMmURb1a2uIatXSn6J8U6a/0tJssY/T0rtnZYm7Zfc211DbW5rRogB+OZRKHQCfD6jF9tGRCt0tuRVWEUT24Ovu+EoerWDAJ473cSJjQyDjuPFG3zCwOW7kFVqW3RpylBgt9ZBvQYbXHGze72bOZNVwxxJo+rpk+TH4kfgp89edoQspUpBNTog9OiCAwCyqHXnaZlLyyb7CuiD0+/sun6XrztMdalBLVX3Cxpph2Y5E2s7r+tllfw2+uPtWe4nfX8p0hQlklaFWT9W5PT7b6jI3a2XvNScZOzfdmCxNi3ZY4cLJAtK72CztWgu6dJWlaRVfJF19EJVnywY/GU3HV2NCX1vnxV/RB6dEEBgFlUOvO0zKXlk32FdEHrog+APOF4e/jCOI55ynEm/icRzwVNbvUqJZmPrRxu9UR/wirpRhyJCHav5SFH7/ALshpgr6gaeqeoPrrZY7loLzltQ3LSVrGyzjxyoXuKwmkpfW27dBhuy+llsTnzFNEb1mXdNkINih98QQ2sxNWIYlANK09/GEcRzzlPwN8Mnhk+TH4kfgp8Rn+XxJPNs1vIiLsjLWmXJDvJqNLLbxXAUv0pZw+0uoGmpbGHdOQRlkerPxPst93us0nRBlMdAF3FyDXFURTw/Bn3I8v7baWLZljBAay87LOz4BJhRLxuwHbi8cCJBNps73gSX/AEB8e7UJu/yKx7yWujYg2rJJ6ZPkx+JH4KfPWh6IXEvFXss6A7TWOsMciqv1oenpRMwWxMboDtMf7HqOq60PTyneWTZeKj7haNeGRN9sOJ5mjeQBkfbxknG/3SiRnYtClKaSfBbv/Y4GBEgrWWbZH+j3hSM1u/F2/odfq1GMKj5PyfkwcrO2MW3FcnAbWrHsBi0AjgyUWa10BQUUV+tD0vV1oQtcPVR+rrrQ9ELiXir2WdAdprHWGORVX60PT0omYLYmN0B2ugO4A84Xh7+MI4jnnKcSb+JxHPBU4eqUo5r00I5FhV/05nt5xRkFGhxr5sfOtVvqwTbavOoPFHaSFbIJFRVllscv/F9spYYnWmG6UQzNnEfW8RkouwRR8twg/wBsmxLDXKj38mRwF4Y3IHnC8PfxhHEc85Tn2Rz0O1nDLJLq+9tmjjhnEZQUX2Rz03IKtC1y5nvbZpz/AN4+10PsjnptXSaELkDfe2zRwJTiUoUL7I56HdABUEkFfe2zRMYUcwHJqcNsDoVBs60YT/xkNn9Y9+sa31H3JZfF1ubEtJwy8q12cv8A64qPEKOBKcSlChfZHPQ7oAKgkgr722a9kc9DtZwyyS6vvbZo44ZxGUFF9kc9NyCrQtcuZ722a97bODfDJ4ZPkx+JH4KfEZ/l8SPzk+GT4wfg/wA4rnca2FY1z7bIwG1zDdmwJyE/B/T+oWy/WXJnKsX57l7rHlf+4DNV6Q1+JMZLYlx6ixnsnxg/B/nFcm+GTwyfJj8SPwU+e4wdXPAhdlwyfbh2kW5ZoVtNX7jB0UUm+J9ON24doX/j/wBfVdxg6JGvfb6EjduHaQckGhK0JfuMHSjKUZfcSn24druMHW8KOoSaBt8pDwjupiEWhTLFpYx50xBILbKgDu7a4J0vA0Y9Ch21rdI8qwhspdR33EzGJTmdIu8YGXcHYMYgK+POCl1br0HJBoStCX7jB0oylGX3Ep9uHa7jB1c8CF2XDJ9uHaRblmhW01fuMHRRSb4n043bh2u3DuAPOF4e/jCOI55ynEm/icRzwVOHv5MjgLwxuSmhtkba4x90kmyA2yt6sZcdo+aQ61ogrttzeNd63WYHzx/hantnzsddT1A2g5mMrT7uPNobLFzxnedtJXUokr109/JkcBeGNyB5wvD38YRxHPOU/ADzheHv4wjiOecpxJv4nEc8FTh7+TI4C8MbkDzheHSt47avenR1caaYzSiir01tSRRROgtLK/rX1rHPBU4e/kyOAvDG5A84Xh7+MI4jnnKc/wD/xABMEAACAQMABAgLBgQDBgYDAAABAgMABBEFEBIhEyIxQVFTstEGMkJhYnGCkZKisRQgI1Jzo3KBweEVVKEHJDA0Q8IWRGNkg7N0k9L/2gAIAQEACT8Arqn+mr0+ydXXDsnV6H9dXUjtHV6faOrrn7WsZZo2AHnIrwh0ZouM/wCZuEjJ9W2RmvCqW9nTPEtrWaQdgLVnp+XzpaRjtSirXT0IznL2qf8AZIa8LzaSHybuCWED2nQLWmrHSds+ziW0mSZRjPKUJGrqR2jq9PtHV1z9rX1T/TV6fZOrrh2TruYvjFTxPI0TKqqwJJIwABVrN8BqJ4412su6lVGQQMk1cxfGKYTOJQSsZ2yBg78CrWb4DX4O3sbPCcTOM5xmrmL4xSNMgiCloxtgEE7sirWb4DUqRyLtZRyFYZYkZBq5i+MVBKyNKzKyqSCCcgg1C0Y52kBUD31I+ntKpkGGycCCNuiSetIx6Dsm/wCjo4FJfanOXp57u8uHAyxaaWV29eSxNR22grV/88Sbgj9FMke1XhvcO/8A6NgqdqQ14cTo3RNYB+zLV/onSqcyLK1tMfZmAWtG6W0HdIcRXabcI9iaI4NINP6N53bEV6g/UG5/brSC3UaKI7i2I2J4H5dmROY1azfA1SpHIu1lHIVhliRkGrmL4xUErI0rMrKpIIJyCDVrN8Bq5i+MVPE8jRMqqrAkkjAAFWs3wGonjjXay7qVUZBAyTVzF8YphM4lBKxnbIGDvwKtZvgNWs3wHV1ydrV6HaGrqT2hq9P+mrrj2Rq9DsikLOeQCrv7TpcQJwWjLUh5z535o085q1Oi/BskpKsTmC0A6Li4O+Y9KCvCF9J3K8llCTBG7/kSNOO9eB2i/A7wUsBJAL5IuPOC378gqw4XSJXEuk7nEl0/8J5Ix5lpt9KaArFRRywSKVeKRQ6ODzMpyDUf/h/SZyQbcbVnIfTh8j2KL6P0lGMo6kyWl9B9JIzWLbS1sAL/AEezZeIny06YzzGvQ7I1dUn019cna1eh2hq6k9oa7f5176h2Y43V3O0DhVOScA1cfI3dUm3M+NlcFc7Jyd5wKt/nXvpeDjZCgOQ3GJBxxc9FXHyN3V+LwW1t+TjaxjxsdFW/zr303BSM5cDBbikAZ4ueirj5G7qj24XxstkLnAwdxwalR/CWWMG+vcBxYI4yAOmU1NOYp/8AelsbiQiacHfw1453gGkTRmhbCA8eJBEeDTyYUG5AaWQaGdi+jNGEkG5TmZ+iHt1FHDBCgSKKNQiIijAVVG4AVuH34uKcvbXKj8W1m5pIz2hz1N9m0to2TKSDJgu7d+3FIKwlwcQ6Qsi427a4Ub17jzirf5176m2ZI0CONljhlGCMgVcfI3dVv8699Q7Mcbq7naBwqnJOAauPkbuqTbmfGyuCudk5O84FW/zr30vBxshQHIbjEg44ueirj5G7quPkbu1dU/01en2Tq64dk6vQ/rq6kdo6kB/w+ylljRuR5WYrEh8zOQK0/AXtbkzwWkoM897fSnbMpiQElErRekDotDktK6RSTv8AmK8arU2/g1opBf6QhdwZLwoQscRx5BalVERQqqowFA3AADkA1Cr+0tNvxPtEyQ7Xq2yM0QysMqykMrDpBG4j7t/FZWERAMkmSWY8ioq5LseYCoNLwaZsMvo7SD2iCJ+mB8SF9h6mKaG0o6Wek0J4oVzhJvXEdXXP2tfVP9NXp9k6uuHZOuOb3DvpJQ8ymNSwAAL7hnBqSH3nupkaOPOQhJY7XF3ZA6ajm9w76BV0PCEybhgbubPTUkPvPdXH4bGzwe/Gxy5zjpqOb3DvohUVeDIk3HI382emriOPR2j7d7icjJOIxnGDjJPMOc1LNFowTY0fomIng4x5GQPHlNaRbRFkQHFhEQlwf1nbIj/hALV4D2d3JHyXFzCJifbudtqtUs7XS4vgbePxEWaD7WFHtLXIK56dH09sj7XeEB1sdvkRBzzVAYnuuP8AadMXJSaX2DtvV7ay6IlSJ7OKC4M6pPnjlAQCn3dLXNtorRguHktrbAknmmK4O22QoUCtI6W0ddAcSR5EuovbQhKhVoJ8m0vYctBcKPynmYc6mi8l0kH2G6YYLcNa5jJbzuAGp4gkzGRQxOQH3jOBUkPvPdUc3uHfSSh5lMalgAAX3DODUkPvPdTI0cechCSx2uLuyB01HN7h30CroeEJk3DA3c2empIfee6pIfee7V1ydrV6HaGrqT2hq9P+mrrj2RUmDpm/LzenBZAOV+NlqESCynNropGGcSqAXlX0+MFSpDgE8FCDxIh0AdPSdXJo20upT7NuLbtPqj2zYaPuroJ+YwRFwP8ASk+13d1dSvo1ZxnMu1mW7b2tyUck/wDAiD3Bgeexbnju4QWjI7Jo/wDJXttfxg/+5Qo//wBVdUn019cna1eh2hq6k9oa7v8Ab/vVxt8D+Js7GM7HGxnNWn7n9qi4LhfL2trGzxuTA6Ku/wBv+9Pw23+Hs42MZ35zv6KtP3P7V+BwHt7W37uirv8Ab/vURuHk/EBB2OXdjn6KuopZdHaOlNzFG4cwS3DjivRws0F3fzedpLl1XV0ihnhrtLSFv1HaZ9QBUgggjIIO4gg1bxW9rAgjhhiQRxxoORVVdwGrk6aCrpHQOn7q0dQMFrR3L2smPOm7VymrwXVk8skQkCshDwnZZSrgEanMd2bO4Fu4GSs3BnYI9RpgbmSNYb5R5N1BxZfiPGFHYgNrpCIeu1uwgq32+B/D29vG1sbs4xVp+5/arv8Ab/vVxt8D+Js7GM7HGxnNWn7n9qi4LhfL2trGzxuTA6Ku/wBv+9Pw23+Hs42MZ35zv6KtP3P7Vafuf21dU/01en2Tq64dk6vQ/rqlR/CSSLYu7wccWCH6zUZpDcyyE3EhLGWTOXJY72OTvNTxQQDQ88QklcRrmK8mB3tWl7GeTmSOdGY+oA0OMFb34rx59OXTP7EUS/dIG6oHm0FpyBdGafii3kSxD8OX+LAq7jurG7jEkE8Z4rqfoRyEHeDXMwNERrLpWe70UTzty7H/AMkWGGqRI9nB47BO0RWkrWXQGnrwXOj3imSSK3u5eOsRK/BVkLqAaYv4bqDkdoLiTLFPTq8F3ou+BkWQcsbk8ZHHMQdxGvqn+mr0+ydXXDsnXHD7j30kQSZhGxUHID7jjJqSb3jupnaSPGA5BXjcXfgDpqOH3HvoKiIvCAx7jkbufPTUk3vHdQ2zOSCJN/icmMY6aljPhXpOEmEJvFlCdxncdipZWtxKXuZ3YtJNIx2iNo8rNzmolRLBTtbIwqlwMIKUQaGttuKC8v5XS3XLZdYFwSfZFaW0ZpSeJCxtEDwSv+mXGCaeV0aUwwmfIlt5lOOCfa34J3YPIaPG0dpZbyEdMVyNj/sH3OTO+jEujjfTGwjubFHt3ti34fByqASMVY6LEF68YeKytHeaZkYMoG20lKYrye7mu/sxOTbJMFAjPQd2SNReO+0WYo754vHVI2zBcj9M7jRjTTFlsJpS1HNJzSoOrkq+sLywurl5YZLm5Mc0ayHOzKGBq/h0lf2ziW3s7cEWsUq8juz4MhFECU300ig+UQgbFCWXwcv5NjSdpymJuTh4x+dKu2ntLmJZoJY3VkeOQbSspxvBFRw+499JEEmYRsVByA+44yakm947qZ2kjxgOQV43F34A6ajh9x76CoiLwgMe45G7nz01JN7x3VJN7x3auuTtavQ7Q1dSe0NXGjsI2EEAODPPLuSNfOTU5kvr+Uy3EnkQxDcAo5kQcVRSBIIgAB09JPSTTMLe+v5Zrthyi2hzLIB0EqMCreDRNjonRBvb/STBYorW2iyI7W2yCOEISpbzTXg7POIpXuYuMOkwT4HHH5aMbWPhDZQaSikXckk8RGX9sYarJxaXei5o7uSJCLeEgoYlz7H3QHjPKjAMp/katbeBjymKJIz71A1xJLBMjRyxONpJEcYZWB5QRReTQV27C3D5KMjb5LKc9k1LmCXizQsfxbaYeNFIOkauRL68X4GEdJ+Kg/3lR5Sjy/WOernME5d9CyufEfle29rlShh0ODXXJ2tXodoaupPaGu3+du+odmSNC6HaY4ZRkHBNXHyL3VJtwvnaXAXOyMjeMGrf5276XgpGcITktxSCccbPRVx4x3nZXcBynkqbOh/B93iOOSa95JX9jxBS4vLkB5ulR5KfyrxQwrcZxpC0X+MxsRWSwsY/gE6F6RUtLjwftURuquGiEgn9YkOa0TbS6R0alzCUuYo7jggJ3CFCwO4oBSJHEvixooRB6guB/wAD3arUXFhdpsyJyMpHI6HmdTvBq+M4fTNvYXMXLHeW07DYLpzOEejxdvl8wNbxdXk8oP8A+RO0lAEc4PIRUjw4kW5spkOGidG2hg9KGok/xBV+y6RjUkcHdQjj7hzNkMtQ7MkaF0O0xwyjIOCauPkXuqTbhfO0uAudkZG8YNW/zt30vBSM4QnJbikE442eirj5F7quPkXu1dU/01en2Tq64dk0wF/KgtNGjpuJtyH2d71mSK2/HmLb9uQnig+s76O9uXUdieO4hvrdubhYWBI94ocLorTlhJFPFnjR8KpSWE9DoakaRLO1ht1d/GZYUCAnHOcf8FQbix0bPNAGGV4UDCEjnAJplP27R0EspTkE2ziVfZcEVcw2lrGMvPcSLDGo87OQKtX0/pAtsLIMxWgfty1FHZzyyz3MNlICJ2lnQorFP+kkYPFDU2y1nou4eL9VkKR/MRQwZrjH8o17zqXM8OZYenK8q+0Kmxo7whQQjoS8iyYj7e9K6p/pq9PsnV1w7J13U3xmp5WRpUVlZyQQTggiraL4BUSRSLs4dFCsMsAcEVdTfGadpkERYLIdsAgjfg02LbRVt9ruUH+YufEHsJQxLdfjv/CfEHurn1EC4jO3Ax/NzqfM1W/2rRs0mb3RkxKcceXGfIkrRumzd43WhhiGW/V26kNp4JWCTi4tIlAtg0iERQhuWSXJDE/eBFadttH6Vs5jFLaX5+yPnmKGTCurDepBrE9hpC0ltpTCwfMcylSVK53jORXh9BZWBkJCR3V3B7ZjWMgNX+0G8vyPIjWW4f2ZLk1Jo7R90F/57SE6zXr/AKfdGtaJe70hezCCHSF4nO3PFCe09aVm0hpPStyHvbqY5edbX8WV/MpkICChhhCHcelJxz9dbmGSKeO8tHXlRg22pH8LCnIttLWsDywqxKK7ePGR5jlTVtF8AqJIpF2cOihWGWAOCKupvjNO0yCIsFkO2AQRvwatovgFW0XwDV1ydrV6HaGrcBCcno3inLppTS7iFui3DbEfuQUAFwFUdCr9yIiUDCzIdmQd4q5M0c+3jKbJXYxuPvqNIzGbuOcLzzLO2WaunVKkiB3QshyA8bFGX1qRgjXoD/GBbTD7XFwpjMFvjjTYUEsBUximntQ1jpWAAyKnVTJ5YQ7itImlIOabR1xwUvtROUaovDC02en7Wgq403OJvBG/FuLpp3H2jihNjb8uvBi7tEY8e50iDaRr5zwuGNSjSGn7lNia+K4SJDyxQA8i9LVJwmi7FxYWpHIYbckyye22aGsb4pDE/wDC+8f6inzLoPS6vEOiC6/FHzB9XodoaupPaH3Oqf6avT7J1HYlt9EXRhboldCkfzGhutoJJP5kbA7Vc277oy9o4l9g7mqTjxSppO1HSj4hmrnGpyngn4Yyi8tbg+JZaROEm9lzvehvGrBzyg7wQeY0Fm8C9Kz7b6PmUyW1rO3LF0x+g4rwc0nZzc5tXju4/nMRq/0tF5jZt/Rqv9LSnmAsm/q1RSxcLEknBzLsSJtjOy678MOcVNjTmmUeC1weNBBySz/0Slw842IR0Rg729o/c5Vi4QeuI7VNiHSehnPrltnBHysa5QSPdXp9k6uuHZOu5i+MVPE8jRMqqrAkkjAAFWs3wGonjjXay7qVUZBAyTVzF8YqQYvbmytlI/XEh7FDxUiQe0Sx+lc/3QCCMEHkINFjYwzAXCDeWs7kbMi+yDkVIskToskUinKujDIYHoI1cTb/ABLW5Ay1tcKOLIPow5xTfZ9M2REWi76Q8S8h8iMuf2moYI1W0VzazoUmgmQSRyKeZlbIIq00howuckWV1xPhmElaU8IJR0GeBfpFWgEe+iIaO6u5HupEYcjKH4oNXIhsbVCzt5Tt5MaDndzuArivOdmGEHK28CbkiX1CiBEqKmxzxlRjZP3OSSN0PtDFHAlmuLdx+tA6VbylDIxUhCQQTUTxxrtZd1KqMggZJq5i+MUwmcSglYztkDB34FWs3wGrWb4Dq65O1q9DtDV/1fCG3H7U5rnuEX3L90gKBkknAApRczdYd0S//wBVI0sjkbbn3AeYVdBNKWIK6LeQ/wDNW3U/qRUN2oi10ragnR9+BviPVv0xNVlc/wC7YSDSqgyycFzM/XxdDir+3v7KTxZ7dxInqOOQ9IOsE1djTGllyBZWThlRuiabeqVMogjcm0sIeJbW/e3S5qb/AHwcba8g+j6vPWUkU7MsL+K4HMw+ho7LrjhYT4yH+o6Dr6RXN4SWifFME1eh2hq6k9oa7f5176h2Y43V3O0DhVOScA1cfI3dUm3M+NlcFc7Jyd5wKt/nXvoYeLwit/8AWGev82nY+43DXPNAh3j+M+TW0UJytvFuQedu80+23VIcKPWeeoIxAwwYwuFIp3EZYPBKDhkZd+MjkYVoM+F+h7GcW0xeMy3kZ2dvGYTwp/jINf7PdN6PccoR9v8A0lSOtFzwXjseHuNJRI3AjmESI7AmpVvbPJaIXWjYE4InnikWNWStLXej7jne3lKbQHM4G5h5jVvovSohTalmms2DheljblBWjdBW7NyFLeWV/nkNJpuTRgQvJwgGi7ARgZJctwUZAopK6yFAYTwiuQccQjxhVoseRkRySBXb+XfQfCk7Ibxo2Xcy0yrOo4knMw/K1FoLmP3Ef1U0oSeMhZo+gnkI8x1dIrn8KLJvdcA1Lssp3rssfoKk25nxsrgrnZOTvOBVv8699LwcbIUByG4xIOOLnoq4+Ru6rj5G7tXVP9NXp9k6v/I6Rspz7T8F/wB9fmhk7Q1TLFHnAzvLHoUc5pGt4juMzH8UjzflotFbk52z47/wg/Wogi8/S3nJ56cZ6BvNLsjpO80NsNy5rSJThABcWsg24Z1XkEic9aDudG3PlzWw+0wf0daxLo0yA2vEKB47WERo2GAO8jNFmHPzg1a/Z5T/ANWAbB/mBuNaQuA8XiXVoSsijnWROdTzjeK8FtDaQuutgga1nf1iGoxoPR7yRhrFeEAkduR5i+96jMlzs8e4ccb1L+UUQKGyl3Fb3AHnlTZf5gaORzqeQ0AJYELofKUjm9RrxBCin1s2Rq5FUsf5DNDOL57g/wDwRPNXWEe7dXp9k6uuHZOuOb3DvpJQ8ymNSwAAL7hnBqSH3nupkaOPOQhJY7XF3ZA6ajm9w76jcumipZwDztbfjqB8FHdPbMB61IfUTwYtQUHNksc0Vl2t6R+SuDjjdJrJYjcBR2F6By/djDdB5CPUaJKm2l2SfOAdTlF5yF2jV3bRjHLcxuWz6wcVPCt3d2LFZS6qj7gyYO4DIWrlJr22ExmeJxJwaOwKJtDnGCatGRxjjyO77fnO0cGlRSeZBsivGGjoi3qEjkajvdlT+poYe6kMnsrxV1HBFu6j1vxR9aXiaL0RcTe3KVhHaNSQ8ZieU859VMjRx5yEJLHa4u7IHTUc3uHfQKuh4QmTcMDdzZ6akh957qkh957tXXJ2tXodoakDwzW7LIh5GU8Ug+sGs7eidKzWshPOkbmMt6iNQ328mw/8EncaP/qx/RhXMSPf9/dGsnByn0G3H/Q1zNqJLyDNvaKcSz+c/lTpavCK10YLKWC2S2hgE8gXGRlCyYj6Go6Xe+5tKCUZD/oDiFK0qbjQaTrBFeRXCyRlnyUBgl4ykgVovRU23GJEim+zCZlYZG4EVbNaaQRBDwDRmIRbI2VAU82re7tuHpOdkV4kMaxr6lGNR41xNkj0It/1IpMG/wBIwWMP8Ft3mXV6HaGrqT2hru/2/wC9XG3wP4mzsYzscbGc1afuf2qLguF8va2sbPG5MDoq7/b/AL0/DB/wyuNjGd+efopMWfhBZpMG/wDcWwEUg7Jo5kVeCl/jj3f6jfXizRsnqJ5D/I0NkxS7Eg83isK5t/u+6QSOUA8moZZeOPZrSRgu4bdYZohC8juYtyuMDG8VoaW4vp3EcElwBJIWP5IV3e8mpRpbSsvGNozF4Iv1D5bfKK4WTQF7yp11jIcSRfqQ14XvomC0m+0GSEuEnjlClJVMZGXXlWt80vhBaoX53xBNQwI40T4VAqBH0naoZru6HjwwSDiQHtahmK2Bk+Hir/rrO0lqohUDfl+Vv9TiuJPYWq3N2mN7XMmZpV+NiKtP3P7VFwXC+XtbWNnjcmB0Vd/t/wB6fhtv8PZxsYzvznf0Vafuf2q0/c/tq6p/pq9PsnV1w7JqLb0roBvt1t0ukQxIntJTfh3QzH5pV7xqGIrteEH8Y3PRyWi2G9a8U/d5TIuD0HLVzHUGBJ4sYbALVCDpXSsW3G5G+C1bxFX9TlOqPa0hZZu7HpLoOPH7a1Nm70K4SLpNpNkx/AcrXjXnhTB2Cn/fWDFbA8HH10rHEcY9ZqQyX9/M087npY5wOgCvGxsr62oca5lwP4I9311eMi4jHTI25RSGSw0U3+J3xPI3BNmNPbeuqf6avT7J1dcOydccPuPfSRBJmEbFQcgPuOMmpJveO6mdpI8YDkFeNxd+AOmo4fce+gqIi8IDHuORu589NPIdpdllYggj3Uhj0Xeub7RTjkRGbJiH6TVgOeLKo8mQcooce1lV/ZfitR3xTbQ9TjvFfmP3P80BX5jqwWjJ4p8oGm/xDRseALK7JzGo5oZOVKvfsN+3/krwiNyeiN/FegVYHNEw6C0ucy8ypbXrYf8A/TIM0MmGa90jMP0QpQ++M1Lt6G0NIwDDxbm75GfzheRdW9iRu6XfcBW9YY1QefZG81fQRN+VnG17hvqTbtIBtbQyA8h5Tv6KSNtM+EGxe3HOEhx+DH7KmkiCTMI2Kg5AfccZNSTe8d1M7SR4wHIK8bi78AdNRw+499BURF4QGPccjdz56akm947qkm947tXXJ2tXodoaupPaGoIumrTautFSk4xMnLGfQkqKSJRK0F5A4IeJ4zsnI5mQ0Qyz2zhCN4OVypFckkGf5oa51B1uGAODjmNf5sdmvzHXEHHnG8eo020PyPuP8jV+89qnJZ3o4eL2SeMvsmtDSWWmbGctFLE4lgeKUYkQ5wy02dJw+DsWgLW5BO0luCduT9Qrxc1PENkb+MN55zU6sR5KnJNQGZkLOkYOBt8i5PQKmaNXICwW4I2ieQbt7VoptC6Ofe15pEGE+xCeO9eExvtIxJk2l3CIEn8yODxKeWLRekLp7QW8/LYaRzgbPRttxGWhhkuEU/ybV6HaGrqT2hrt/nbvqHZkjQuh2mOGUZBwTVx8i91SbcL52lwFzsjI3jBq3+du+l4KRnCE5LcUgnHGz0VcfIvdTbbw44M+LjbznxcdFWuZ4kzpm1jG+REH/NIO3Un4DNiCU+QT5J9E1u2biaH6iudSPcdUgRc4BNOUU+4nn3HmqNJeGYMdo4ww56gDyMdyRxtI3uFeCOnXQ8jiwkRPiZQK8GLpF6Zry2g7UgqwtIv1NIIexmotF+r7bWgrW5/SvoB2yteCl/a2sABmuAgmhjBOMs8RYCrWWRN42gN3vNQmN9na2TjkqDR01pc6PS+giS6zPJE6cIAFx49aUktLGwiimlhhH49wJWKYQnIUDnNWWj9DpgpHMUM17csPJRjtSPXgNLbaCJ4umNNXH2VZP0YIlkaSijSYG0VBVSfMCTQMA0xbLOHTdi8siEYj5DUYE95o5J3IJwlwg2ZF9lwRVx8i91SbcL52lwFzsjI3jBq3+du+l4KRnCE5LcUgnHGz0VcfIvdVx8i92rqn+mr0+ydXXDsnV6H9aGQatC+gpGMl/YxDJsDzyIOo7FMSRcRkk+uuZmGq2jmQHIDDePVVhCvriU1oWwv7R9CSTW0V1AkyRzI8RyqyVZ29rEBujgiWJB/JQPvDOdCXbAeeGPhB2aYDjycp9KjniOjH1HIp8vFbS2reb7LM8QobFrpFLtoFG5Qk8Yv0ArwGbwv8IUEcVpZ3N6I4I0XoW5fgUX2Sa/2YaEtrXkCPpdMgeuParQtno2cY2Utr03qn1sY4sUBwuitKRk/o3IMTfMVp8vom7MsXow3qFu2javT7J1dcOydd1N8ZqeVkaVFZWckEE4IIq2i+AVEkUi7OHRQrDLAHBFXU3xmnaZBEWCyHbAII34NW0XwCvwdvb2uD4mcYxnFXU3xmiZcyFTt8bK4G7fzVZpaWCvaTwwR7kQzQpI4X2q/OfuHCXcdzbP7cD4+/ySaJv099u1czNXNL9RRy9jpuXA6I54ketwvbazjc9LSSy21DRJ0mQmP8TaUQKOckQAsxq5/2dSJ0Ml+laJ0FGuN9zo2+nlBP6U8CdqgDFFoaVx+pERIvzCh+CV0bF6z+NVtF8AqJIpF2cOihWGWAOCKupvjNO0yCIsFkO2AQRvwatovgFW0XwDV1ydrV6HaGrqT2hq9P+mrrj2RXl6Nsm+WucZ/0H3G2UttNWjSH0BKu398Z4W2nTH8cRFc0jfQVzSKa5ZIbC5X2C6GtJQTyaKEMt5wUomaDgbvbw4SvCwOCxwEsronsVpbSb/p2D/1IqfSJRFDE3FncWowehpFCt7Jq4B0vpoxm5QHjQWaMHJf9UikKXen78XuDyiF8JF8i7er0O0NXUntD7nVP9NXp9k6uuHZOr0P66upH1NWkj6IvNFw20lyoykVxEzcV+jINSGaJRgK5yQPMabZf8jbjrJDRyggjmo5W/wBH210o/XjV/vcjMg94AqRUa3vZYsH/ANNiv9KZmYkYOzgbj5600+ihPaSy3dyC5AgixkMqFdqtMaZ0hJzuksdvEfZCE1HcyaShk/Gsrm5BFxE35HkwA6V/sn0eDEgQ3EGhRPK/neW2bjGvBvSejyeeHRP2f9y5qcQWpmE9zbNci6vL1uiR0JCqajWOOO3ZERAFVVVcAADkA1en2Tq64dk67mL4xU8TyNEyqqsCSSMAAVazfAaieONdrLupVRkEDJNXMXximEziUErGdsgYO/Aq1m+A1+Dt7GzwnEzjOcZq5i+MUjTIIgpaMbYBBO7IrR5ubSRSrwyxFlKnlGCOSoP/AAxpV+e1wIvbtjhfhxWj/wDEtEpvGkbAGVFXplTxo6cSp0P30jxn4hU6ltxC7wTg02Z7JZrGTzfZpCE+T73oGtNSaOg0RpyfIigEzyie4lGASwC42KuLyeyu9FpcrLdFC5l23jccQCvB9Ybi9sLc3d+A0ss5dAxy7ZNSpFIu1lHIVhlid4NXMXxijc8E0jFCoYqQTuIr7V8J7quYvjFTxPI0TKqqwJJIwABVrN8BqJ4412su6lVGQQMk1cxfGKYTOJQSsZ2yBg78CrWb4DVrN8B1dcna1eh2hq6k9oavT/pq649kavR7Ip8p+Rt4rQg0ffzoHN3o4/ZpMvzkAFH9oV4ZQunNFe2pQj24ia0voe7g0dGsskFq8zSlC4QkBkFP/wAteQ30Q6Rcpwb9j73PGP8AQ1z6TST9+WuW2vLixf1XCCVOwabaY6LhglPTLaDgH+ZK9DsjV1SfTX1ydrV6HaGrqT2hrt/nXvqHZjjdXc7QOFU5JwDVx8jd1Sbcz42VwVzsnJ3nAq3+de+l4ONkKA5DcYkHHFz0VcfI3dX4vBbW35ONrGPGx0Vb/OvfTcFIzlwMFuKQBni56KuPkbuqPbhfGy2QudkYO44NW/zr31NsyRoEcbLHDKMEZAq4+Ru6rfFlpGxns7jBU8SdCpriPdreaHuRzLNCdsfPF97nDLX/AFoOH/eib/vpf+VvrCdT0Ey8F9HqXCWOnZ4ovMk0aS1HtwvjZbIXOyMHccGrf5176m2ZI0CONljhlGCMgVcfI3dVv8699Q7Mcbq7naBwqnJOAauPkbuqTbmfGyuCudk5O84FW/zr30vBxshQHIbjEg44ueirj5G7quPkbu1dU/01en2Tq64dk6vQ/rq6kdo6vT7R1dc/a1pgXM1npu2/VjfEnvdKk27W8t47iFvzRyqHU+4/d8mT61cx21zfWdqheSFJwYpoInOBJ50qLT2l7dyMJwZtrAdiEVcRz6Wvb1r+9MRykbsgQRr0hQK9PtHV1z9rX1T/AE1en2Tq64dk645vcO+klDzKY1LAAAvuGcGpIfee6mRo485CEljtcXdkDpqOb3DvoFXQ8ITJuGBu5s9NSQ+891cfhsbPB78bHLnOOmo5vcO+iFRV4MiTccjfzZ6akh957qV2kjzkoAV43G3ZI6ajm9w76eIJMxkUMTkB94zgVJD7z3VHN7h31E/DaBvRHcZ/y17hO2FqDSMc+jozAt9FEJ4TCGJjyAdsFVrw00SC3IlxN9kf4Z9g1e29yh8uGVZB8pOrG7nZhGo/m1eF+hrYDfwK3aSv8ERZqvXurcaMggnlaFoQZoWbeofBI2alSKN4ImIcEMDIgfduPM1TRMx5SWYn6UrtJHnJQArxuNuyR01HN7h308QSZjIoYnID7xnAqSH3nuqOb3DvpJQ8ymNSwAAL7hnBqSH3nupkaOPOQhJY7XF3ZA6ajm9w76BV0PCEybhgbubPTUkPvPdUkPvPdq65O1q9DtDV1J7Q1en/AE1dceyNXodkauqT6a0L2GlbV7ScKcMBKMBlO/DDmNeF8Tp5EGkYCnvlhrRujr/z297GB+/sV4F3WR1dxbv2JK8FNLAfroB268EZ/XNe2y9qWrPRdl+veA//AEh60xBpOSBhJHo62Ui2Lr1jPxpRQ2Q05wPMFA1eh2Rq6pPpr65O1q9DtDV1J7Q+51ydrV6HaGrqT2hq9P8Apq649kavQ7I1dUn019cna1OVcbPGH8Qq6epS6CInBAxnI1Oyg7ecEjorea649kavQ7I1dUn019cna1eh2hq6k9oa/wD/xAA6EQABAgMDCAgGAQQDAAAAAAABAgMABBEFEiEQEyAxQVFxkSIwMjNSYYHBFCNicqGxQCQ0QoJgc5L/2gAIAQIBAT8A/l6ocnUpNEivnCJ1JNFJpAUlYqk1H8Caf1tpPGCoCLxhmYWyquzaISoLSFJ1Hrn3M02TtOAhR0JB3tNHiOunV9MJ2ARrMFBSAdhyyjThUHE6gYPVjJP4ODzSIlWs64AdQ1xMzDCm1NpxI1bsrc4tpKUhIoNfnCFpcQladR62fNXgNyRDS83LukayQnRkFVbWnca8+tnDWYX6RUwBWHE3FlMBJIJ2CEiqhEkLjryN3V1Chga4kcskz37nHIiHhVDbg1EXTxEMi+28nbQK5Qk0hhJz5VSl5sHqpuYErLOO7QMOJiROYkGlOGpIKuN41hp5LwNNYibFJheSUbadWpK92ETSG2GA2kmpVXGJVYS+muo4H1hlxMo84lYNIbmrzjrhFEJRq8h1VuPlS2mBs6R4nAQ5dCmW1dlKRAQlqYSU9lYI4ERO0z5puGUknJMjOttvjaKKhvBmZ/64s53OyqQdaOj1Ah5z4mbed2XjThqEPmrzB2G7CnTcWK45yo0SKRKEKQ60rslNYGErMnySOZiynLr6kbFp/I6icdzMo8vaEGnE4CGRRHGHCVSks6NgAPEQTUk6CBeUkbyIWDnCkDbSAj4VlRWemsUAheEk79S0jljDDmafbXuUK8IOnba7solHjWOQgCgAizyl+Xcl1HEGo4GBKZpDinaHCidAoW2UkjcQYM4yCVIa6e8whtyZUXXT0BiTE0QJRsAUvuFVOGGRhecYaXtKBXTtpVXpZG4E5GnVsuBaDQiHHjMSbbtKVOI4ZWwFlKSaAqpWJeZDYzTuw0Bh3MFpRTc4ikTc0kozbZrXWRFodH4drwt1Prks5V6UR9JI07UN6fp4WgMsqb8gsbULhWsw8MELGpSfyMDkMuJptLqCAoiiuIj4F/cIYbvvIT5xPOZ2acOwG6PTJZJqw4Ny/wBjTnzW0H/K6PxlsxRK3Wti0fkQsUMN/NYWjanpJ98jL7jJNw4HYYXOPLSRgOEWe3ipw8BDiVIcWlXaBIOSyDg8Pt05zGdmD9Q/Qy2fJlhJcWPmKGrcIm27jiuYhpwtOJWNkTLIQQ4jFCsRkZaW8u6n1MSUkFNKAwAFB90WrLEfOAxGCxksjtPcE6c5/eP/AH+wyWZIlRS8tNVHsJ94l5ZDKcQCojE+0Tkqi+ptWw4GE2eb4qsFO3YYaQwWyGyFIO43hBkGL1aq4VhospBS3Sg1xZtosPTJDSibuCvMGLRl0mq6VQsUVDzRZdW2f8TFkdt7gnTnxSce4j9CJCSL6g4vuwf/AEYkpe4nOKHSOryEOOXcBrh9nOC8O0PzE4otyr6hgQ2qJZczKrC2lU3p2HjCHJefZzt64pPb+mm+LTfzDDUuyeg4KlYPaEWKA1OgDan9EQSFsuIV4TSLSP8AVr4D9RZA78/b76dpik0TvSDFjModaZB1BN4jfjDjlOiMtstj4F9YGNw1jZEshlTMym4vPqbOOsEA1oKRMZ5uSlWq3QsLKgRiRXARZI/rmhDpo2vgYm1X5l4/WRywiyR8p0/VTkNO1k0daVvSRyiwHeg0NylJ54w6Omcs+3nZN5G9BHOE4pHCLKlzjMHaLqPcw6yy+m66gKHnEvZbUi+h4JUK4YqqBEyoJZUYJKiSdZxizE3ZQHxKJ9tO1UVZbXuVTnFiO3VLHhUlUPdocMrgvIUPIw3ZTzj6gvotBRpQ4qGykOSqWJdF0AFNAcj4Bau7yAItVebk3OBySqLks0n6QeenOozko6Nwryxiy13Zm74kke8KN5tpW9NclLzzI33v1kbaQJjD/EVh1N9tSd4gYkQ5i6keEV5xbzlJcJ3kD39obQXHEI8SgOcasNOgOBhgFieQnwuXeeENmsq0fTIgfPa9f1kdK2Xs4NRhtxLqbyYKKTN364QbxUvecOAwi3nKuIT5k8sIs6WcL6XVIIQASCdp6m0m81MtvDUqh9UxLmsonyUcjRBdbIO/9ZCAoEEVEKQ5LKvIOELcvuhYFD7xnGm0gXhgIclkPTGecxoME7K74r1M8xn5ZQHaT0k+kSJvSZP1A8wIJCQSTQQh8tO3k4pBJA4wqadO0DgILqzrWecVhCFuKuoSSYUkoUUkUI6yS7h0biIFNqQRtBicDOZBQgJN7YKaFnmj6vsMTdDMLI6yRPy3v9ck13XqNCV730MTPenrJLsPf65JjuVemhK976RNd56DrGnVNGqTxG+ELStN4Q93S+GhLqCXASaChh9aXF1TqpTrW3FNmqfUQX21tqFaEg4H+HX/AJX/AP/EAEYRAAIBAgMCCAoHBgUFAAAAAAECAwQRAAUSBiEHEBMiMUFRcRQgMDJhcoGRocEzUlOCkrHCIyRAYmOyFTVCk9FDYGRzdP/aAAgBAwEBPwD+MSnZhc4amYDdggg2P8BBFfnnAUnGgYlp1kG7pwQVJU9I8tGmtwMIo8SsjsQ47j5alXcT2nHQMLIrEgdI46mRd6HA8meKj3qfQcVMmhPScQQyq6ueN6UOzMTvOGUoxU9I8rRi0ZPacSLrnjHUBfxaxbOp7R5WlFoVxYYJAxG2tA2LgEDrOGNlOKk64428m8ckTAOpUlVYA7tzC4PtB4oPoU7uJxuGITpZ0PUb4lOmSJvTbDi4xI14gt+hj5LZ7KWzzOaShFwjveQjqjXexxtjNDV7T14pkCxxMsCgdAECiP5YeNoyL4pjeFeKpeRFBXt34p2eWYueoYqF1RG3SN+JFNREjLiDL5KqampIyOVmlCAnou24YIZSVYEEGxB8jwV5WI4KzNZBvduQjP8AKvOfE0jTT1U/+qSVj+I3wSWiN+lSPccUl+S9vGAB0Y6cQHk5HiPeMZKL59lX/wBKn3b8bbZaMvz2V0Fo6kCZe9tzfHyBxlNEMmyHLqG1nWJeU9c85/icFOTaqTrV3X3HCxAlTbcU346PEBvipGl45B03tjZtde0mWL/M7fhQnHCHQ8vlMNWBzqaWx9STcfjbyGzNCMy2gy2lIurTqXHaic9vgMVj65iPq7sZvB4Ln+aQHcDO7Duc6h8DgCwA8RzpUnsGEYBASekYLGolUKOapvjY9OU2lgP2cEre8afnjOKPw/Kq2ltcyQuF9YC6/HA8fgwpRNn81Qw3U9MxB7Gchfyvhm1MW7TfHCDQPTZjT5kg5kyBHP8AOn/IwakyMgTt3+JrRwwv34FPIbKZOb6DhnSBRHH5xxsBCWzatlO/k6ZY/a7A/pwNxvjOKUUWbV9OBYR1EgX1b7vH4L4dGX5xVfXeKMfdBJ/u4sxy6lzWjkpKpNUT9nSpHQw9IxmWWDJ85qaHleUEWmzkabhlDfPA4nJUFgLkDE0Je0kfXhOW1gHVimgbVrcWtjg7g/dMxqrfSzqn+2L/AKuLbiDkdpKlh0SpG4/CAfiPH4Po+S2ULdc1ZI3uAX5ce3cBh2ijm6p4EN/St1+WB0DER85PqniExgcowuOrHhUXTYXxM+iJm9GNk6LwDZ+iQizyJyrd8nOHw4uEeK2a0cv1qbT+Fz/z4+xq6Nksr/nM7H/cI4+ESlV8upKv/XDPo+7IL/pwhuuH/ZzK/U248UkKS2vhKWNGB3nvxWvuCDvOKGeCqo6eeD6KSJWT0Ajo9nFwlJZ8rftEw92nx9lt2zGUD+ix98jcW4bzuAxtltMucTrSUrfucL31fav0au4dWKZ9SAYkQSIVxBLqGhvOHFLKsS3OK2uMUidZJu3q44Pc9HOymV9zXkpj8WX5ji4Sh+wys9jzfEL4+ypvs3lXogP97cW3O1QAlyqjksi7qqUf2D54qqx53GklUU80fM4pKkvGki9Y39+DWcw7udipjq6abTUwyRS2vpdCjWPoOBVS2tYYdZnK3BLMbAdZJ9GNpNls2yegglr4BGJwWj3glSvU1ug4yaulp5IzG5SaBw8Z7jjKswTNMupq1BYSxgkdjDcw9hxwlH93ywf1JfyXx9jH17M5d6BIPdI2Nr9qFyeFqOla9bKnSP8Aoqev1j1YzCqMrmJTdQece04jjvvPRiln5E6W8w/DGzkKVWf5VEwBR6uG46iNQJxnNDk+f0zUtfEWG/RKBz4z2qcZxkWZZBmYoWR5lkI8HdAbTBujT6e0Y4OshiqayqzOsQ8tRPoSBlsY3tfW3pHVjhMaSpyBGYjmVAPvVhhLpPHIvTqF8bDqRs1SE9bSkfjIxwlt/lS/+8/2ePsDJymzyD7OeRfyb5425qJYs8zIm+ozaQewad3wxHHfnHj2GmYbT5ShO7wqO34gMG4vjParNabMMjqJaim/w2KsjBjXmyLIVKhnLdI7sZCmW120mf1wXlWhkpxC6uQoYoQx3Gx3rjhBsuzUt+qRLYhF5o/WGNnIPBshy2P/AMdGPe41n88cJEl8woYvqwFvxNb5ePwbzaqCvg+pOr/jW36ccJVLyec1L/axRSj2DQf7cReYOPIKsUOdZfUk2EVRG5+4wOHFnYek44QM6WaWPKoSCIyJJj/N1LiizCuy6QyUlQ8THp0mwNu0deMz2uzLPaBqKaZHCHXuTSxIBGKGNpqqNFFyTYd53YjjWGNI181FCjuG7G3s3K7RSJ9jDGnvGv8AV4/BzU6Mzq6cndLBqHfGR8jjhOpNRoZ7efHLEfZYj88Q+b7eOJtMqHsYYrdvqanyqBaQmWsMC62YELG1t979OI8wlrK2VpGLa7tc9JN7knv4qQkThwfNBY42PpvCtoaBLXHLoT3KdR+A4toanwvPcxmBuDO6qfQh0j4Dx9lKvwLaHL5CbK8nJHulGj544QKblshEoG+CdG9jXT54C6JJV7GI4gdME57NP58U88hpDqPnEKO4dOIH5OaN+xhgmyk4gGmB262IX3bzjg0puVz0S/ZRSP8ADR+rFbVCio6mqPRDE8n4RfFyxJJuSbk+OrMjBlNmUgg9hGM0lTONk6mdeiai5a3YVGu3sIxMNNXMPb7+JjaCYer+fFCkVTT8i3SPf3jE0LwPocdx6jgSaqPlP6d/hhhoVI/qrv7zvxwWUnMrqi2/TGg+8SxxtxnlFHlU9BDUxvUyuqOiG5RQdRvbut5HYasFfkVXlrnnw61A/pzA/O+KsWrGPag4pAVilBFiLfnxKxQhgbEYV4ayPRIOd2fMYjhEUBiZrqL7/RjkppXJ0Nzjikz6qy/Jny2jJiMspeWUHnFbBQq9g3b8W8jslmoyjPKeR2tDKeSl9Vuv2HGbx8jmTJ9XUvuJGFUsQALk4emE0Ol9zMqhiPRhaOFekFu84WGJehFHsxbEjpEup2CjtOEZZFDKbg9B8mcZjczxMTckHF2G9WKnqIxQPOZ2DyFlK9Zv4mZgmnX1xihv4NGD02P5+UzEftIPvcVF9OO4+JXfQj1hij+hHefKZj58H3uKkNqhPb4lb9B7Rii+h+8fKTQpMtmHcezEkbRMVbFObTx9/iVSM8JCi5uMUsbxR2bpJv5WWFJVs3sPWMClljlQgalDDeP4O38IP+1//9k=;fontColor=#4495D1;fontSize=12;imageBorder=#000000;fontStyle=1" parent="1" vertex="1">
                    <mxGeometry x="534.5" y="109" width="48" height="48" as="geometry"/>
                </mxCell>
                <mxCell id="12" value="&lt;b&gt;&lt;font color=&quot;#4495d1&quot; style=&quot;font-size: 12px&quot;&gt;Resource &lt;br&gt;Group&lt;/font&gt;&lt;/b&gt;" style="aspect=fixed;html=1;points=[];align=center;image;fontSize=12;image=img/lib/mscae/ResourceGroup.svg;dashed=1;labelBackgroundColor=#FFFFFF;strokeColor=#4495D1;fillColor=#FFFFFF;" parent="1" vertex="1">
                    <mxGeometry x="603" y="112" width="40.63" height="32.5" as="geometry"/>
                </mxCell>
                <mxCell id="13" value="&lt;font color=&quot;#4495d1&quot;&gt;&lt;b&gt;KeyVault&lt;/b&gt;&lt;/font&gt;" style="aspect=fixed;html=1;points=[];align=center;image;fontSize=12;image=img/lib/mscae/Key_Vaults.svg;dashed=1;labelBackgroundColor=#FFFFFF;strokeColor=#4495D1;fillColor=#FFFFFF;" parent="1" vertex="1">
                    <mxGeometry x="541.28" y="225" width="37.44" height="39" as="geometry"/>
                </mxCell>
                <mxCell id="17" value="&lt;b&gt;&lt;font color=&quot;#4495d1&quot;&gt;File&lt;br&gt;Share&lt;/font&gt;&lt;/b&gt;" style="aspect=fixed;html=1;points=[];align=center;image;fontSize=12;image=img/lib/mscae/Storage_Accounts.svg;dashed=1;labelBackgroundColor=#FFFFFF;strokeColor=#4495D1;fillColor=#FFFFFF;" parent="1" vertex="1">
                    <mxGeometry x="654.44" y="46" width="41.11" height="37" as="geometry"/>
                </mxCell>
                <mxCell id="18" value="&lt;font style=&quot;font-size: 12px&quot;&gt;&lt;b&gt;Service&lt;br&gt;Principal&lt;/b&gt;&lt;/font&gt;" style="verticalLabelPosition=bottom;html=1;verticalAlign=top;align=center;strokeColor=none;fillColor=#00BEF2;shape=mxgraph.azure.user;dashed=1;labelBackgroundColor=#FFFFFF;fontSize=16;fontColor=#4495D1;aspect=fixed;" parent="1" vertex="1">
                    <mxGeometry x="547.58" y="296" width="21.85" height="23" as="geometry"/>
                </mxCell>
                <mxCell id="22" value="" style="whiteSpace=wrap;html=1;labelBackgroundColor=#FFFFFF;fontColor=#4495D1;fillColor=#FFFFFF;dashed=1;strokeColor=#4495D1;" parent="1" vertex="1">
                    <mxGeometry x="522.48" y="560" width="177" height="142" as="geometry"/>
                </mxCell>
                <mxCell id="23" value="&lt;font color=&quot;#4495d1&quot;&gt;&lt;b&gt;EventGrid&lt;br&gt;Viewer&lt;br&gt;Blazor&lt;br&gt;Plan&lt;/b&gt;&lt;br&gt;&lt;/font&gt;" style="aspect=fixed;html=1;points=[];align=center;image;fontSize=12;image=img/lib/mscae/WebHosting.svg;dashed=1;labelBackgroundColor=#FFFFFF;strokeColor=#4495D1;fillColor=#FFFFFF;" parent="1" vertex="1">
                    <mxGeometry x="537.48" y="579" width="50" height="50" as="geometry"/>
                </mxCell>
                <mxCell id="24" value="&lt;b&gt;&lt;span style=&quot;color: rgb(68 , 149 , 209)&quot;&gt;EventGrid&lt;/span&gt;&lt;br style=&quot;color: rgb(68 , 149 , 209)&quot;&gt;&lt;span style=&quot;color: rgb(68 , 149 , 209)&quot;&gt;Viewer&lt;/span&gt;&lt;br style=&quot;color: rgb(68 , 149 , 209)&quot;&gt;&lt;span style=&quot;color: rgb(68 , 149 , 209)&quot;&gt;Blazor&lt;/span&gt;&lt;br style=&quot;color: rgb(68 , 149 , 209)&quot;&gt;&lt;font color=&quot;#4495d1&quot;&gt;Web App&lt;/font&gt;&lt;br&gt;&lt;/b&gt;" style="aspect=fixed;html=1;points=[];align=center;image;fontSize=12;image=img/lib/mscae/App_Services.svg;dashed=1;labelBackgroundColor=#FFFFFF;strokeColor=#4495D1;fillColor=#FFFFFF;" parent="1" vertex="1">
                    <mxGeometry x="611.48" y="576" width="50" height="50" as="geometry"/>
                </mxCell>
                <mxCell id="52" style="edgeStyle=orthogonalEdgeStyle;rounded=0;orthogonalLoop=1;jettySize=auto;html=1;entryX=0;entryY=0.43;entryDx=0;entryDy=0;entryPerimeter=0;strokeColor=#000000;fontSize=12;fontColor=#4495D1;" parent="1" source="30" target="40" edge="1">
                    <mxGeometry relative="1" as="geometry"/>
                </mxCell>
                <mxCell id="30" value="jenkins-cli" style="shape=image;verticalLabelPosition=bottom;labelBackgroundColor=#ffffff;verticalAlign=top;aspect=fixed;imageAspect=0;image=data:image/jpeg,/9j/4AAQSkZJRgABAQAAAQABAAD/2wCEAAQEBAQEBAUFBQUHBwYHBwoJCAgJCg8KCwoLCg8WDhAODhAOFhQYExITGBQjHBgYHCMpIiAiKTEsLDE+Oz5RUW0BBAQEBAQEBQUFBQcHBgcHCgkICAkKDwoLCgsKDxYOEA4OEA4WFBgTEhMYFCMcGBgcIykiICIpMSwsMT47PlFRbf/CABEIASwBLAMBIQACEQEDEQH/xAAdAAABBAMBAQAAAAAAAAAAAAAGAAQFBwMICQEC/9oACAEBAAAAAN/vK8lS9gFFU0NQB/lBWtieV5WkQ3nrxnxqAP8AKCtbE8ryVL2AUrCxhj8ojxifmB6IL3If81PpPr5sNcHldUbfu+EkXuQ/Ab4wx+UR4umro6xAE+SwoqavxCOhNKCIM3KsrF8efOuGmPUMlirD9rt0dYgCfJUIZSVpAP5uKipqQH9X6luSpN5MGJJJBvM7qGXkmYVykrSAfzay+V5Kl7AKKpoagHfMuyWHQVisGVJKL0jrHr4CtbE8ryVL2AUjTEwySDdk7dMojlBcN2Uxvpj1i1q2n2KSVUVrpf1PPviVxMMkg3ZKAdHWIAnyWFFTTU6mrEhQrfOO1A3R8SSSAaL3v9rt0dYgCfJVCpJJJffPIoX213FTdxkrw/8AqAnWohrNvr6kkklNeV5Kl7AKKprUbmlul9SxNswknurmw8lqLtu700p7ovksTyvJUvYBSn/uSxMM71rQ/NSUn7JA9mtpUvdC633VubUK6dWLP1ikerjT7ksTDO9QW6OsQBPkofx2vGpd89WESb6JJYM6x88t5SzmeJ7M7g5jrEAT5KsWEbdz8fHc3xqeht1vrFaf0kkllxQvOzpnypOKQ642SNu5+PhUX+V5Kl7CoOWV6MKn6iTz5JJJCbqb1nHdluap6PGvUCvZUvYBSd5zBuHy+hFVTfzAwm2cHt0kl6CFOnUpblUKjJj2jexhy3D5chVeujrEAT3Hi5mCUNUvS63/AJxZclfh+owDc9R74aYz/irvdrcDEAT5Kl5XkqXhHH66cCSD9hNysOuexvnukpGbK+qL0fsJKCsLe6UL2AUrCxhj8o13532L4kkBdYGgTSu0PmCg4Oyznkxa8ml8DfUzOUR4umro6xAFBaYnKS8BKq3+2xw1bQm3kivqj9CIwcuuYX1WfaDEAT5KhDKStIDW7S47SHaqmCqtdpz8X19A7+zwVBFan6/uye+qx7ONYB/NrL5XkqX6288rJZ1jAWF9xkZLbk6vloqD3EJv5KosvuK1UG9UXBewCkaYmGSQrXlDcVRYS2KZJLA5tf7+ANpYeetY2MOjGJKekXsg3ZKAdHWIAm+NN1V+NEkOkkm1y42n3snq/MUu9gLyygu2+7OIAnyVQqSS5rh8lr/aY8kvPWB+xvKut666n9UaZbXCqT67mKSSmvK8lS+P155xW7SxTDpesH/kBt9e9ak+daBNyk6jGvXGvZUvYBSn/uSxMM8vyFlYIXcYUsnz8xRhtfZ+qOxmp9cDt5YKn6TXrJYmGd6gt0dYgCfJai5L3DTpKyWN7g+VjgC+ch4FQb22byr/AKFG2IAnyVYsI27n4+FmNM9Nx4xjMQi7+zEwns8VWwPgv9n0TYXlzJ37eu5+PhUX+V5Kl7AKKpnm7p9Z0P8Abu5OmblJKmOYMD1Y1j2pHbl1phNiJUvYBSd5zBuHy5DDwBVyJYQqVp9W0klW/IPF0TD9xqnsoB1031bh8uQqvXR1iAJ8lhRU05c15FJSfZtJJBXGzJtwzveItSiLC2ZxAE+SpeV5Kl7AKKpoa0B1GIXqhu2cokkOcX2hhvCK12/zdE6+lS9gFKwsYY/KI8Yn5geb0do7T0x89V7ySSHeawF0lthyMfBVjDH5RHi6aujrEAT5LCipq/D8QTrbU187upJD+pYpt3KxVh+126OsQBPkqEMpK0gH83FRU1IQDQkzB/ObqcklD6ekvmyLUkzCuUlaQD+bWXyvJUvYBRVNDUAf5QVrYnLTqT9JJlzBDN+r/wAoK1sTyvJUvYBSNMTDJIN2Tt0ywP8ALG/ErqKKbWWLkbVZze6ytH2WN+JXEwySDdkoB0dYgCfJYUVNX4hFWH7XeLUuoxX7zk187pOBCKsP2u3R1iAJ8lVdujrEAT5LCipq/EIqw/a7dHWIPmZyHEzV+IRVh+126OsQBPkq/8QAGwEBAAIDAQEAAAAAAAAAAAAAAAQFAQMGAgf/2gAIAQIQAAAAAAAAGYeJgAAgV3ndd5AA00uss7EAGayt9eU+2wAM4qtMqsS7f0ACo8RRazwAUkbPrysrEAFDp97Wm2mAEfRKqI8qRF37LEA5y02wIgnaJ84DPFdDGjjM2MvwI3I9BDweszIsHrQKeku9lebJ2qPWdbtBz9bsvaxsmydECt6ScDmYa5i7dNjq0xol9aA5aMs/G+Nu2SKLxdXAOVjuijaN0Xb1PPUlxdA5aNedpRVc7Rv22HBWd0DmdvdSq6l5Hpa7Pe/P5dyDnej6GOqOJkbdncfP7W1BR3HRa0P59dWubb530U8FW7PU8cV1UO5ruF6veCLUd/r8e48ujuKHlevAcz9BxnEOfVT+WhX4Ci7X1nGIPibRyMAIl/tr2rx7x5wALTfoqydqjABZSI9aScRwAsZOmrJKMAG2y81Ru9RwAbZdeM4AAzgAAAAAAAAAAAAMmAAAAH//xAAcAQEAAQUBAQAAAAAAAAAAAAAABAEDBQYHCAL/2gAIAQMQAAAAAAAAFJCwAAJU76s4ygAH3lbhj4YAKTp3z9oWPqAKVn3Y+QRcdQAUrkayhjogApXKSKfP1SDDAH185a982a3cZYAMzP1nJ341mRZuYwA7TyWLNlKVh5yupAU9Reb/ALkCkTZNx40BnPSXnWNU+aRNw6p5sqDo/XuQaPOLcO5vnWfNeOB2PoMLghbiWL3VOicJ1EHdtucY121egfd/tWx8d56D0FsTnvNrUi1bs+jZXKuYA9D51xHW79mTb1nrvVeZcoB6Fz/KeG7BkbVbU3X/AFHofJwd9gec4WT3H0Z5+3ef5y9Na1y0HcOR6Ffbh6W1mFa87ep+d85B13Rua3GY9Ycj0G/qvrjiOmA6Hf4ddXO68Zn63tPp/wA54cGw9L83fdy3Jx+0a70juvmUCvffMPzWk/E5/Fdnz3GQHXuB260rkrmP3bB1AbJo0PLUv/fzX6qAUxEWVmDHXpYAYmHLy5DrLADFwZGaIlJgAWcN95wj/MmoAWYGVFKgAUqAABSoAAAAAFKgAAUKgAAAP//EADUQAAEDAwMDAwMDAwMFAQAAAAQDBQYBAgcACBAUFjQRFTUSEyAhJEQiMTIjJSYXGDAzNkH/2gAIAQEAAQgA0b4ZPDJ8mPxI/BT4jP8AL4kfnJ8Mnxg/B/nFclWXKDLWWu5bBGkaLyJfcVgqPkUvotvOxInX0sV3gYddLLUiWzPWCHm+1NGJHMbiguSz6kfnJ8Mnxg/B/nFcm+GTwyfJj8SPwU+etD0QuJeKvZZ0B2msdYY5FVfrQ9PSiZgtiY3QHaY/2PUdV1oenlO8smy8XoDtNZCAoCKS/Wh6LEKVKXUTQaj17/p1kndTjqDXrgNs03TZXl33UA1bzXU361YftcybJkUinETZm222U6wvZkBdbXon3aLkYCl97S7RbIeNHCwg/HO7yexe9EWUR6aRjKbPY/xboTtNZCAoCKS/Wh6LEKVKXUT6A7XWh6IXEvFXss6A7TWOsMciqv1oenpRMwWxMboDtdAdwB5wvD38YRxHPOU4k38TiOeCpw9/JkaSSUXUtTSyPm6C4jASQeHOa563LLrgslmD8MYobqOeSBIG6bhHQAyN48xDBsZoW1Zb1bLa/rUin/51F2vvqaVUougoOvP9s8BllixTFWzJe32bpq24bzKwZeYeqEe/kyOAvDG5A84Xh7+MI4jnnKc+yOeh2s4ZZJdX3ts0ccM4jKCi+yOem5BVoWuXM97bNOf+8fa6H2Rz02rpNCFyBvvbZo4EpxKUKFz/AJ7sxkirEonijbys9072ydLMmitLQsOyYqw445UcrJ7PU0xxB0kEL1rr/wC35TyCMGRo6syPSts5wPkX1Rgk2aMuxYWTsvsjnod0AFQSQV97bNeyOeh2s4ZZJdX3ts0ccM4jKCi+yOem5BVoWuXM97bNe9tnBvhk8MnyY/Ej8FPiM/y+JH5yfErlyMBxm7yVbDxUGVk7pPsmT7dAzSEygrfji1POk1Ha1q1sSspS2++t9fWtttbq+lDiQGu2y5wp6Vttup+D9Io/EGZd7kGbct4eyox9KPt5yevjPIQSq+j/ADiuTfDJ4ZPkx+JH4KfPcYOrngQuy4ZPtw7SLcs0K2mr9xg6KKTfE+nG7cO0L/x/6+q7jB0SNe+30JGdKN8Taj39+ytmGW5dfLlC8f7Xb1QE3zIoQ+FYjS1KP4tcU23dMeiCtf8AVd6atpW6tKUz1n+sDVUisUa8CZnyDWr45YEx1kXG3vTZIvwyfikLKpUfSdnrabjs0WtrTkbGEoxm62gPeEZ9SU4ji7uWoylGX3Ep9uHa7jB1c8CF2XDJ9uHaRblmhW01fuMHRRSb4n043bh2u3DuAPOF4e/jCOI55ynEm/icRzwVNb0JQo1wNljqG2SFs7e1OuTH1+f3KRmVKN1iQSrnuXOLs08u1WFkd3em2zGVXlRfJkorWt1a1r+eUIYNPoI9Miuzh6qZDZqw3heGNyB5wvD38YRxHPOU57Z17H0P7rXc2vc/eP2Ou2ddL2/+613Nr/6PXbOklFWZS0FLei+hHzOONSEVv6HDWPGpPSdPW+2ldrAHXvmQ5VfqtKVpW2oggjeIgGHpNO6+tNQWWESAyYNJ+rba3XUpSNyZil7Sm7MenJA5dpcrQcUzROeQlgf9bYKWtOcMhxylHzof2uu5tds69j6H91rubXufvH7HXbOul7f/AHWu5tdzcG+GTwyfJj8SPwU+Iz/L43F7iEIJ9+LREihq/qcTHzx7MY4/LKEf2E9WiQd31WUv1tOHsSxWQtT8LL7K209MpuC+IsnNmR0Gp1bH1sEdGtO76FLLtYUf+x8lzXFrnqpKQdtl6uPZQz44zlKIUn3+tiLcXKn+xveWWWswsmj/AAb4ZPDJ8mPxI/BT57jO0m9FGX2jKduA6XbUGhK41DuM7Q5N77fUYrtwHRNKsFbKCbhs534wjtjS3RiOlypwWLNyGeF98JnEx9hbI2UwkFwX3aDOm5uUKa8aztzEd0o4+bZiaNffcPv5t9Pqp6z/ADNnTHc2eRTphuAyHklkUi5OA4c/QjG4jc+63PwI/wBG7JDDhzKQOT4ykdWabWJ2ZJ3Etmxbthbok5Cvkpy+0rOuaZqINgrMh2JJGoM4AtTK6BDHg9xnaTeijL7RlO3AdLtqDQlcah3Gdocm99vqMV24DrtwHgDzheHv4wjiOecpxkqYsePIsZKnY9wkWUpmY5uYAQjYKgINj+K/9TMpN7MvmR5nrEyXM2PIFuOyfF1xD5HuWam5qn7NMmXbU7SCRZafX6/8LvRROqd44ogl1bhuFkUCUVUCJtGZJtuyGHJo1CZqxZBjoz8y0p611KFqGZ2nC1JvHqLpXuwu0PMd4pVMcvaqV6Ct6SgHnC8PfxhHEc85Tn2Rs0Q1gCoKrpe9uegTinEpMUr2Rs05IJNCFq4Qbi7GEpo27r8pVmc2rGQIawUY2q25VRb61LfTbgWk05yAGXz71CmIZlagFBmh/wANNUNXxdEyAMaxholiViaCVqKP5/au+j6+JHHGWWshjG9RK+WYczlSLNNltvUW00xGWvUzl71T9P7Vf24mLvqJIGH5q05cgjZIVCGsAVBVdL3tz0CcU4lJileyNmnJBJoQtXC97c9e9ufBvhk8MnyY/Ej8FPWTJrTGeMX2S2QdoueXyi5BKtaU+mmn4g+JzUF+b2x3j2UYVacg1g2NbW3t6f8A4J4/LxeESR8Ghcj7thkdfbTShGwRQw+b7pIexqVAiuHsVztyyDXKE5nj5SMQeSvNceDfaZyF66lDT7uzrJ2bRchVi2Q6x0o3wyeGT5MfiR+Cnz152hCylSkE1OiD06IIDALKodedpmUvLJvsK3ozKhsoY4cLBmyjZHkVL77633VurqRslr63VRtxdlyT4idCULK7s8a0bqkW4Wn+Vss5HUeCPx9K0/unkyCe9HMRbk1AShkcGxdp27Z3ilFg45ZtYkr+UkTOGeIYYwihQy6SbmDpE8DRnGG5B0JiGKGOIkx4OoDGAhXVK+laVo+pExqT9SDG5RZM45FZKL0QenRBAYBZVDrztMyl5ZN9hXRB66IPgDzheHv4wjiO+arXU4e1Mi5Pe3S0mtiSVqVnLuwNb3bTqpNHKR9Qb6duBARGF4x0t9PS+7hBdAlP7iGkq+iluspzF/g8YWfGiZY4gGeY42PqT7try5FV71WUoXNbLWqZOBD56e6TYN0juCMryZeyiWH8JMmLkLia5ilNmTcuqpCVr61r6cZDC+sQI6mzqQ1e8cHsCunv4wjiOecp+Bvhk8MnyY/GU3u6MY0lzvTHQn35GmpUi76la0/Gbt9TWO5azZ1KrFAJLElV6el9K8GSm/E2XSm92utrbWtK6pXU7tnO3ORLvUQZd3kRISso9o7psTVppTdLiivpSg69ShkCK7g8mWQCGqAgwFl6UW9zV5k41C4+4p62YPNRciPTLfW2tta21ZPkx+JH4KfPWh6IXEvFXss6A7TWOsMciqv1oet1blaNg97tTxelT7jsRWtfWta/j6UrStKw+R1xLlVtd07rkSELFUNZCgbPkiLFsDniPI7xG3euLMiVpWlfSuixBDxVwzHrbDiV3WvVQQ2k4zSv9VIrhLGENLRObJLJWeIsZz89T+auuQ5S4SFyZzgnFtHWC5VTosiqlXbS4XNmboffo0EqhhH0NY6wxyKq/Wh6elEzBbExugO10B3AHnC8PfxhHG7lX7WFmSzWNqfS0Ot/41rS22t1zzOghPqRbTCynBdUona/l0R3Zh4G9LJ1surxlbFLLlNjoKTEM4yfGTpSFZZZ3hpkLem5M3Ftt1/r9OQM/wAAgdqw9k9yXM8sOyNzpdELKA0to2ublHj7rkmV7CfBqrD8Wf526xKpUTMkM9NPfxhHEc85Tn2Rz0O1nDLJLq+9tmjjhnEZQUX2Rz1vDEWRw6xUVx1d/szhb+D1KGxk9U73B7e5MvRDTfEkrPS8+gw1qFR7XdrWZS070sZ5g3BqR5c4RPdSgF/RIJtu3RXbUUYPLMpZPlLf0krj8lkMVNocws26bLIqF1q5W7fJRVPtCON+43KIi15yg16JN4tg8Ck5KH3dR1zXEXVbi3dnQeEaKJpqOTGfS+yPvqL8FVW3Vn+dusV0qtmSGeijmAipcmqccM4jKCi+yOem5BVoWuXM97bNe9tnBvhk8MnyY/G7oChWFz1tY4W/0nRDg5wCbB6kGPU8IKsvQbWmPlOVaLLBhDAJfaGVIRR/zVcVLv0SXstJtutWhcvmuLna91iMS3qR0ylg8tl8la8k50dn4G4uz1utq5xaNO31Vv8AZ5hAnFJ6jsa3UTcL6EF8mZgnmUTwo86McVbY2lW9G4la71rSaCpgzZNVJAhQe71te7BHFpXVrjmy+pbipxW+idLr67eAqumbIWlpyu+pwK0yfJj8SPwU+e4wdXPAhdlwyfbh2kW5ZoVtNX7jB1mMNGXYfnAKGPyftvSiVdZDvVq7CWXR5hGVQSOIIKTH9KXKnLqetLfwIGHKp6LQhG0KYfYpX+9dJUSuvpRVxqdSn0sseq6gTopJ7yYeGtezC2DNTcwLeoiq33r631n9KXSOP0pp4U+2BfTUGB6Rjovdp/I6RjcltbOGSrlltQ6qkfOUUvvqi3LNCtpq/cYOiik3xPpxu3DtduHcAecLw9/GEcMaKRSpQqxzcvBZ6a2EVp6VrTWQQKrN4x1sQM8gK5zs9bE7/wA0jKNL+0uVyttbFb7a6d3RtjgdpbnjfE5ee7n19PR2jY4Uj94ac6x9mDEAqhi4cUzou32GVdinm+WL1kenil5JAgaSA6YiCIyesgGURaUBabKGCgEZk0mV09/GEcRzzlOe2dex9D+613Nr3P3j9jrtnXTUj/oVXeDDqsWTEn9CNuPujIIvU4OxwCJDvb172x0RUUNs+odWn40rbWtaU06IVIBVto0zGOLMrfe43zxU0xFui0JwcMiRR8nSax+3XLQp4uTMev2V2KKqxbeXSxLFDUlqxOiKaSVNxTg0OjwyMSNKf2pSLoe6SqpFeJu4VOfL0U8Ywm6CYvi7Jf3Nr3P3j9jrtnXS9v8A7rXc2u5uDfDJ4ZPkx+JH4KetwUKrkHER1w0BdaDnKAKanLb0bzcva1L9c1DKXenp+leKf3pqNo9Wq7fXWlaVrSujwW8Wy8i7BECGjsbQkResswyk1hhgyOz3IlX6Grxgzdyl1jFAmrUxk4EPZHN9NqQc4lmOrkcv0wiqmoAB0zSsXdp4crGhsJNu23wFTIOVG2pJvhk8MnyY/Ej8FPnuM7Sb0UZfaMp24DpdtQaErjUO4ztDk3vt9Rig2gcNS69PPmNV8VZGKHDZHVN6bUS7Z2FQljqvSIL/AFhEI1Jt+ghW3mmoyl9F7pXV/wDndw6hKmJp1SheZJlCPtAqw/LkJmX20R/60r6VqMdTCO4EZxpndej7lDDzLZl2a2TSTUbAtPF6hBI4SQQdgIg4iZTq1g1rQqZyBF2ISHE26wemMcZhnKpvRRl9oynbgOl21BoSuNQ7jO0OTe+31GK7cB124DwB5wvD38YRxHPOU4zzisbK8KWbUmB0KizyuMc4IWHthaNsPW+k5dLThb6E1rykqkvb9ScerSt7n6X/AOd3Kw6RNv0rFMF/61HjWVsgwv6BkcjZSaMkR4FIsjKkodF0CFB6hBIWIUVcgUra1q2OiYTta4kOEpfXhSiOoFtpylOFUVVZXslOEZriIxttyK7Q+a24+kIqd6Lkgnfp7+MI4jnnKc+yNmiGsAVBVdL3tz0CcU4lJileyNmnJBJoQtXC97c9NBCh16ipW6/Bah9CMhxqFSi0W9JtObLKgyj7GnOn9aVeFl0RrPrVXLsSNvWCa31dqqRWibu5mrfaFb4Bl559Kgi7d8/H+laI7T85EU9Va7QMzaL2oZvGp6pSbEeTYcKuW+jNrgZb9Y5QhAKn2yW3bFlR3io0lB2/YkasuSUwV1VAwjt7ZLXG+I5dl2SLqLxJKi1ErKLbv4pfFcngSVvg7+3zeBssvS97c9AnFOJSYpXsjZpyQSaELVwve3PXvbnwb4ZPDJ8mPxI/BT4jP8vVaUrStK7ktuasTXMmURb1a2uIatXSn6J8U6a/0tJssY/T0rtnZYm7Zfc211DbW5rRogB+OZRKHQCfD6jF9tGRCt0tuRVWEUT24Ovu+EoerWDAJ473cSJjQyDjuPFG3zCwOW7kFVqW3RpylBgt9ZBvQYbXHGze72bOZNVwxxJo+rpk+TH4kfgp89edoQspUpBNTog9OiCAwCyqHXnaZlLyyb7CuiD0+/sun6XrztMdalBLVX3Cxpph2Y5E2s7r+tllfw2+uPtWe4nfX8p0hQlklaFWT9W5PT7b6jI3a2XvNScZOzfdmCxNi3ZY4cLJAtK72CztWgu6dJWlaRVfJF19EJVnywY/GU3HV2NCX1vnxV/RB6dEEBgFlUOvO0zKXlk32FdEHrog+APOF4e/jCOI55ynEm/icRzwVNbvUqJZmPrRxu9UR/wirpRhyJCHav5SFH7/ALshpgr6gaeqeoPrrZY7loLzltQ3LSVrGyzjxyoXuKwmkpfW27dBhuy+llsTnzFNEb1mXdNkINih98QQ2sxNWIYlANK09/GEcRzzlPwN8Mnhk+TH4kfgp8Rn+XxJPNs1vIiLsjLWmXJDvJqNLLbxXAUv0pZw+0uoGmpbGHdOQRlkerPxPst93us0nRBlMdAF3FyDXFURTw/Bn3I8v7baWLZljBAay87LOz4BJhRLxuwHbi8cCJBNps73gSX/AEB8e7UJu/yKx7yWujYg2rJJ6ZPkx+JH4KfPWh6IXEvFXss6A7TWOsMciqv1oenpRMwWxMboDtMf7HqOq60PTyneWTZeKj7haNeGRN9sOJ5mjeQBkfbxknG/3SiRnYtClKaSfBbv/Y4GBEgrWWbZH+j3hSM1u/F2/odfq1GMKj5PyfkwcrO2MW3FcnAbWrHsBi0AjgyUWa10BQUUV+tD0vV1oQtcPVR+rrrQ9ELiXir2WdAdprHWGORVX60PT0omYLYmN0B2ugO4A84Xh7+MI4jnnKcSb+JxHPBU4eqUo5r00I5FhV/05nt5xRkFGhxr5sfOtVvqwTbavOoPFHaSFbIJFRVllscv/F9spYYnWmG6UQzNnEfW8RkouwRR8twg/wBsmxLDXKj38mRwF4Y3IHnC8PfxhHEc85Tn2Rz0O1nDLJLq+9tmjjhnEZQUX2Rz03IKtC1y5nvbZpz/AN4+10PsjnptXSaELkDfe2zRwJTiUoUL7I56HdABUEkFfe2zRMYUcwHJqcNsDoVBs60YT/xkNn9Y9+sa31H3JZfF1ubEtJwy8q12cv8A64qPEKOBKcSlChfZHPQ7oAKgkgr722a9kc9DtZwyyS6vvbZo44ZxGUFF9kc9NyCrQtcuZ722a97bODfDJ4ZPkx+JH4KfEZ/l8SPzk+GT4wfg/wA4rnca2FY1z7bIwG1zDdmwJyE/B/T+oWy/WXJnKsX57l7rHlf+4DNV6Q1+JMZLYlx6ixnsnxg/B/nFcm+GTwyfJj8SPwU+e4wdXPAhdlwyfbh2kW5ZoVtNX7jB0UUm+J9ON24doX/j/wBfVdxg6JGvfb6EjduHaQckGhK0JfuMHSjKUZfcSn24druMHW8KOoSaBt8pDwjupiEWhTLFpYx50xBILbKgDu7a4J0vA0Y9Ch21rdI8qwhspdR33EzGJTmdIu8YGXcHYMYgK+POCl1br0HJBoStCX7jB0oylGX3Ep9uHa7jB1c8CF2XDJ9uHaRblmhW01fuMHRRSb4n043bh2u3DuAPOF4e/jCOI55ynEm/icRzwVOHv5MjgLwxuSmhtkba4x90kmyA2yt6sZcdo+aQ61ogrttzeNd63WYHzx/hantnzsddT1A2g5mMrT7uPNobLFzxnedtJXUokr109/JkcBeGNyB5wvD38YRxHPOU/ADzheHv4wjiOecpxJv4nEc8FTh7+TI4C8MbkDzheHSt47avenR1caaYzSiir01tSRRROgtLK/rX1rHPBU4e/kyOAvDG5A84Xh7+MI4jnnKc/wD/xABMEAACAQMABAgLBgQDBgYDAAABAgMABBEFEBIhEyIxQVFTstEGMkJhYnGCkZKisRQgI1Jzo3KBweEVVKEHJDA0Q8IWRGNkg7N0k9L/2gAIAQEACT8Arqn+mr0+ydXXDsnV6H9dXUjtHV6faOrrn7WsZZo2AHnIrwh0ZouM/wCZuEjJ9W2RmvCqW9nTPEtrWaQdgLVnp+XzpaRjtSirXT0IznL2qf8AZIa8LzaSHybuCWED2nQLWmrHSds+ziW0mSZRjPKUJGrqR2jq9PtHV1z9rX1T/TV6fZOrrh2TruYvjFTxPI0TKqqwJJIwABVrN8BqJ4412su6lVGQQMk1cxfGKYTOJQSsZ2yBg78CrWb4DX4O3sbPCcTOM5xmrmL4xSNMgiCloxtgEE7sirWb4DUqRyLtZRyFYZYkZBq5i+MVBKyNKzKyqSCCcgg1C0Y52kBUD31I+ntKpkGGycCCNuiSetIx6Dsm/wCjo4FJfanOXp57u8uHAyxaaWV29eSxNR22grV/88Sbgj9FMke1XhvcO/8A6NgqdqQ14cTo3RNYB+zLV/onSqcyLK1tMfZmAWtG6W0HdIcRXabcI9iaI4NINP6N53bEV6g/UG5/brSC3UaKI7i2I2J4H5dmROY1azfA1SpHIu1lHIVhliRkGrmL4xUErI0rMrKpIIJyCDVrN8Bq5i+MVPE8jRMqqrAkkjAAFWs3wGonjjXay7qVUZBAyTVzF8YphM4lBKxnbIGDvwKtZvgNWs3wHV1ydrV6HaGrqT2hq9P+mrrj2Rq9DsikLOeQCrv7TpcQJwWjLUh5z535o085q1Oi/BskpKsTmC0A6Li4O+Y9KCvCF9J3K8llCTBG7/kSNOO9eB2i/A7wUsBJAL5IuPOC378gqw4XSJXEuk7nEl0/8J5Ix5lpt9KaArFRRywSKVeKRQ6ODzMpyDUf/h/SZyQbcbVnIfTh8j2KL6P0lGMo6kyWl9B9JIzWLbS1sAL/AEezZeIny06YzzGvQ7I1dUn019cna1eh2hq6k9oa7f5176h2Y43V3O0DhVOScA1cfI3dUm3M+NlcFc7Jyd5wKt/nXvpeDjZCgOQ3GJBxxc9FXHyN3V+LwW1t+TjaxjxsdFW/zr303BSM5cDBbikAZ4ueirj5G7qj24XxstkLnAwdxwalR/CWWMG+vcBxYI4yAOmU1NOYp/8AelsbiQiacHfw1453gGkTRmhbCA8eJBEeDTyYUG5AaWQaGdi+jNGEkG5TmZ+iHt1FHDBCgSKKNQiIijAVVG4AVuH34uKcvbXKj8W1m5pIz2hz1N9m0to2TKSDJgu7d+3FIKwlwcQ6Qsi427a4Ub17jzirf5176m2ZI0CONljhlGCMgVcfI3dVv8699Q7Mcbq7naBwqnJOAauPkbuqTbmfGyuCudk5O84FW/zr30vBxshQHIbjEg44ueirj5G7quPkbu1dU/01en2Tq64dk6vQ/rq6kdo6kB/w+ylljRuR5WYrEh8zOQK0/AXtbkzwWkoM897fSnbMpiQElErRekDotDktK6RSTv8AmK8arU2/g1opBf6QhdwZLwoQscRx5BalVERQqqowFA3AADkA1Cr+0tNvxPtEyQ7Xq2yM0QysMqykMrDpBG4j7t/FZWERAMkmSWY8ioq5LseYCoNLwaZsMvo7SD2iCJ+mB8SF9h6mKaG0o6Wek0J4oVzhJvXEdXXP2tfVP9NXp9k6uuHZOuOb3DvpJQ8ymNSwAAL7hnBqSH3nupkaOPOQhJY7XF3ZA6ajm9w76BV0PCEybhgbubPTUkPvPdXH4bGzwe/Gxy5zjpqOb3DvohUVeDIk3HI382emriOPR2j7d7icjJOIxnGDjJPMOc1LNFowTY0fomIng4x5GQPHlNaRbRFkQHFhEQlwf1nbIj/hALV4D2d3JHyXFzCJifbudtqtUs7XS4vgbePxEWaD7WFHtLXIK56dH09sj7XeEB1sdvkRBzzVAYnuuP8AadMXJSaX2DtvV7ay6IlSJ7OKC4M6pPnjlAQCn3dLXNtorRguHktrbAknmmK4O22QoUCtI6W0ddAcSR5EuovbQhKhVoJ8m0vYctBcKPynmYc6mi8l0kH2G6YYLcNa5jJbzuAGp4gkzGRQxOQH3jOBUkPvPdUc3uHfSSh5lMalgAAX3DODUkPvPdTI0cechCSx2uLuyB01HN7h30CroeEJk3DA3c2empIfee6pIfee7V1ydrV6HaGrqT2hq9P+mrrj2RUmDpm/LzenBZAOV+NlqESCynNropGGcSqAXlX0+MFSpDgE8FCDxIh0AdPSdXJo20upT7NuLbtPqj2zYaPuroJ+YwRFwP8ASk+13d1dSvo1ZxnMu1mW7b2tyUck/wDAiD3Bgeexbnju4QWjI7Jo/wDJXttfxg/+5Qo//wBVdUn019cna1eh2hq6k9oa7v8Ab/vVxt8D+Js7GM7HGxnNWn7n9qi4LhfL2trGzxuTA6Ku/wBv+9Pw23+Hs42MZ35zv6KtP3P7V+BwHt7W37uirv8Ab/vURuHk/EBB2OXdjn6KuopZdHaOlNzFG4cwS3DjivRws0F3fzedpLl1XV0ihnhrtLSFv1HaZ9QBUgggjIIO4gg1bxW9rAgjhhiQRxxoORVVdwGrk6aCrpHQOn7q0dQMFrR3L2smPOm7VymrwXVk8skQkCshDwnZZSrgEanMd2bO4Fu4GSs3BnYI9RpgbmSNYb5R5N1BxZfiPGFHYgNrpCIeu1uwgq32+B/D29vG1sbs4xVp+5/arv8Ab/vVxt8D+Js7GM7HGxnNWn7n9qi4LhfL2trGzxuTA6Ku/wBv+9Pw23+Hs42MZ35zv6KtP3P7Vafuf21dU/01en2Tq64dk6vQ/rqlR/CSSLYu7wccWCH6zUZpDcyyE3EhLGWTOXJY72OTvNTxQQDQ88QklcRrmK8mB3tWl7GeTmSOdGY+oA0OMFb34rx59OXTP7EUS/dIG6oHm0FpyBdGafii3kSxD8OX+LAq7jurG7jEkE8Z4rqfoRyEHeDXMwNERrLpWe70UTzty7H/AMkWGGqRI9nB47BO0RWkrWXQGnrwXOj3imSSK3u5eOsRK/BVkLqAaYv4bqDkdoLiTLFPTq8F3ou+BkWQcsbk8ZHHMQdxGvqn+mr0+ydXXDsnXHD7j30kQSZhGxUHID7jjJqSb3jupnaSPGA5BXjcXfgDpqOH3HvoKiIvCAx7jkbufPTUk3vHdQ2zOSCJN/icmMY6aljPhXpOEmEJvFlCdxncdipZWtxKXuZ3YtJNIx2iNo8rNzmolRLBTtbIwqlwMIKUQaGttuKC8v5XS3XLZdYFwSfZFaW0ZpSeJCxtEDwSv+mXGCaeV0aUwwmfIlt5lOOCfa34J3YPIaPG0dpZbyEdMVyNj/sH3OTO+jEujjfTGwjubFHt3ti34fByqASMVY6LEF68YeKytHeaZkYMoG20lKYrye7mu/sxOTbJMFAjPQd2SNReO+0WYo754vHVI2zBcj9M7jRjTTFlsJpS1HNJzSoOrkq+sLywurl5YZLm5Mc0ayHOzKGBq/h0lf2ziW3s7cEWsUq8juz4MhFECU300ig+UQgbFCWXwcv5NjSdpymJuTh4x+dKu2ntLmJZoJY3VkeOQbSspxvBFRw+499JEEmYRsVByA+44yakm947qZ2kjxgOQV43F34A6ajh9x76CoiLwgMe45G7nz01JN7x3VJN7x3auuTtavQ7Q1dSe0NXGjsI2EEAODPPLuSNfOTU5kvr+Uy3EnkQxDcAo5kQcVRSBIIgAB09JPSTTMLe+v5Zrthyi2hzLIB0EqMCreDRNjonRBvb/STBYorW2iyI7W2yCOEISpbzTXg7POIpXuYuMOkwT4HHH5aMbWPhDZQaSikXckk8RGX9sYarJxaXei5o7uSJCLeEgoYlz7H3QHjPKjAMp/katbeBjymKJIz71A1xJLBMjRyxONpJEcYZWB5QRReTQV27C3D5KMjb5LKc9k1LmCXizQsfxbaYeNFIOkauRL68X4GEdJ+Kg/3lR5Sjy/WOernME5d9CyufEfle29rlShh0ODXXJ2tXodoaupPaGu3+du+odmSNC6HaY4ZRkHBNXHyL3VJtwvnaXAXOyMjeMGrf5276XgpGcITktxSCccbPRVx4x3nZXcBynkqbOh/B93iOOSa95JX9jxBS4vLkB5ulR5KfyrxQwrcZxpC0X+MxsRWSwsY/gE6F6RUtLjwftURuquGiEgn9YkOa0TbS6R0alzCUuYo7jggJ3CFCwO4oBSJHEvixooRB6guB/wAD3arUXFhdpsyJyMpHI6HmdTvBq+M4fTNvYXMXLHeW07DYLpzOEejxdvl8wNbxdXk8oP8A+RO0lAEc4PIRUjw4kW5spkOGidG2hg9KGok/xBV+y6RjUkcHdQjj7hzNkMtQ7MkaF0O0xwyjIOCauPkXuqTbhfO0uAudkZG8YNW/zt30vBSM4QnJbikE442eirj5F7quPkXu1dU/01en2Tq64dk0wF/KgtNGjpuJtyH2d71mSK2/HmLb9uQnig+s76O9uXUdieO4hvrdubhYWBI94ocLorTlhJFPFnjR8KpSWE9DoakaRLO1ht1d/GZYUCAnHOcf8FQbix0bPNAGGV4UDCEjnAJplP27R0EspTkE2ziVfZcEVcw2lrGMvPcSLDGo87OQKtX0/pAtsLIMxWgfty1FHZzyyz3MNlICJ2lnQorFP+kkYPFDU2y1nou4eL9VkKR/MRQwZrjH8o17zqXM8OZYenK8q+0Kmxo7whQQjoS8iyYj7e9K6p/pq9PsnV1w7J13U3xmp5WRpUVlZyQQTggiraL4BUSRSLs4dFCsMsAcEVdTfGadpkERYLIdsAgjfg02LbRVt9ruUH+YufEHsJQxLdfjv/CfEHurn1EC4jO3Ax/NzqfM1W/2rRs0mb3RkxKcceXGfIkrRumzd43WhhiGW/V26kNp4JWCTi4tIlAtg0iERQhuWSXJDE/eBFadttH6Vs5jFLaX5+yPnmKGTCurDepBrE9hpC0ltpTCwfMcylSVK53jORXh9BZWBkJCR3V3B7ZjWMgNX+0G8vyPIjWW4f2ZLk1Jo7R90F/57SE6zXr/AKfdGtaJe70hezCCHSF4nO3PFCe09aVm0hpPStyHvbqY5edbX8WV/MpkICChhhCHcelJxz9dbmGSKeO8tHXlRg22pH8LCnIttLWsDywqxKK7ePGR5jlTVtF8AqJIpF2cOihWGWAOCKupvjNO0yCIsFkO2AQRvwatovgFW0XwDV1ydrV6HaGrcBCcno3inLppTS7iFui3DbEfuQUAFwFUdCr9yIiUDCzIdmQd4q5M0c+3jKbJXYxuPvqNIzGbuOcLzzLO2WaunVKkiB3QshyA8bFGX1qRgjXoD/GBbTD7XFwpjMFvjjTYUEsBUximntQ1jpWAAyKnVTJ5YQ7itImlIOabR1xwUvtROUaovDC02en7Wgq403OJvBG/FuLpp3H2jihNjb8uvBi7tEY8e50iDaRr5zwuGNSjSGn7lNia+K4SJDyxQA8i9LVJwmi7FxYWpHIYbckyye22aGsb4pDE/wDC+8f6inzLoPS6vEOiC6/FHzB9XodoaupPaH3Oqf6avT7J1HYlt9EXRhboldCkfzGhutoJJP5kbA7Vc277oy9o4l9g7mqTjxSppO1HSj4hmrnGpyngn4Yyi8tbg+JZaROEm9lzvehvGrBzyg7wQeY0Fm8C9Kz7b6PmUyW1rO3LF0x+g4rwc0nZzc5tXju4/nMRq/0tF5jZt/Rqv9LSnmAsm/q1RSxcLEknBzLsSJtjOy678MOcVNjTmmUeC1weNBBySz/0Slw842IR0Rg729o/c5Vi4QeuI7VNiHSehnPrltnBHysa5QSPdXp9k6uuHZOu5i+MVPE8jRMqqrAkkjAAFWs3wGonjjXay7qVUZBAyTVzF8YqQYvbmytlI/XEh7FDxUiQe0Sx+lc/3QCCMEHkINFjYwzAXCDeWs7kbMi+yDkVIskToskUinKujDIYHoI1cTb/ABLW5Ay1tcKOLIPow5xTfZ9M2REWi76Q8S8h8iMuf2moYI1W0VzazoUmgmQSRyKeZlbIIq00howuckWV1xPhmElaU8IJR0GeBfpFWgEe+iIaO6u5HupEYcjKH4oNXIhsbVCzt5Tt5MaDndzuArivOdmGEHK28CbkiX1CiBEqKmxzxlRjZP3OSSN0PtDFHAlmuLdx+tA6VbylDIxUhCQQTUTxxrtZd1KqMggZJq5i+MUwmcSglYztkDB34FWs3wGrWb4Dq65O1q9DtDV/1fCG3H7U5rnuEX3L90gKBkknAApRczdYd0S//wBVI0sjkbbn3AeYVdBNKWIK6LeQ/wDNW3U/qRUN2oi10ragnR9+BviPVv0xNVlc/wC7YSDSqgyycFzM/XxdDir+3v7KTxZ7dxInqOOQ9IOsE1djTGllyBZWThlRuiabeqVMogjcm0sIeJbW/e3S5qb/AHwcba8g+j6vPWUkU7MsL+K4HMw+ho7LrjhYT4yH+o6Dr6RXN4SWifFME1eh2hq6k9oa7f5176h2Y43V3O0DhVOScA1cfI3dUm3M+NlcFc7Jyd5wKt/nXvoYeLwit/8AWGev82nY+43DXPNAh3j+M+TW0UJytvFuQedu80+23VIcKPWeeoIxAwwYwuFIp3EZYPBKDhkZd+MjkYVoM+F+h7GcW0xeMy3kZ2dvGYTwp/jINf7PdN6PccoR9v8A0lSOtFzwXjseHuNJRI3AjmESI7AmpVvbPJaIXWjYE4InnikWNWStLXej7jne3lKbQHM4G5h5jVvovSohTalmms2DheljblBWjdBW7NyFLeWV/nkNJpuTRgQvJwgGi7ARgZJctwUZAopK6yFAYTwiuQccQjxhVoseRkRySBXb+XfQfCk7Ibxo2Xcy0yrOo4knMw/K1FoLmP3Ef1U0oSeMhZo+gnkI8x1dIrn8KLJvdcA1Lssp3rssfoKk25nxsrgrnZOTvOBVv8699LwcbIUByG4xIOOLnoq4+Ru6rj5G7tXVP9NXp9k6v/I6Rspz7T8F/wB9fmhk7Q1TLFHnAzvLHoUc5pGt4juMzH8UjzflotFbk52z47/wg/Wogi8/S3nJ56cZ6BvNLsjpO80NsNy5rSJThABcWsg24Z1XkEic9aDudG3PlzWw+0wf0daxLo0yA2vEKB47WERo2GAO8jNFmHPzg1a/Z5T/ANWAbB/mBuNaQuA8XiXVoSsijnWROdTzjeK8FtDaQuutgga1nf1iGoxoPR7yRhrFeEAkduR5i+96jMlzs8e4ccb1L+UUQKGyl3Fb3AHnlTZf5gaORzqeQ0AJYELofKUjm9RrxBCin1s2Rq5FUsf5DNDOL57g/wDwRPNXWEe7dXp9k6uuHZOuOb3DvpJQ8ymNSwAAL7hnBqSH3nupkaOPOQhJY7XF3ZA6ajm9w76jcumipZwDztbfjqB8FHdPbMB61IfUTwYtQUHNksc0Vl2t6R+SuDjjdJrJYjcBR2F6By/djDdB5CPUaJKm2l2SfOAdTlF5yF2jV3bRjHLcxuWz6wcVPCt3d2LFZS6qj7gyYO4DIWrlJr22ExmeJxJwaOwKJtDnGCatGRxjjyO77fnO0cGlRSeZBsivGGjoi3qEjkajvdlT+poYe6kMnsrxV1HBFu6j1vxR9aXiaL0RcTe3KVhHaNSQ8ZieU859VMjRx5yEJLHa4u7IHTUc3uHfQKuh4QmTcMDdzZ6akh957qkh957tXXJ2tXodoakDwzW7LIh5GU8Ug+sGs7eidKzWshPOkbmMt6iNQ328mw/8EncaP/qx/RhXMSPf9/dGsnByn0G3H/Q1zNqJLyDNvaKcSz+c/lTpavCK10YLKWC2S2hgE8gXGRlCyYj6Go6Xe+5tKCUZD/oDiFK0qbjQaTrBFeRXCyRlnyUBgl4ykgVovRU23GJEim+zCZlYZG4EVbNaaQRBDwDRmIRbI2VAU82re7tuHpOdkV4kMaxr6lGNR41xNkj0It/1IpMG/wBIwWMP8Ft3mXV6HaGrqT2hru/2/wC9XG3wP4mzsYzscbGc1afuf2qLguF8va2sbPG5MDoq7/b/AL0/DB/wyuNjGd+efopMWfhBZpMG/wDcWwEUg7Jo5kVeCl/jj3f6jfXizRsnqJ5D/I0NkxS7Eg83isK5t/u+6QSOUA8moZZeOPZrSRgu4bdYZohC8juYtyuMDG8VoaW4vp3EcElwBJIWP5IV3e8mpRpbSsvGNozF4Iv1D5bfKK4WTQF7yp11jIcSRfqQ14XvomC0m+0GSEuEnjlClJVMZGXXlWt80vhBaoX53xBNQwI40T4VAqBH0naoZru6HjwwSDiQHtahmK2Bk+Hir/rrO0lqohUDfl+Vv9TiuJPYWq3N2mN7XMmZpV+NiKtP3P7VFwXC+XtbWNnjcmB0Vd/t/wB6fhtv8PZxsYzvznf0Vafuf2q0/c/tq6p/pq9PsnV1w7JqLb0roBvt1t0ukQxIntJTfh3QzH5pV7xqGIrteEH8Y3PRyWi2G9a8U/d5TIuD0HLVzHUGBJ4sYbALVCDpXSsW3G5G+C1bxFX9TlOqPa0hZZu7HpLoOPH7a1Nm70K4SLpNpNkx/AcrXjXnhTB2Cn/fWDFbA8HH10rHEcY9ZqQyX9/M087npY5wOgCvGxsr62oca5lwP4I9311eMi4jHTI25RSGSw0U3+J3xPI3BNmNPbeuqf6avT7J1dcOydccPuPfSRBJmEbFQcgPuOMmpJveO6mdpI8YDkFeNxd+AOmo4fce+gqIi8IDHuORu589NPIdpdllYggj3Uhj0Xeub7RTjkRGbJiH6TVgOeLKo8mQcooce1lV/ZfitR3xTbQ9TjvFfmP3P80BX5jqwWjJ4p8oGm/xDRseALK7JzGo5oZOVKvfsN+3/krwiNyeiN/FegVYHNEw6C0ucy8ypbXrYf8A/TIM0MmGa90jMP0QpQ++M1Lt6G0NIwDDxbm75GfzheRdW9iRu6XfcBW9YY1QefZG81fQRN+VnG17hvqTbtIBtbQyA8h5Tv6KSNtM+EGxe3HOEhx+DH7KmkiCTMI2Kg5AfccZNSTe8d1M7SR4wHIK8bi78AdNRw+499BURF4QGPccjdz56akm947qkm947tXXJ2tXodoaupPaGoIumrTautFSk4xMnLGfQkqKSJRK0F5A4IeJ4zsnI5mQ0Qyz2zhCN4OVypFckkGf5oa51B1uGAODjmNf5sdmvzHXEHHnG8eo020PyPuP8jV+89qnJZ3o4eL2SeMvsmtDSWWmbGctFLE4lgeKUYkQ5wy02dJw+DsWgLW5BO0luCduT9Qrxc1PENkb+MN55zU6sR5KnJNQGZkLOkYOBt8i5PQKmaNXICwW4I2ieQbt7VoptC6Ofe15pEGE+xCeO9eExvtIxJk2l3CIEn8yODxKeWLRekLp7QW8/LYaRzgbPRttxGWhhkuEU/ybV6HaGrqT2hrt/nbvqHZkjQuh2mOGUZBwTVx8i91SbcL52lwFzsjI3jBq3+du+l4KRnCE5LcUgnHGz0VcfIvdTbbw44M+LjbznxcdFWuZ4kzpm1jG+REH/NIO3Un4DNiCU+QT5J9E1u2biaH6iudSPcdUgRc4BNOUU+4nn3HmqNJeGYMdo4ww56gDyMdyRxtI3uFeCOnXQ8jiwkRPiZQK8GLpF6Zry2g7UgqwtIv1NIIexmotF+r7bWgrW5/SvoB2yteCl/a2sABmuAgmhjBOMs8RYCrWWRN42gN3vNQmN9na2TjkqDR01pc6PS+giS6zPJE6cIAFx49aUktLGwiimlhhH49wJWKYQnIUDnNWWj9DpgpHMUM17csPJRjtSPXgNLbaCJ4umNNXH2VZP0YIlkaSijSYG0VBVSfMCTQMA0xbLOHTdi8siEYj5DUYE95o5J3IJwlwg2ZF9lwRVx8i91SbcL52lwFzsjI3jBq3+du+l4KRnCE5LcUgnHGz0VcfIvdVx8i92rqn+mr0+ydXXDsnV6H9aGQatC+gpGMl/YxDJsDzyIOo7FMSRcRkk+uuZmGq2jmQHIDDePVVhCvriU1oWwv7R9CSTW0V1AkyRzI8RyqyVZ29rEBujgiWJB/JQPvDOdCXbAeeGPhB2aYDjycp9KjniOjH1HIp8vFbS2reb7LM8QobFrpFLtoFG5Qk8Yv0ArwGbwv8IUEcVpZ3N6I4I0XoW5fgUX2Sa/2YaEtrXkCPpdMgeuParQtno2cY2Utr03qn1sY4sUBwuitKRk/o3IMTfMVp8vom7MsXow3qFu2javT7J1dcOydd1N8ZqeVkaVFZWckEE4IIq2i+AVEkUi7OHRQrDLAHBFXU3xmnaZBEWCyHbAII34NW0XwCvwdvb2uD4mcYxnFXU3xmiZcyFTt8bK4G7fzVZpaWCvaTwwR7kQzQpI4X2q/OfuHCXcdzbP7cD4+/ySaJv099u1czNXNL9RRy9jpuXA6I54ketwvbazjc9LSSy21DRJ0mQmP8TaUQKOckQAsxq5/2dSJ0Ml+laJ0FGuN9zo2+nlBP6U8CdqgDFFoaVx+pERIvzCh+CV0bF6z+NVtF8AqJIpF2cOihWGWAOCKupvjNO0yCIsFkO2AQRvwatovgFW0XwDV1ydrV6HaGrqT2hq9P+mrrj2RXl6Nsm+WucZ/0H3G2UttNWjSH0BKu398Z4W2nTH8cRFc0jfQVzSKa5ZIbC5X2C6GtJQTyaKEMt5wUomaDgbvbw4SvCwOCxwEsronsVpbSb/p2D/1IqfSJRFDE3FncWowehpFCt7Jq4B0vpoxm5QHjQWaMHJf9UikKXen78XuDyiF8JF8i7er0O0NXUntD7nVP9NXp9k6uuHZOr0P66upH1NWkj6IvNFw20lyoykVxEzcV+jINSGaJRgK5yQPMabZf8jbjrJDRyggjmo5W/wBH210o/XjV/vcjMg94AqRUa3vZYsH/ANNiv9KZmYkYOzgbj5600+ihPaSy3dyC5AgixkMqFdqtMaZ0hJzuksdvEfZCE1HcyaShk/Gsrm5BFxE35HkwA6V/sn0eDEgQ3EGhRPK/neW2bjGvBvSejyeeHRP2f9y5qcQWpmE9zbNci6vL1uiR0JCqajWOOO3ZERAFVVVcAADkA1en2Tq64dk67mL4xU8TyNEyqqsCSSMAAVazfAaieONdrLupVRkEDJNXMXximEziUErGdsgYO/Aq1m+A1+Dt7GzwnEzjOcZq5i+MUjTIIgpaMbYBBO7IrR5ubSRSrwyxFlKnlGCOSoP/AAxpV+e1wIvbtjhfhxWj/wDEtEpvGkbAGVFXplTxo6cSp0P30jxn4hU6ltxC7wTg02Z7JZrGTzfZpCE+T73oGtNSaOg0RpyfIigEzyie4lGASwC42KuLyeyu9FpcrLdFC5l23jccQCvB9Ybi9sLc3d+A0ss5dAxy7ZNSpFIu1lHIVhlid4NXMXxijc8E0jFCoYqQTuIr7V8J7quYvjFTxPI0TKqqwJJIwABVrN8BqJ4412su6lVGQQMk1cxfGKYTOJQSsZ2yBg78CrWb4DVrN8B1dcna1eh2hq6k9oavT/pq649kavR7Ip8p+Rt4rQg0ffzoHN3o4/ZpMvzkAFH9oV4ZQunNFe2pQj24ia0voe7g0dGsskFq8zSlC4QkBkFP/wAteQ30Q6Rcpwb9j73PGP8AQ1z6TST9+WuW2vLixf1XCCVOwabaY6LhglPTLaDgH+ZK9DsjV1SfTX1ydrV6HaGrqT2hrt/nXvqHZjjdXc7QOFU5JwDVx8jd1Sbcz42VwVzsnJ3nAq3+de+l4ONkKA5DcYkHHFz0VcfI3dX4vBbW35ONrGPGx0Vb/OvfTcFIzlwMFuKQBni56KuPkbuqPbhfGy2QudkYO44NW/zr31NsyRoEcbLHDKMEZAq4+Ru6rfFlpGxns7jBU8SdCpriPdreaHuRzLNCdsfPF97nDLX/AFoOH/eib/vpf+VvrCdT0Ey8F9HqXCWOnZ4ovMk0aS1HtwvjZbIXOyMHccGrf5176m2ZI0CONljhlGCMgVcfI3dVv8699Q7Mcbq7naBwqnJOAauPkbuqTbmfGyuCudk5O84FW/zr30vBxshQHIbjEg44ueirj5G7quPkbu1dU/01en2Tq64dk6vQ/rq6kdo6vT7R1dc/a1pgXM1npu2/VjfEnvdKk27W8t47iFvzRyqHU+4/d8mT61cx21zfWdqheSFJwYpoInOBJ50qLT2l7dyMJwZtrAdiEVcRz6Wvb1r+9MRykbsgQRr0hQK9PtHV1z9rX1T/AE1en2Tq64dk645vcO+klDzKY1LAAAvuGcGpIfee6mRo485CEljtcXdkDpqOb3DvoFXQ8ITJuGBu5s9NSQ+891cfhsbPB78bHLnOOmo5vcO+iFRV4MiTccjfzZ6akh957qV2kjzkoAV43G3ZI6ajm9w76eIJMxkUMTkB94zgVJD7z3VHN7h31E/DaBvRHcZ/y17hO2FqDSMc+jozAt9FEJ4TCGJjyAdsFVrw00SC3IlxN9kf4Z9g1e29yh8uGVZB8pOrG7nZhGo/m1eF+hrYDfwK3aSv8ERZqvXurcaMggnlaFoQZoWbeofBI2alSKN4ImIcEMDIgfduPM1TRMx5SWYn6UrtJHnJQArxuNuyR01HN7h308QSZjIoYnID7xnAqSH3nuqOb3DvpJQ8ymNSwAAL7hnBqSH3nupkaOPOQhJY7XF3ZA6ajm9w76BV0PCEybhgbubPTUkPvPdUkPvPdq65O1q9DtDV1J7Q1en/AE1dceyNXodkauqT6a0L2GlbV7ScKcMBKMBlO/DDmNeF8Tp5EGkYCnvlhrRujr/z297GB+/sV4F3WR1dxbv2JK8FNLAfroB268EZ/XNe2y9qWrPRdl+veA//AEh60xBpOSBhJHo62Ui2Lr1jPxpRQ2Q05wPMFA1eh2Rq6pPpr65O1q9DtDV1J7Q+51ydrV6HaGrqT2hq9P8Apq649kavQ7I1dUn019cna1OVcbPGH8Qq6epS6CInBAxnI1Oyg7ecEjorea649kavQ7I1dUn019cna1eh2hq6k9oa/wD/xAA6EQABAgMDCAgGAQQDAAAAAAABAgMABBEFEiEQEyAxQVFxkSIwMjNSYYHBFCNicqGxQCQ0QoJgc5L/2gAIAQIBAT8A/l6ocnUpNEivnCJ1JNFJpAUlYqk1H8Caf1tpPGCoCLxhmYWyquzaISoLSFJ1Hrn3M02TtOAhR0JB3tNHiOunV9MJ2ARrMFBSAdhyyjThUHE6gYPVjJP4ODzSIlWs64AdQ1xMzDCm1NpxI1bsrc4tpKUhIoNfnCFpcQladR62fNXgNyRDS83LukayQnRkFVbWnca8+tnDWYX6RUwBWHE3FlMBJIJ2CEiqhEkLjryN3V1Chga4kcskz37nHIiHhVDbg1EXTxEMi+28nbQK5Qk0hhJz5VSl5sHqpuYErLOO7QMOJiROYkGlOGpIKuN41hp5LwNNYibFJheSUbadWpK92ETSG2GA2kmpVXGJVYS+muo4H1hlxMo84lYNIbmrzjrhFEJRq8h1VuPlS2mBs6R4nAQ5dCmW1dlKRAQlqYSU9lYI4ERO0z5puGUknJMjOttvjaKKhvBmZ/64s53OyqQdaOj1Ah5z4mbed2XjThqEPmrzB2G7CnTcWK45yo0SKRKEKQ60rslNYGErMnySOZiynLr6kbFp/I6icdzMo8vaEGnE4CGRRHGHCVSks6NgAPEQTUk6CBeUkbyIWDnCkDbSAj4VlRWemsUAheEk79S0jljDDmafbXuUK8IOnba7solHjWOQgCgAizyl+Xcl1HEGo4GBKZpDinaHCidAoW2UkjcQYM4yCVIa6e8whtyZUXXT0BiTE0QJRsAUvuFVOGGRhecYaXtKBXTtpVXpZG4E5GnVsuBaDQiHHjMSbbtKVOI4ZWwFlKSaAqpWJeZDYzTuw0Bh3MFpRTc4ikTc0kozbZrXWRFodH4drwt1Prks5V6UR9JI07UN6fp4WgMsqb8gsbULhWsw8MELGpSfyMDkMuJptLqCAoiiuIj4F/cIYbvvIT5xPOZ2acOwG6PTJZJqw4Ny/wBjTnzW0H/K6PxlsxRK3Wti0fkQsUMN/NYWjanpJ98jL7jJNw4HYYXOPLSRgOEWe3ipw8BDiVIcWlXaBIOSyDg8Pt05zGdmD9Q/Qy2fJlhJcWPmKGrcIm27jiuYhpwtOJWNkTLIQQ4jFCsRkZaW8u6n1MSUkFNKAwAFB90WrLEfOAxGCxksjtPcE6c5/eP/AH+wyWZIlRS8tNVHsJ94l5ZDKcQCojE+0Tkqi+ptWw4GE2eb4qsFO3YYaQwWyGyFIO43hBkGL1aq4VhospBS3Sg1xZtosPTJDSibuCvMGLRl0mq6VQsUVDzRZdW2f8TFkdt7gnTnxSce4j9CJCSL6g4vuwf/AEYkpe4nOKHSOryEOOXcBrh9nOC8O0PzE4otyr6hgQ2qJZczKrC2lU3p2HjCHJefZzt64pPb+mm+LTfzDDUuyeg4KlYPaEWKA1OgDan9EQSFsuIV4TSLSP8AVr4D9RZA78/b76dpik0TvSDFjModaZB1BN4jfjDjlOiMtstj4F9YGNw1jZEshlTMym4vPqbOOsEA1oKRMZ5uSlWq3QsLKgRiRXARZI/rmhDpo2vgYm1X5l4/WRywiyR8p0/VTkNO1k0daVvSRyiwHeg0NylJ54w6Omcs+3nZN5G9BHOE4pHCLKlzjMHaLqPcw6yy+m66gKHnEvZbUi+h4JUK4YqqBEyoJZUYJKiSdZxizE3ZQHxKJ9tO1UVZbXuVTnFiO3VLHhUlUPdocMrgvIUPIw3ZTzj6gvotBRpQ4qGykOSqWJdF0AFNAcj4Bau7yAItVebk3OBySqLks0n6QeenOozko6Nwryxiy13Zm74kke8KN5tpW9NclLzzI33v1kbaQJjD/EVh1N9tSd4gYkQ5i6keEV5xbzlJcJ3kD39obQXHEI8SgOcasNOgOBhgFieQnwuXeeENmsq0fTIgfPa9f1kdK2Xs4NRhtxLqbyYKKTN364QbxUvecOAwi3nKuIT5k8sIs6WcL6XVIIQASCdp6m0m81MtvDUqh9UxLmsonyUcjRBdbIO/9ZCAoEEVEKQ5LKvIOELcvuhYFD7xnGm0gXhgIclkPTGecxoME7K74r1M8xn5ZQHaT0k+kSJvSZP1A8wIJCQSTQQh8tO3k4pBJA4wqadO0DgILqzrWecVhCFuKuoSSYUkoUUkUI6yS7h0biIFNqQRtBicDOZBQgJN7YKaFnmj6vsMTdDMLI6yRPy3v9ck13XqNCV730MTPenrJLsPf65JjuVemhK976RNd56DrGnVNGqTxG+ELStN4Q93S+GhLqCXASaChh9aXF1TqpTrW3FNmqfUQX21tqFaEg4H+HX/AJX/AP/EAEYRAAIBAgMCCAoHBgUFAAAAAAECAwQRAAUSBiEHEBMiMUFRcRQgMDJhcoGRocEzUlOCkrHCIyRAYmOyFTVCk9FDYGRzdP/aAAgBAwEBPwD+MSnZhc4amYDdggg2P8BBFfnnAUnGgYlp1kG7pwQVJU9I8tGmtwMIo8SsjsQ47j5alXcT2nHQMLIrEgdI46mRd6HA8meKj3qfQcVMmhPScQQyq6ueN6UOzMTvOGUoxU9I8rRi0ZPacSLrnjHUBfxaxbOp7R5WlFoVxYYJAxG2tA2LgEDrOGNlOKk64428m8ckTAOpUlVYA7tzC4PtB4oPoU7uJxuGITpZ0PUb4lOmSJvTbDi4xI14gt+hj5LZ7KWzzOaShFwjveQjqjXexxtjNDV7T14pkCxxMsCgdAECiP5YeNoyL4pjeFeKpeRFBXt34p2eWYueoYqF1RG3SN+JFNREjLiDL5KqampIyOVmlCAnou24YIZSVYEEGxB8jwV5WI4KzNZBvduQjP8AKvOfE0jTT1U/+qSVj+I3wSWiN+lSPccUl+S9vGAB0Y6cQHk5HiPeMZKL59lX/wBKn3b8bbZaMvz2V0Fo6kCZe9tzfHyBxlNEMmyHLqG1nWJeU9c85/icFOTaqTrV3X3HCxAlTbcU346PEBvipGl45B03tjZtde0mWL/M7fhQnHCHQ8vlMNWBzqaWx9STcfjbyGzNCMy2gy2lIurTqXHaic9vgMVj65iPq7sZvB4Ln+aQHcDO7Duc6h8DgCwA8RzpUnsGEYBASekYLGolUKOapvjY9OU2lgP2cEre8afnjOKPw/Kq2ltcyQuF9YC6/HA8fgwpRNn81Qw3U9MxB7Gchfyvhm1MW7TfHCDQPTZjT5kg5kyBHP8AOn/IwakyMgTt3+JrRwwv34FPIbKZOb6DhnSBRHH5xxsBCWzatlO/k6ZY/a7A/pwNxvjOKUUWbV9OBYR1EgX1b7vH4L4dGX5xVfXeKMfdBJ/u4sxy6lzWjkpKpNUT9nSpHQw9IxmWWDJ85qaHleUEWmzkabhlDfPA4nJUFgLkDE0Je0kfXhOW1gHVimgbVrcWtjg7g/dMxqrfSzqn+2L/AKuLbiDkdpKlh0SpG4/CAfiPH4Po+S2ULdc1ZI3uAX5ce3cBh2ijm6p4EN/St1+WB0DER85PqniExgcowuOrHhUXTYXxM+iJm9GNk6LwDZ+iQizyJyrd8nOHw4uEeK2a0cv1qbT+Fz/z4+xq6Nksr/nM7H/cI4+ESlV8upKv/XDPo+7IL/pwhuuH/ZzK/U248UkKS2vhKWNGB3nvxWvuCDvOKGeCqo6eeD6KSJWT0Ajo9nFwlJZ8rftEw92nx9lt2zGUD+ix98jcW4bzuAxtltMucTrSUrfucL31fav0au4dWKZ9SAYkQSIVxBLqGhvOHFLKsS3OK2uMUidZJu3q44Pc9HOymV9zXkpj8WX5ji4Sh+wys9jzfEL4+ypvs3lXogP97cW3O1QAlyqjksi7qqUf2D54qqx53GklUU80fM4pKkvGki9Y39+DWcw7udipjq6abTUwyRS2vpdCjWPoOBVS2tYYdZnK3BLMbAdZJ9GNpNls2yegglr4BGJwWj3glSvU1ug4yaulp5IzG5SaBw8Z7jjKswTNMupq1BYSxgkdjDcw9hxwlH93ywf1JfyXx9jH17M5d6BIPdI2Nr9qFyeFqOla9bKnSP8Aoqev1j1YzCqMrmJTdQece04jjvvPRiln5E6W8w/DGzkKVWf5VEwBR6uG46iNQJxnNDk+f0zUtfEWG/RKBz4z2qcZxkWZZBmYoWR5lkI8HdAbTBujT6e0Y4OshiqayqzOsQ8tRPoSBlsY3tfW3pHVjhMaSpyBGYjmVAPvVhhLpPHIvTqF8bDqRs1SE9bSkfjIxwlt/lS/+8/2ePsDJymzyD7OeRfyb5425qJYs8zIm+ozaQewad3wxHHfnHj2GmYbT5ShO7wqO34gMG4vjParNabMMjqJaim/w2KsjBjXmyLIVKhnLdI7sZCmW120mf1wXlWhkpxC6uQoYoQx3Gx3rjhBsuzUt+qRLYhF5o/WGNnIPBshy2P/AMdGPe41n88cJEl8woYvqwFvxNb5ePwbzaqCvg+pOr/jW36ccJVLyec1L/axRSj2DQf7cReYOPIKsUOdZfUk2EVRG5+4wOHFnYek44QM6WaWPKoSCIyJJj/N1LiizCuy6QyUlQ8THp0mwNu0deMz2uzLPaBqKaZHCHXuTSxIBGKGNpqqNFFyTYd53YjjWGNI181FCjuG7G3s3K7RSJ9jDGnvGv8AV4/BzU6Mzq6cndLBqHfGR8jjhOpNRoZ7efHLEfZYj88Q+b7eOJtMqHsYYrdvqanyqBaQmWsMC62YELG1t979OI8wlrK2VpGLa7tc9JN7knv4qQkThwfNBY42PpvCtoaBLXHLoT3KdR+A4toanwvPcxmBuDO6qfQh0j4Dx9lKvwLaHL5CbK8nJHulGj544QKblshEoG+CdG9jXT54C6JJV7GI4gdME57NP58U88hpDqPnEKO4dOIH5OaN+xhgmyk4gGmB262IX3bzjg0puVz0S/ZRSP8ADR+rFbVCio6mqPRDE8n4RfFyxJJuSbk+OrMjBlNmUgg9hGM0lTONk6mdeiai5a3YVGu3sIxMNNXMPb7+JjaCYer+fFCkVTT8i3SPf3jE0LwPocdx6jgSaqPlP6d/hhhoVI/qrv7zvxwWUnMrqi2/TGg+8SxxtxnlFHlU9BDUxvUyuqOiG5RQdRvbut5HYasFfkVXlrnnw61A/pzA/O+KsWrGPag4pAVilBFiLfnxKxQhgbEYV4ayPRIOd2fMYjhEUBiZrqL7/RjkppXJ0Nzjikz6qy/Jny2jJiMspeWUHnFbBQq9g3b8W8jslmoyjPKeR2tDKeSl9Vuv2HGbx8jmTJ9XUvuJGFUsQALk4emE0Ol9zMqhiPRhaOFekFu84WGJehFHsxbEjpEup2CjtOEZZFDKbg9B8mcZjczxMTckHF2G9WKnqIxQPOZ2DyFlK9Zv4mZgmnX1xihv4NGD02P5+UzEftIPvcVF9OO4+JXfQj1hij+hHefKZj58H3uKkNqhPb4lb9B7Rii+h+8fKTQpMtmHcezEkbRMVbFObTx9/iVSM8JCi5uMUsbxR2bpJv5WWFJVs3sPWMClljlQgalDDeP4O38IP+1//9k=;fontColor=#4495D1;fontSize=12;imageBorder=#000000;fontStyle=1" parent="1" vertex="1">
                    <mxGeometry x="373" y="429" width="48" height="48" as="geometry"/>
                </mxCell>
                <mxCell id="31" value="&lt;b&gt;&lt;font color=&quot;#4495d1&quot;&gt;Terraform&lt;br&gt;Storage&lt;br&gt;Account&lt;/font&gt;&lt;/b&gt;" style="aspect=fixed;html=1;points=[];align=center;image;fontSize=12;image=img/lib/mscae/Storage_Accounts.svg;dashed=1;labelBackgroundColor=#FFFFFF;strokeColor=#4495D1;fillColor=#FFFFFF;" parent="1" vertex="1">
                    <mxGeometry x="646.5" y="227" width="41.11" height="37" as="geometry"/>
                </mxCell>
                <mxCell id="63" style="edgeStyle=orthogonalEdgeStyle;rounded=0;orthogonalLoop=1;jettySize=auto;html=1;strokeColor=#000000;fontSize=12;fontColor=#4495D1;" parent="1" source="39" edge="1">
                    <mxGeometry relative="1" as="geometry">
                        <mxPoint x="522" y="635.815" as="targetPoint"/>
                    </mxGeometry>
                </mxCell>
                <mxCell id="39" value="Terraform" style="shape=image;verticalLabelPosition=bottom;labelBackgroundColor=#ffffff;verticalAlign=top;aspect=fixed;imageAspect=0;image=data:image/png,iVBORw0KGgoAAAANSUhEUgAAAsgAAALICAYAAABiqwZ2AAAACXBIWXMAABYlAAAWJQFJUiTwAAAAAXNSR0IArs4c6QAAAARnQU1BAACxjwv8YQUAABnDSURBVHgB7dxLcptXesfhA9LJICNnEpldGVArSLSCUFLGvszbFrUCSyswtQLbKxDl7rld7aklYQf2DoRBKrLkQXveItCASMqHFC+4nO/7zuV5qlAANgD8660fEAIAAAAAAAAAAAAAAAAAAAAAAAAAAAAAAAAAAAAAAAAAAAAAAAAAAAAAAAAAAAAAAAAAAAAAAAAAAAAAAAAAAAAAAAAAAAAAAAAAAAAAAAAAAAAAAAAAAAAAAAAAAAAAAAAAAAAAAAAAAAAAAAAAAAAAAAAAAAAAAAAAAAAAAAAAAAAAAAAAAAAAAAAAAAAAAAAAAAAAAAAAAAAAAAAAAAAAAAAAAAAAAADZGgV698Xtl4ej7Q/+Pnrz5tvD8c4kAACQja3AMGbTB7Ptreef33m5HwAAyIaBPKzdrdHW43t3X734891XnwYAAAZnIOdhdzuE7+/dff14f+/lbgAAYDAGclZm+7PtrRf3/ve3rw1lAIBhGMg50icDAAzGQM7Xuz7ZUAYA6I+BnL+ToaxPBgDog4FcjJM+2VAGAOiUgVyct0NZnwwA0BEDuUz6ZACAjhjIZdMnAwAkZiBXQZ8MAJCKgVwVfTIAwKYM5ProkwEANmAg10ufDACwBgO5evpkAIBVGMjN0CcDACzDQG6LPhkA4BoGcpv0yQAAlzCQm6ZPBgA4z0Am6JMBAP5gIHNKnwwAEAxk3qdPBgCaZiBzCX0yANAmA5lr6JMBgLYYyCxDnwwANMNAZhX6ZACgegYya9AnAwD1MpDZgD4ZAKiPgcym9MkAQFUMZFLRJwMAVTCQSUyfDACUzUCmI/pkAKBMBjJd0icDAMUxkOmDPhkAKIaBTI/0yQBA/gxkBqBPBgDyZSAzFH0yAJAlA5mhnQ7l72UXAEAODGRy8ak+GQDIgYFMZk775F8fBACAARjI5Gh3azT6Wp8MAAzBQCZn+mQAoHcGMiXQJwMAvTGQKYg+GQDonoFMafTJAECnDGRKpU8GADphIFM6fTIAkJSBTCX0yQBAGgYyNdEnAwAbM5CpkT4ZAFibgUzN9MkAwMoMZBqgTwYAlmcg0wp9MgCwFAOZ1uiTAYArGci0Sp8MAFzIQKZx+mQA4CwDGfTJAEDEQIY/6JMBAAMZLqBPBoCGGchwKX0yALTIQIar6ZMBoDEGMixHnwwAjTCQYTX6ZAConIEMa9EnA0CtDGRYnz4ZACpkIMPm9MkAUBEDGdLRJwNABQxkSE6fDAAlM5ChG/pkACiUgQzd0icDQGEMZOiHPhkACmEgQ6+O++Qv7vz2VQAAsmQgQ/92R6PpgT4ZAPJkIMNwTvrk189lFwCQDwMZBjfb0ycDQD4MZMiGPhkAcmAgQ170yQAwMAMZ8qRPBoCBGMiQNX0yAPTNQIYi6JMBoC8GMpRDnwwAPTCQoTz6ZADokIEMxdInA0AXDGQonj4ZAFIykKEO+mQASMRAhrrokwFgQwYyVEmfDADrMpChavpkAFiVgQz10ycDwAoMZGiHPhkAlmAgQ3P0yQBwFQMZmnXcJwcA4AwDGdq2GwCAMwxkAACIGMgAABAxkAEAIGIgAwBAxEAGAICIgQwAABEDGQAAIgYyAABEDGQAAIgYyEAS9+6+fry/93I3AJDU3t6PX+7tff9poDcGMpDIbH+2vfX88zsv9wMAG5uP4r29vb89n3++fhPC9oeB3nwQANLZ3RptPb5399VX09n00V+e7RwGAFYyH8a780H8ePEyMAgDGejCyVB+/T+jo6NHh+OdSQDgSvNhPL8Sf/Dl/GL8YP7WxXhAEgugQ2+zixf6ZICrLTrj+dX4xfxz8yAYx4MzkIEe6JMBLnK2MzaMcyGxAPqiTwY4oTPOm4EM9E2fDDRLZ1wGiQUwEH0y0BadcTkMZGBg+mSgbjrj8kgsgBzok4Hq6IzLZSADOdEnA8XTGZdPYgFkSJ8MlElnXAcDGciYPhkog864LhILIHf6ZCBbOuM6GchAKfTJQDZ0xnWTWACF0ScDw9IZ189ABgqlTwb6pTNuh8QCKJk+Geiczrg9BjJQA30ykJzOuF0SC6Ai+mQgDZ1x2wxkoEL6ZGA9OmMWJBZArfTJwNJ0xsQMZKB2+mTgUjpjLiKxABqhTwbO0hlzGQMZaMxpn/zrgwA0SWfMdSQWQIt2t0ajr+/dffWlPhnaoTNmWQYy0LLTH/J9MjqaPtQnQ510xqxKYgEQwqf6ZKiTzph1GMgA7+iToRY6YzYhsQA4S58MBdMZk4KBDHAxfTIURGdMShILgKvpkyFzOmNSM5ABlqJPhtzojOmKxAJgefpkyIDOmK4ZyACr0yfDAHTG9EViAbA+fTL0RGdMnwxkgI3pk6Erx53xjz/rjOmTxAIgDX0yJHS2M54F6JOBDJCWPhk2EHXGBwEGIrEA6IY+GVZ0rjOGwRjIAJ3SJ8N1dMbkRmIB0D19MlxAZ0yuDGSA/uiTIeiMyZ/EAqB/+mSapTOmBAYywGD0ybRDZ0xJJBYAw9InUzWdMSUykAHyoE+mKjpjSiaxAMiLPpni6YwpnYEMkCV9MuXRGVMLiQVAvvTJFEFnTG0MZID86ZPJks6YWkksAMqhTyYbOmNqZiADFEefzHB0xrRAYgFQJn0yvdIZ0xIDGaBs+mQ6pTOmRRILgDrok0lOZ0yrDGSAquiT2ZzOmNZJLADqo09mLTpjOGYgA9RLn8xSdMZwlsQCoH76ZC6lM4b3GcgAzdAn8wedMVxOYgHQFn1y43TGcD0DGaBN+uTG6IxheRILgLbpkxugM4bVGMgAhNM++Ys7v30VqIbOGNYjsQDg1O5oND24d/fVvj65bDpj2IyBDMB5J33y63ujo6P7+uRy6IwhDYkFAJeY7emTy6EzhnQMZACuoU/Omc4Y0pNYALAMfXJmdMbQHQMZgFXokwemM4buSSwAWIM+eQg6Y+iHgQzABvTJfdAZQ78kFgBsSp/cEZ0xDMNABiAVfXIiOmMYlsQCgMT0yZvQGcPwDGQAOqJPXsVxZ/y3FzpjGJ7EAoAu6ZOvcbYzBnJgIAPQB33yOced8fbiuv4gAFmRWADQI33ywh+dsXEMOTKQARhAm32yzhjKILEAYCjN9Mk6YyiLC/IAvnu+sz+aTe+HWZgEAE775Oe1ZReLznh+Mf76JKfYC0ARDOSBHM4vJaPp9PYszL4NAITa+mSdMZTLQB7Q4lfc3z396MHoaHpzFqZPAgCh9D5ZZwzlM5AzcDyUd/ZHIXwmuwB467RPfvH5nZf7oQCLzng+jJ/Pr8bzR9gNQLEM5IwcPr3xw5NnN27qkwHeyb5P1hlDfQzkDOmTAc7Ls0/WGUOdDORM6ZMBLpJHn6wzhroZyJnTJwO8Z7A+WWcMbTCQC6FPBnhPb32yzhjaYiAXRp8McF63fbLOGNpjIBdInwxwkeM++fM7vyYZsic5hc4YGmQgF0yfDPCe3a0w+q+Qxl7QGUOTDOQK6JMBANIxkCuiTwYA2JyBXBl9MgDAZgzkSumTAQDWYyBXTp8MALAaA7kR+mQAgOUYyA3RJwMAXM9AbtC7Pnk0vS27AAA4y0Bu2OFPO2N9MgDAWQYy7/rk+UX5UQAAaJyBzFuL7GJ+UT7QJwMArTOQOUOfDAC0zkDmQvpkAKBVBjJX0icDAK0xkLmWPhkAaImBzNL0yQBACwxkVqZPBgBqZiCzNn0yAFAjA5mN6JMBgNoYyCShTwYAamEgk5Q+GQAonYFMJ/TJAECpDGQ6o08GAEpkINM5fTIAUBIDmd7okwGAEhjI9E6fDADkzEBmEPpkACBXBjKD0icDALkxkMmCPhkAyIWBTFb0yQDA0AxksqNPBgCGZCCTLX0yADAEA5ns6ZMBgD4ZyBRDnwwA9MFApij6ZACgawYyRdInAwBdMZApmj4ZAEjNQKYK+mQAIBUDmWrokwGAFAxkqqNPBgA2YSBTLX0yALAOA5nq6ZMBgFUYyDRBnwwALMtApin6ZADgOgYyTdInAwCXMZBpmj4ZADjPQKZ5+mQAIGYgwwl9MgCwYCDDOfpkAGibgQyX0CcDQJsMZLiCPhkA2mMgwxL0yQDQDgMZVqBPBoD6GciwBn0yANTLQIY16ZMBoE4GMmxInwwAdTGQIRF9MgDUwUCGxPTJAFA2Axk6oE8GgHIZyNAhfTIAlMdAhh7okwGgHAYy9EifDAD5M5ChZ/pkAMibgQwD0ScDQJ4MZBiYPhkA8mIgQyaO++R/vaVPBoBhGciQkcPxv/+uTwaAYRnIkKF3ffLRP27JLgCgXwYyZOxw/J+/6JMBoF8GMhRAnwwA/TGQoRD6ZADoh4EMhdEnA0C3DGQolD4ZALphIEPh9MkAkJaBDBXQJwNAOgYyVESfDACbM5ChQvpkAFifgQwV0ycDwOoMZKicPhkAVmMgQyP0yQCwHAMZGqNPBoCrGcjQqNM+OQAAZxjI0LBFnxwAgDMMZAAAiBjIAAAQMZABACBiIAMAQMRABgCAiIEMAAARAxkAACIGMgAARAxkAACIGMhAEqPZ0cMwC5MAQGqHIRz9EOiNgQwkcfjsT9+MptPbszB9EgBIYTwfxrfH44/vj8ef/R7ozQcBIJHD8c5k/rS/v/fyYLodDkZh614AYFWT+TB+OB/FrsYDcUEGklsM5e+e7uyPZtP7sguApc2vxLNH83F8yzgelgsy0JnDZzuHi6f9Oy/3Z2HrqzAKuwGAixyeXI2lFBlwQQY6txjK+mSAC411xvlxQQZ6oU8GOGOiM86XCzLQK30y0DidcQFckIFB6JOBBh3qjMvgggwMSp8MNGCsMy6LCzIwOH0yUKnJfBgvRvE4UBQXZCAb+mSgEnFnPA4UxwUZyI4+GSjX7NsQpgdSirK5IAPZ0icDBRkfd8afPDCOy+eCDGRNnwxkbqIzro8LMlAEfTKQGZ1xxVyQgaLok4Hh6Yxr54IMFEmfDAxgrDNugwsyUCx9MtCTic64LS7IQPH0yUBHdMaNMpCBJOZX3N0wsEV28eTZjZuGMrC5RWd8dHM8/kRr3CADGUhitr314os7v30VMqBPBjYw1hljIAPJjEbTg3t3X734/M7L/TCwd9nF0fSmoQwsYXI8jD++LafAQAZS290abT1eDOX9vf/77zAwfTJwDZ0x7zGQga7szrb/5ed7d18/1icDedIZczEDGejYbP+0T97fe/FhGJg+GQg6Y65hIAO9WPTJs+1/+1mfDAxoojNmGQYy0Cd9MjAEnTErMZCBIeiTgZ7ojFmdgQwMSJ8MdGasM2ZdBjIwOH0ykNBEZ8ymDGQgF/pkYBM6Y5IxkIHc6JOBFemMSctABjKVa5+8+CIGMjE+vhjrjEnLQAayll+f/NEDfTIMbhJ1xr8ESMxABkqQZ58cwmeyC+jV2854Poxv6ozpkoEMlCSvPvnpjR/0ydCXPzrjAB0zkIEC6ZOhIWOdMX0zkIFi6ZOhahOdMUMxkIHS6ZOhLjpjBmcgA7XQJ0PxdMbkwUAGKqNPhgKNdcbkxEAGqqRPhiJMdMbkyEAGaqZPhjzpjMmagQy0QJ8M2dAZkz8DGWiIPhkGNNYZUwoDGWiOPhl6NdEZUxoDGWiVPhm6pTOmWAYy0Dp9MiSnM6ZsBjLAW/pkSGCsM6YGBjJARJ8Ma5nojKmJgQzwPn0yLEdnTJUMZIDL6ZPhUjpj6mUgA1xLnwyRsc6Y2hnIAEvSJ9O4ic6YVhjIAKvRJ9ManTHNMZAB1qNPpgE6Y9pkIANsRJ9MlcYnw1hnTJMMZIAE9MlUYhJ1xpMAjTKQAdLRJ1OqxZX4oc4YjhnIAOnpkynIaWf88TcBeMtABuhM3CdnMJT1yZw11hnDxQxkgI4d98lbz/XJZGKiM4arGcgA/XjXJ/957+VeGNi7Pnk0vS27aIbOGJZkIAP0a3d7fk3Opk/+aWesT26BzhhWYSADDCLPPnl+UX4UqMlYZwyrM5ABBpRbnzy/KB/ok6sw0RnD+gxkgOHpk0lFZwwJGMgA+dAnswGdMaRiIANkR5/MSsY6Y0jLQAbIlD6Za0x0xtANAxkgb/pkztMZQ8cMZIAy6JMJOmPoh4EMUBR9cqPGOmPoj4EMUCB9cjMmOmPon4EMUC59cr10xjAgAxmgfPrkquiMYWgGMkA19MmFG+uMIQ8GMkBl9MnFmeiMIS8GMkCd9Mn50xlDpgxkgLrpk7M0e6QzhnwZyABN0CdnYnzSGR/ojCFfBjJAQ/TJQ5n9ojOGchjIAO3RJ/fnpDP+5JbOGMphIAO0S5/cKZ0xlMpABmiePjmxsc4YymYgA/CWPnlTOmOohYEMQEyfvDqdMVTGQAbgIvrkpeiMoUYGMgBX0CdfYqwzhnoZyABcS598SmcMLTCQAVhWy32yzhgaYiADsKrG+mSdMbRmFAASmF8VZ4EmzWZbB1vTN08WF90wsP29v38Ywj92D8f/8UvY0N7ej3shvJlIKaA9BjKQhIHcvMl0Nn30l2c7hwGgcAYykISBzInJ0dH0/l/HO+MAUCgNMgApZdUnA6zDBRlIwgWZi+TUJwMsywUZgM7k9P/JAMtyQQaScEFmCZOjEB7+9emNHwJAxlyQAejL7nYI3+uTgdy5IANJuCCzstHWN6M3b77VJwO5cUEGYBiz6QN9MpAjF2QgCRdkNqRPBrLhggxADvTJQDZckIEkXJBJSp8MDMgFGYD86JOBAbkgA0m4INMhfTLQKxdkAHKnTwZ65YIMJOGCTG/0yUDHXJABKIs+GeiYCzKQhAsyA9EnA8m5IANQMn0ykJwLMpCECzJZ0CcDCXwQAKAWiz55a+vD+av7AWBNEgsAAIgYyAAAEDGQAQAgYiADAEDEQAYAgIiBDAAAEQMZAAAiBjIAAEQMZAAAiBjIAAAQMZABACBiIAMAQMRABgCAiIEMAAARAxkAACIGMgAARAxkAACIGMgAABAxkAEAIGIgAwBAxEAGAICIgQwAABEDGQAAIgYyAABEDGQAAIgYyAAAEDGQAQAgYiADAEDEQAYAgIiBDAAAEQMZAAAiBjIAAEQMZAAAiBjIAAAQMZABACBiIAMAQMRABgCAiIEMAAARAxkAACIGMgAARAxkAACIGMgAABAxkAEAIGIgAwBAxEAGAICIgQwAABEDGQAAIgYyAABEDGQAAIgYyAAAEDGQAQAgYiADAEDEQAYAgIiBDAAAEQMZAAAiBjIAAEQMZAAAiBjIAAAQMZABACBiIAMAQMRABgCAiIEMAAARAxkAACIGMgAARAxkAACIGMgAABAxkAEAIGIgAwBAxEAGAICIgQwAABEDGQAAIgYyAABEDGQAAIgYyAAAEDGQAQAgYiADAEDEQAYAgIiBDAAAEQMZAAAiBjIAAEQMZAAAiBjIAAAQMZABACBiIAMAQMRABgCAiIEMAAARAxkAACIGMgAARAxkAACIGMgAABAxkAEAIGIgAwBAxEAG0piFSQCAChjIQBJPnt24ORpNH4XZ6PcAAAUzkIFkDn/aORhNj27NwvRJAIBCGchAUofjncl3T3f2R0fTm/O3vwQAKIyBDHRiMZSfPL1xazSb3tcnA1ASAxno1OGznUN9MgAlMZCBXuiTASiFgQz0Rp8MQAkMZKB3+mQAcmYgA4PRJwOQIwMZGJw+GYCcGMhAFvTJAOTCQAayok8GYGgGMpAlfTIAQzGQgazpkwHom4EMZE+fDECfDGSgGPpkAPpgIAPF0ScD0CUDGSiWPhmALhjIQNH0yQCkZiADVdAnA5CKgQxURZ8MwKYMZKBK+mQA1mUgA9XSJwOwDgMZqJ4+GYBVGMhAM/TJACzDQAaao08G4CoGMtCks33ybBwA4ISBDDTtuE/+6LY+GYBTBjJAON8nG8oALTOQASLHffL0tj4ZoF0GMsA5+mSAthnIAJfQJwO0yUAGuIY+GaAtBjLAkvTJAG0wkAFWoE8GqJ+BDLAGfTJAvQxkgA3okwHqYyADJKBPBqiHgQyQiD4ZoA4GMkBi+mSAshnIAB3RJwOUyUAG6Jg+GaAsBjJAD/TJAOUwkAF6pE8GyJ+BDDAAfTJAvgxkgAHpkwHyYyADDEyfDJAXAxkgE/pkgDwYyACZ0ScDDMtABsiUPhlgGAYyQMb0yQD9M5ABCqBPBuiPgQxQEH0yQPcMZIAC6ZMBumMgAxRKnwzQDQMZoHD6ZIC0DGSASuiTAdIwkAEqo08G2IyBDFAhfTLA+gxkgIrpkwFWZyADNECfDLA8AxmgIfpkgOsZyACN0ScDXM1ABmiUPhngYgYyQOP0yQBnGcgAvKVPBjhmIAPwjj4ZwEAG4AL6ZKBlBjIAl9InAy0ykAG4lj4ZaImBDMBS9MlAKwxkAFaiTwZqZyADsBZ9MlArAxmAjeiTgdoYyABsTJ8M1MRABiAZfTJQAwMZgOT0yUDJDGQAOqNPBkpkIAPQKX0yUBoDGYBe6JOBUhjIAPRKnwzkzkAGYBD6ZCBXBjIAg9EnAzkykAEYnD4ZyImBDEA29MlADgxkALKjTwaGZCADkCV9MjAUAxmArOmTgb4ZyAAU4V2fPDt6aCgDXTKQASjK4bM/faNPBrpkIANQnHN98g8BICEDGYBinfTJn+mTAQDgAvt3/v/B/p2XBwEAAAAAAAAAAAAAAAAAAAAAAAAAAAAAAAAAAAAAAAAAAAAAAAAAAAAAAAAAAAAAAAAAAAAAAAAAAAAAAAAAAAAAAAAAAAAAAAAAAAAAAAAAAAAAAAAAAAAAAAAAAAAAAAAAAAAAAAAAAAAAAAAAAAAAAAAAAAAAAAAAAAAAAAAAAAAAAAAAAAAAAAAAAAAAAAAAAAAAAAAAAAAAAAAAAAAAAAAAKN0/AW/ZhvqdWtLsAAAAAElFTkSuQmCC;fontColor=#4495D1;fontStyle=1" parent="1" vertex="1">
                    <mxGeometry x="345" y="589" width="93.63" height="93.63" as="geometry"/>
                </mxCell>
                <mxCell id="40" value="" style="whiteSpace=wrap;html=1;labelBackgroundColor=#FFFFFF;fontColor=#4495D1;fillColor=#FFFFFF;dashed=1;strokeColor=#4495D1;" parent="1" vertex="1">
                    <mxGeometry x="520.98" y="389" width="180" height="149" as="geometry"/>
                </mxCell>
                <mxCell id="41" value="&lt;font color=&quot;#4495d1&quot;&gt;&lt;b&gt;Jenkins&lt;br&gt;Credential&lt;br&gt;Store&lt;br&gt;&lt;/b&gt;&lt;/font&gt;" style="aspect=fixed;html=1;points=[];align=center;image;fontSize=12;image=img/lib/mscae/Key_Vaults.svg;dashed=1;labelBackgroundColor=#FFFFFF;strokeColor=#4495D1;fillColor=#FFFFFF;" parent="1" vertex="1">
                    <mxGeometry x="543" y="409" width="37.44" height="39" as="geometry"/>
                </mxCell>
                <mxCell id="62" style="edgeStyle=orthogonalEdgeStyle;rounded=0;orthogonalLoop=1;jettySize=auto;html=1;strokeColor=#000000;fontSize=12;fontColor=#4495D1;" parent="1" source="44" target="39" edge="1">
                    <mxGeometry relative="1" as="geometry"/>
                </mxCell>
                <mxCell id="44" value="Jenkins&#10;ACI&#10;Instance&#10;Job" style="shape=image;verticalLabelPosition=bottom;labelBackgroundColor=#ffffff;verticalAlign=top;aspect=fixed;imageAspect=0;image=data:image/jpeg,/9j/4AAQSkZJRgABAQAAAQABAAD/2wCEAAQEBAQEBAUFBQUHBwYHBwoJCAgJCg8KCwoLCg8WDhAODhAOFhQYExITGBQjHBgYHCMpIiAiKTEsLDE+Oz5RUW0BBAQEBAQEBQUFBQcHBgcHCgkICAkKDwoLCgsKDxYOEA4OEA4WFBgTEhMYFCMcGBgcIykiICIpMSwsMT47PlFRbf/CABEIASwBLAMBIQACEQEDEQH/xAAdAAABBAMBAQAAAAAAAAAAAAAGAAQFBwMICQEC/9oACAEBAAAAAN/vK8lS9gFFU0NQB/lBWtieV5WkQ3nrxnxqAP8AKCtbE8ryVL2AUrCxhj8ojxifmB6IL3If81PpPr5sNcHldUbfu+EkXuQ/Ab4wx+UR4umro6xAE+SwoqavxCOhNKCIM3KsrF8efOuGmPUMlirD9rt0dYgCfJUIZSVpAP5uKipqQH9X6luSpN5MGJJJBvM7qGXkmYVykrSAfzay+V5Kl7AKKpoagHfMuyWHQVisGVJKL0jrHr4CtbE8ryVL2AUjTEwySDdk7dMojlBcN2Uxvpj1i1q2n2KSVUVrpf1PPviVxMMkg3ZKAdHWIAnyWFFTTU6mrEhQrfOO1A3R8SSSAaL3v9rt0dYgCfJVCpJJJffPIoX213FTdxkrw/8AqAnWohrNvr6kkklNeV5Kl7AKKprUbmlul9SxNswknurmw8lqLtu700p7ovksTyvJUvYBSn/uSxMM71rQ/NSUn7JA9mtpUvdC633VubUK6dWLP1ikerjT7ksTDO9QW6OsQBPkofx2vGpd89WESb6JJYM6x88t5SzmeJ7M7g5jrEAT5KsWEbdz8fHc3xqeht1vrFaf0kkllxQvOzpnypOKQ642SNu5+PhUX+V5Kl7CoOWV6MKn6iTz5JJJCbqb1nHdluap6PGvUCvZUvYBSd5zBuHy+hFVTfzAwm2cHt0kl6CFOnUpblUKjJj2jexhy3D5chVeujrEAT3Hi5mCUNUvS63/AJxZclfh+owDc9R74aYz/irvdrcDEAT5Kl5XkqXhHH66cCSD9hNysOuexvnukpGbK+qL0fsJKCsLe6UL2AUrCxhj8o13532L4kkBdYGgTSu0PmCg4Oyznkxa8ml8DfUzOUR4umro6xAFBaYnKS8BKq3+2xw1bQm3kivqj9CIwcuuYX1WfaDEAT5KhDKStIDW7S47SHaqmCqtdpz8X19A7+zwVBFan6/uye+qx7ONYB/NrL5XkqX6288rJZ1jAWF9xkZLbk6vloqD3EJv5KosvuK1UG9UXBewCkaYmGSQrXlDcVRYS2KZJLA5tf7+ANpYeetY2MOjGJKekXsg3ZKAdHWIAm+NN1V+NEkOkkm1y42n3snq/MUu9gLyygu2+7OIAnyVQqSS5rh8lr/aY8kvPWB+xvKut666n9UaZbXCqT67mKSSmvK8lS+P155xW7SxTDpesH/kBt9e9ak+daBNyk6jGvXGvZUvYBSn/uSxMM8vyFlYIXcYUsnz8xRhtfZ+qOxmp9cDt5YKn6TXrJYmGd6gt0dYgCfJai5L3DTpKyWN7g+VjgC+ch4FQb22byr/AKFG2IAnyVYsI27n4+FmNM9Nx4xjMQi7+zEwns8VWwPgv9n0TYXlzJ37eu5+PhUX+V5Kl7AKKpnm7p9Z0P8Abu5OmblJKmOYMD1Y1j2pHbl1phNiJUvYBSd5zBuHy5DDwBVyJYQqVp9W0klW/IPF0TD9xqnsoB1031bh8uQqvXR1iAJ8lhRU05c15FJSfZtJJBXGzJtwzveItSiLC2ZxAE+SpeV5Kl7AKKpoa0B1GIXqhu2cokkOcX2hhvCK12/zdE6+lS9gFKwsYY/KI8Yn5geb0do7T0x89V7ySSHeawF0lthyMfBVjDH5RHi6aujrEAT5LCipq/D8QTrbU187upJD+pYpt3KxVh+126OsQBPkqEMpK0gH83FRU1IQDQkzB/ObqcklD6ekvmyLUkzCuUlaQD+bWXyvJUvYBRVNDUAf5QVrYnLTqT9JJlzBDN+r/wAoK1sTyvJUvYBSNMTDJIN2Tt0ywP8ALG/ErqKKbWWLkbVZze6ytH2WN+JXEwySDdkoB0dYgCfJYUVNX4hFWH7XeLUuoxX7zk187pOBCKsP2u3R1iAJ8lVdujrEAT5LCipq/EIqw/a7dHWIPmZyHEzV+IRVh+126OsQBPkq/8QAGwEBAAIDAQEAAAAAAAAAAAAAAAQFAQMGAgf/2gAIAQIQAAAAAAAAGYeJgAAgV3ndd5AA00uss7EAGayt9eU+2wAM4qtMqsS7f0ACo8RRazwAUkbPrysrEAFDp97Wm2mAEfRKqI8qRF37LEA5y02wIgnaJ84DPFdDGjjM2MvwI3I9BDweszIsHrQKeku9lebJ2qPWdbtBz9bsvaxsmydECt6ScDmYa5i7dNjq0xol9aA5aMs/G+Nu2SKLxdXAOVjuijaN0Xb1PPUlxdA5aNedpRVc7Rv22HBWd0DmdvdSq6l5Hpa7Pe/P5dyDnej6GOqOJkbdncfP7W1BR3HRa0P59dWubb530U8FW7PU8cV1UO5ruF6veCLUd/r8e48ujuKHlevAcz9BxnEOfVT+WhX4Ci7X1nGIPibRyMAIl/tr2rx7x5wALTfoqydqjABZSI9aScRwAsZOmrJKMAG2y81Ru9RwAbZdeM4AAzgAAAAAAAAAAAAMmAAAAH//xAAcAQEAAQUBAQAAAAAAAAAAAAAABAEDBQYHCAL/2gAIAQMQAAAAAAAAFJCwAAJU76s4ygAH3lbhj4YAKTp3z9oWPqAKVn3Y+QRcdQAUrkayhjogApXKSKfP1SDDAH185a982a3cZYAMzP1nJ341mRZuYwA7TyWLNlKVh5yupAU9Reb/ALkCkTZNx40BnPSXnWNU+aRNw6p5sqDo/XuQaPOLcO5vnWfNeOB2PoMLghbiWL3VOicJ1EHdtucY121egfd/tWx8d56D0FsTnvNrUi1bs+jZXKuYA9D51xHW79mTb1nrvVeZcoB6Fz/KeG7BkbVbU3X/AFHofJwd9gec4WT3H0Z5+3ef5y9Na1y0HcOR6Ffbh6W1mFa87ep+d85B13Rua3GY9Ycj0G/qvrjiOmA6Hf4ddXO68Zn63tPp/wA54cGw9L83fdy3Jx+0a70juvmUCvffMPzWk/E5/Fdnz3GQHXuB260rkrmP3bB1AbJo0PLUv/fzX6qAUxEWVmDHXpYAYmHLy5DrLADFwZGaIlJgAWcN95wj/MmoAWYGVFKgAUqAABSoAAAAAFKgAAUKgAAAP//EADUQAAEDAwMDAwMDAwMFAQAAAAQDBQYBAgcACBAUFjQRFTUSEyAhJEQiMTIjJSYXGDAzNkH/2gAIAQEAAQgA0b4ZPDJ8mPxI/BT4jP8AL4kfnJ8Mnxg/B/nFclWXKDLWWu5bBGkaLyJfcVgqPkUvotvOxInX0sV3gYddLLUiWzPWCHm+1NGJHMbiguSz6kfnJ8Mnxg/B/nFcm+GTwyfJj8SPwU+etD0QuJeKvZZ0B2msdYY5FVfrQ9PSiZgtiY3QHaY/2PUdV1oenlO8smy8XoDtNZCAoCKS/Wh6LEKVKXUTQaj17/p1kndTjqDXrgNs03TZXl33UA1bzXU361YftcybJkUinETZm222U6wvZkBdbXon3aLkYCl97S7RbIeNHCwg/HO7yexe9EWUR6aRjKbPY/xboTtNZCAoCKS/Wh6LEKVKXUT6A7XWh6IXEvFXss6A7TWOsMciqv1oenpRMwWxMboDtdAdwB5wvD38YRxHPOU4k38TiOeCpw9/JkaSSUXUtTSyPm6C4jASQeHOa563LLrgslmD8MYobqOeSBIG6bhHQAyN48xDBsZoW1Zb1bLa/rUin/51F2vvqaVUougoOvP9s8BllixTFWzJe32bpq24bzKwZeYeqEe/kyOAvDG5A84Xh7+MI4jnnKc+yOeh2s4ZZJdX3ts0ccM4jKCi+yOem5BVoWuXM97bNOf+8fa6H2Rz02rpNCFyBvvbZo4EpxKUKFz/AJ7sxkirEonijbys9072ydLMmitLQsOyYqw445UcrJ7PU0xxB0kEL1rr/wC35TyCMGRo6syPSts5wPkX1Rgk2aMuxYWTsvsjnod0AFQSQV97bNeyOeh2s4ZZJdX3ts0ccM4jKCi+yOem5BVoWuXM97bNe9tnBvhk8MnyY/Ej8FPiM/y+JH5yfErlyMBxm7yVbDxUGVk7pPsmT7dAzSEygrfji1POk1Ha1q1sSspS2++t9fWtttbq+lDiQGu2y5wp6Vttup+D9Io/EGZd7kGbct4eyox9KPt5yevjPIQSq+j/ADiuTfDJ4ZPkx+JH4KfPcYOrngQuy4ZPtw7SLcs0K2mr9xg6KKTfE+nG7cO0L/x/6+q7jB0SNe+30JGdKN8Taj39+ytmGW5dfLlC8f7Xb1QE3zIoQ+FYjS1KP4tcU23dMeiCtf8AVd6atpW6tKUz1n+sDVUisUa8CZnyDWr45YEx1kXG3vTZIvwyfikLKpUfSdnrabjs0WtrTkbGEoxm62gPeEZ9SU4ji7uWoylGX3Ep9uHa7jB1c8CF2XDJ9uHaRblmhW01fuMHRRSb4n043bh2u3DuAPOF4e/jCOI55ynEm/icRzwVNb0JQo1wNljqG2SFs7e1OuTH1+f3KRmVKN1iQSrnuXOLs08u1WFkd3em2zGVXlRfJkorWt1a1r+eUIYNPoI9Miuzh6qZDZqw3heGNyB5wvD38YRxHPOU57Z17H0P7rXc2vc/eP2Ou2ddL2/+613Nr/6PXbOklFWZS0FLei+hHzOONSEVv6HDWPGpPSdPW+2ldrAHXvmQ5VfqtKVpW2oggjeIgGHpNO6+tNQWWESAyYNJ+rba3XUpSNyZil7Sm7MenJA5dpcrQcUzROeQlgf9bYKWtOcMhxylHzof2uu5tds69j6H91rubXufvH7HXbOul7f/AHWu5tdzcG+GTwyfJj8SPwU+Iz/L43F7iEIJ9+LREihq/qcTHzx7MY4/LKEf2E9WiQd31WUv1tOHsSxWQtT8LL7K209MpuC+IsnNmR0Gp1bH1sEdGtO76FLLtYUf+x8lzXFrnqpKQdtl6uPZQz44zlKIUn3+tiLcXKn+xveWWWswsmj/AAb4ZPDJ8mPxI/BT57jO0m9FGX2jKduA6XbUGhK41DuM7Q5N77fUYrtwHRNKsFbKCbhs534wjtjS3RiOlypwWLNyGeF98JnEx9hbI2UwkFwX3aDOm5uUKa8aztzEd0o4+bZiaNffcPv5t9Pqp6z/ADNnTHc2eRTphuAyHklkUi5OA4c/QjG4jc+63PwI/wBG7JDDhzKQOT4ykdWabWJ2ZJ3Etmxbthbok5Cvkpy+0rOuaZqINgrMh2JJGoM4AtTK6BDHg9xnaTeijL7RlO3AdLtqDQlcah3Gdocm99vqMV24DrtwHgDzheHv4wjiOecpxkqYsePIsZKnY9wkWUpmY5uYAQjYKgINj+K/9TMpN7MvmR5nrEyXM2PIFuOyfF1xD5HuWam5qn7NMmXbU7SCRZafX6/8LvRROqd44ogl1bhuFkUCUVUCJtGZJtuyGHJo1CZqxZBjoz8y0p611KFqGZ2nC1JvHqLpXuwu0PMd4pVMcvaqV6Ct6SgHnC8PfxhHEc85Tn2Rs0Q1gCoKrpe9uegTinEpMUr2Rs05IJNCFq4Qbi7GEpo27r8pVmc2rGQIawUY2q25VRb61LfTbgWk05yAGXz71CmIZlagFBmh/wANNUNXxdEyAMaxholiViaCVqKP5/au+j6+JHHGWWshjG9RK+WYczlSLNNltvUW00xGWvUzl71T9P7Vf24mLvqJIGH5q05cgjZIVCGsAVBVdL3tz0CcU4lJileyNmnJBJoQtXC97c9e9ufBvhk8MnyY/Ej8FPWTJrTGeMX2S2QdoueXyi5BKtaU+mmn4g+JzUF+b2x3j2UYVacg1g2NbW3t6f8A4J4/LxeESR8Ghcj7thkdfbTShGwRQw+b7pIexqVAiuHsVztyyDXKE5nj5SMQeSvNceDfaZyF66lDT7uzrJ2bRchVi2Q6x0o3wyeGT5MfiR+Cnz152hCylSkE1OiD06IIDALKodedpmUvLJvsK3ozKhsoY4cLBmyjZHkVL77633VurqRslr63VRtxdlyT4idCULK7s8a0bqkW4Wn+Vss5HUeCPx9K0/unkyCe9HMRbk1AShkcGxdp27Z3ilFg45ZtYkr+UkTOGeIYYwihQy6SbmDpE8DRnGG5B0JiGKGOIkx4OoDGAhXVK+laVo+pExqT9SDG5RZM45FZKL0QenRBAYBZVDrztMyl5ZN9hXRB66IPgDzheHv4wjiO+arXU4e1Mi5Pe3S0mtiSVqVnLuwNb3bTqpNHKR9Qb6duBARGF4x0t9PS+7hBdAlP7iGkq+iluspzF/g8YWfGiZY4gGeY42PqT7try5FV71WUoXNbLWqZOBD56e6TYN0juCMryZeyiWH8JMmLkLia5ilNmTcuqpCVr61r6cZDC+sQI6mzqQ1e8cHsCunv4wjiOecp+Bvhk8MnyY/GU3u6MY0lzvTHQn35GmpUi76la0/Gbt9TWO5azZ1KrFAJLElV6el9K8GSm/E2XSm92utrbWtK6pXU7tnO3ORLvUQZd3kRISso9o7psTVppTdLiivpSg69ShkCK7g8mWQCGqAgwFl6UW9zV5k41C4+4p62YPNRciPTLfW2tta21ZPkx+JH4KfPWh6IXEvFXss6A7TWOsMciqv1oet1blaNg97tTxelT7jsRWtfWta/j6UrStKw+R1xLlVtd07rkSELFUNZCgbPkiLFsDniPI7xG3euLMiVpWlfSuixBDxVwzHrbDiV3WvVQQ2k4zSv9VIrhLGENLRObJLJWeIsZz89T+auuQ5S4SFyZzgnFtHWC5VTosiqlXbS4XNmboffo0EqhhH0NY6wxyKq/Wh6elEzBbExugO10B3AHnC8PfxhHG7lX7WFmSzWNqfS0Ot/41rS22t1zzOghPqRbTCynBdUona/l0R3Zh4G9LJ1surxlbFLLlNjoKTEM4yfGTpSFZZZ3hpkLem5M3Ftt1/r9OQM/wAAgdqw9k9yXM8sOyNzpdELKA0to2ublHj7rkmV7CfBqrD8Wf526xKpUTMkM9NPfxhHEc85Tn2Rz0O1nDLJLq+9tmjjhnEZQUX2Rz1vDEWRw6xUVx1d/szhb+D1KGxk9U73B7e5MvRDTfEkrPS8+gw1qFR7XdrWZS070sZ5g3BqR5c4RPdSgF/RIJtu3RXbUUYPLMpZPlLf0krj8lkMVNocws26bLIqF1q5W7fJRVPtCON+43KIi15yg16JN4tg8Ck5KH3dR1zXEXVbi3dnQeEaKJpqOTGfS+yPvqL8FVW3Vn+dusV0qtmSGeijmAipcmqccM4jKCi+yOem5BVoWuXM97bNe9tnBvhk8MnyY/G7oChWFz1tY4W/0nRDg5wCbB6kGPU8IKsvQbWmPlOVaLLBhDAJfaGVIRR/zVcVLv0SXstJtutWhcvmuLna91iMS3qR0ylg8tl8la8k50dn4G4uz1utq5xaNO31Vv8AZ5hAnFJ6jsa3UTcL6EF8mZgnmUTwo86McVbY2lW9G4la71rSaCpgzZNVJAhQe71te7BHFpXVrjmy+pbipxW+idLr67eAqumbIWlpyu+pwK0yfJj8SPwU+e4wdXPAhdlwyfbh2kW5ZoVtNX7jB1mMNGXYfnAKGPyftvSiVdZDvVq7CWXR5hGVQSOIIKTH9KXKnLqetLfwIGHKp6LQhG0KYfYpX+9dJUSuvpRVxqdSn0sseq6gTopJ7yYeGtezC2DNTcwLeoiq33r631n9KXSOP0pp4U+2BfTUGB6Rjovdp/I6RjcltbOGSrlltQ6qkfOUUvvqi3LNCtpq/cYOiik3xPpxu3DtduHcAecLw9/GEcMaKRSpQqxzcvBZ6a2EVp6VrTWQQKrN4x1sQM8gK5zs9bE7/wA0jKNL+0uVyttbFb7a6d3RtjgdpbnjfE5ee7n19PR2jY4Uj94ac6x9mDEAqhi4cUzou32GVdinm+WL1kenil5JAgaSA6YiCIyesgGURaUBabKGCgEZk0mV09/GEcRzzlOe2dex9D+613Nr3P3j9jrtnXTUj/oVXeDDqsWTEn9CNuPujIIvU4OxwCJDvb172x0RUUNs+odWn40rbWtaU06IVIBVto0zGOLMrfe43zxU0xFui0JwcMiRR8nSax+3XLQp4uTMev2V2KKqxbeXSxLFDUlqxOiKaSVNxTg0OjwyMSNKf2pSLoe6SqpFeJu4VOfL0U8Ywm6CYvi7Jf3Nr3P3j9jrtnXS9v8A7rXc2u5uDfDJ4ZPkx+JH4KetwUKrkHER1w0BdaDnKAKanLb0bzcva1L9c1DKXenp+leKf3pqNo9Wq7fXWlaVrSujwW8Wy8i7BECGjsbQkResswyk1hhgyOz3IlX6Grxgzdyl1jFAmrUxk4EPZHN9NqQc4lmOrkcv0wiqmoAB0zSsXdp4crGhsJNu23wFTIOVG2pJvhk8MnyY/Ej8FPnuM7Sb0UZfaMp24DpdtQaErjUO4ztDk3vt9Rig2gcNS69PPmNV8VZGKHDZHVN6bUS7Z2FQljqvSIL/AFhEI1Jt+ghW3mmoyl9F7pXV/wDndw6hKmJp1SheZJlCPtAqw/LkJmX20R/60r6VqMdTCO4EZxpndej7lDDzLZl2a2TSTUbAtPF6hBI4SQQdgIg4iZTq1g1rQqZyBF2ISHE26wemMcZhnKpvRRl9oynbgOl21BoSuNQ7jO0OTe+31GK7cB124DwB5wvD38YRxHPOU4zzisbK8KWbUmB0KizyuMc4IWHthaNsPW+k5dLThb6E1rykqkvb9ScerSt7n6X/AOd3Kw6RNv0rFMF/61HjWVsgwv6BkcjZSaMkR4FIsjKkodF0CFB6hBIWIUVcgUra1q2OiYTta4kOEpfXhSiOoFtpylOFUVVZXslOEZriIxttyK7Q+a24+kIqd6Lkgnfp7+MI4jnnKc+yNmiGsAVBVdL3tz0CcU4lJileyNmnJBJoQtXC97c9NBCh16ipW6/Bah9CMhxqFSi0W9JtObLKgyj7GnOn9aVeFl0RrPrVXLsSNvWCa31dqqRWibu5mrfaFb4Bl559Kgi7d8/H+laI7T85EU9Va7QMzaL2oZvGp6pSbEeTYcKuW+jNrgZb9Y5QhAKn2yW3bFlR3io0lB2/YkasuSUwV1VAwjt7ZLXG+I5dl2SLqLxJKi1ErKLbv4pfFcngSVvg7+3zeBssvS97c9AnFOJSYpXsjZpyQSaELVwve3PXvbnwb4ZPDJ8mPxI/BT4jP8vVaUrStK7ktuasTXMmURb1a2uIatXSn6J8U6a/0tJssY/T0rtnZYm7Zfc211DbW5rRogB+OZRKHQCfD6jF9tGRCt0tuRVWEUT24Ovu+EoerWDAJ473cSJjQyDjuPFG3zCwOW7kFVqW3RpylBgt9ZBvQYbXHGze72bOZNVwxxJo+rpk+TH4kfgp89edoQspUpBNTog9OiCAwCyqHXnaZlLyyb7CuiD0+/sun6XrztMdalBLVX3Cxpph2Y5E2s7r+tllfw2+uPtWe4nfX8p0hQlklaFWT9W5PT7b6jI3a2XvNScZOzfdmCxNi3ZY4cLJAtK72CztWgu6dJWlaRVfJF19EJVnywY/GU3HV2NCX1vnxV/RB6dEEBgFlUOvO0zKXlk32FdEHrog+APOF4e/jCOI55ynEm/icRzwVNbvUqJZmPrRxu9UR/wirpRhyJCHav5SFH7/ALshpgr6gaeqeoPrrZY7loLzltQ3LSVrGyzjxyoXuKwmkpfW27dBhuy+llsTnzFNEb1mXdNkINih98QQ2sxNWIYlANK09/GEcRzzlPwN8Mnhk+TH4kfgp8Rn+XxJPNs1vIiLsjLWmXJDvJqNLLbxXAUv0pZw+0uoGmpbGHdOQRlkerPxPst93us0nRBlMdAF3FyDXFURTw/Bn3I8v7baWLZljBAay87LOz4BJhRLxuwHbi8cCJBNps73gSX/AEB8e7UJu/yKx7yWujYg2rJJ6ZPkx+JH4KfPWh6IXEvFXss6A7TWOsMciqv1oenpRMwWxMboDtMf7HqOq60PTyneWTZeKj7haNeGRN9sOJ5mjeQBkfbxknG/3SiRnYtClKaSfBbv/Y4GBEgrWWbZH+j3hSM1u/F2/odfq1GMKj5PyfkwcrO2MW3FcnAbWrHsBi0AjgyUWa10BQUUV+tD0vV1oQtcPVR+rrrQ9ELiXir2WdAdprHWGORVX60PT0omYLYmN0B2ugO4A84Xh7+MI4jnnKcSb+JxHPBU4eqUo5r00I5FhV/05nt5xRkFGhxr5sfOtVvqwTbavOoPFHaSFbIJFRVllscv/F9spYYnWmG6UQzNnEfW8RkouwRR8twg/wBsmxLDXKj38mRwF4Y3IHnC8PfxhHEc85Tn2Rz0O1nDLJLq+9tmjjhnEZQUX2Rz03IKtC1y5nvbZpz/AN4+10PsjnptXSaELkDfe2zRwJTiUoUL7I56HdABUEkFfe2zRMYUcwHJqcNsDoVBs60YT/xkNn9Y9+sa31H3JZfF1ubEtJwy8q12cv8A64qPEKOBKcSlChfZHPQ7oAKgkgr722a9kc9DtZwyyS6vvbZo44ZxGUFF9kc9NyCrQtcuZ722a97bODfDJ4ZPkx+JH4KfEZ/l8SPzk+GT4wfg/wA4rnca2FY1z7bIwG1zDdmwJyE/B/T+oWy/WXJnKsX57l7rHlf+4DNV6Q1+JMZLYlx6ixnsnxg/B/nFcm+GTwyfJj8SPwU+e4wdXPAhdlwyfbh2kW5ZoVtNX7jB0UUm+J9ON24doX/j/wBfVdxg6JGvfb6EjduHaQckGhK0JfuMHSjKUZfcSn24druMHW8KOoSaBt8pDwjupiEWhTLFpYx50xBILbKgDu7a4J0vA0Y9Ch21rdI8qwhspdR33EzGJTmdIu8YGXcHYMYgK+POCl1br0HJBoStCX7jB0oylGX3Ep9uHa7jB1c8CF2XDJ9uHaRblmhW01fuMHRRSb4n043bh2u3DuAPOF4e/jCOI55ynEm/icRzwVOHv5MjgLwxuSmhtkba4x90kmyA2yt6sZcdo+aQ61ogrttzeNd63WYHzx/hantnzsddT1A2g5mMrT7uPNobLFzxnedtJXUokr109/JkcBeGNyB5wvD38YRxHPOU/ADzheHv4wjiOecpxJv4nEc8FTh7+TI4C8MbkDzheHSt47avenR1caaYzSiir01tSRRROgtLK/rX1rHPBU4e/kyOAvDG5A84Xh7+MI4jnnKc/wD/xABMEAACAQMABAgLBgQDBgYDAAABAgMABBEFEBIhEyIxQVFTstEGMkJhYnGCkZKisRQgI1Jzo3KBweEVVKEHJDA0Q8IWRGNkg7N0k9L/2gAIAQEACT8Arqn+mr0+ydXXDsnV6H9dXUjtHV6faOrrn7WsZZo2AHnIrwh0ZouM/wCZuEjJ9W2RmvCqW9nTPEtrWaQdgLVnp+XzpaRjtSirXT0IznL2qf8AZIa8LzaSHybuCWED2nQLWmrHSds+ziW0mSZRjPKUJGrqR2jq9PtHV1z9rX1T/TV6fZOrrh2TruYvjFTxPI0TKqqwJJIwABVrN8BqJ4412su6lVGQQMk1cxfGKYTOJQSsZ2yBg78CrWb4DX4O3sbPCcTOM5xmrmL4xSNMgiCloxtgEE7sirWb4DUqRyLtZRyFYZYkZBq5i+MVBKyNKzKyqSCCcgg1C0Y52kBUD31I+ntKpkGGycCCNuiSetIx6Dsm/wCjo4FJfanOXp57u8uHAyxaaWV29eSxNR22grV/88Sbgj9FMke1XhvcO/8A6NgqdqQ14cTo3RNYB+zLV/onSqcyLK1tMfZmAWtG6W0HdIcRXabcI9iaI4NINP6N53bEV6g/UG5/brSC3UaKI7i2I2J4H5dmROY1azfA1SpHIu1lHIVhliRkGrmL4xUErI0rMrKpIIJyCDVrN8Bq5i+MVPE8jRMqqrAkkjAAFWs3wGonjjXay7qVUZBAyTVzF8YphM4lBKxnbIGDvwKtZvgNWs3wHV1ydrV6HaGrqT2hq9P+mrrj2Rq9DsikLOeQCrv7TpcQJwWjLUh5z535o085q1Oi/BskpKsTmC0A6Li4O+Y9KCvCF9J3K8llCTBG7/kSNOO9eB2i/A7wUsBJAL5IuPOC378gqw4XSJXEuk7nEl0/8J5Ix5lpt9KaArFRRywSKVeKRQ6ODzMpyDUf/h/SZyQbcbVnIfTh8j2KL6P0lGMo6kyWl9B9JIzWLbS1sAL/AEezZeIny06YzzGvQ7I1dUn019cna1eh2hq6k9oa7f5176h2Y43V3O0DhVOScA1cfI3dUm3M+NlcFc7Jyd5wKt/nXvpeDjZCgOQ3GJBxxc9FXHyN3V+LwW1t+TjaxjxsdFW/zr303BSM5cDBbikAZ4ueirj5G7qj24XxstkLnAwdxwalR/CWWMG+vcBxYI4yAOmU1NOYp/8AelsbiQiacHfw1453gGkTRmhbCA8eJBEeDTyYUG5AaWQaGdi+jNGEkG5TmZ+iHt1FHDBCgSKKNQiIijAVVG4AVuH34uKcvbXKj8W1m5pIz2hz1N9m0to2TKSDJgu7d+3FIKwlwcQ6Qsi427a4Ub17jzirf5176m2ZI0CONljhlGCMgVcfI3dVv8699Q7Mcbq7naBwqnJOAauPkbuqTbmfGyuCudk5O84FW/zr30vBxshQHIbjEg44ueirj5G7quPkbu1dU/01en2Tq64dk6vQ/rq6kdo6kB/w+ylljRuR5WYrEh8zOQK0/AXtbkzwWkoM897fSnbMpiQElErRekDotDktK6RSTv8AmK8arU2/g1opBf6QhdwZLwoQscRx5BalVERQqqowFA3AADkA1Cr+0tNvxPtEyQ7Xq2yM0QysMqykMrDpBG4j7t/FZWERAMkmSWY8ioq5LseYCoNLwaZsMvo7SD2iCJ+mB8SF9h6mKaG0o6Wek0J4oVzhJvXEdXXP2tfVP9NXp9k6uuHZOuOb3DvpJQ8ymNSwAAL7hnBqSH3nupkaOPOQhJY7XF3ZA6ajm9w76BV0PCEybhgbubPTUkPvPdXH4bGzwe/Gxy5zjpqOb3DvohUVeDIk3HI382emriOPR2j7d7icjJOIxnGDjJPMOc1LNFowTY0fomIng4x5GQPHlNaRbRFkQHFhEQlwf1nbIj/hALV4D2d3JHyXFzCJifbudtqtUs7XS4vgbePxEWaD7WFHtLXIK56dH09sj7XeEB1sdvkRBzzVAYnuuP8AadMXJSaX2DtvV7ay6IlSJ7OKC4M6pPnjlAQCn3dLXNtorRguHktrbAknmmK4O22QoUCtI6W0ddAcSR5EuovbQhKhVoJ8m0vYctBcKPynmYc6mi8l0kH2G6YYLcNa5jJbzuAGp4gkzGRQxOQH3jOBUkPvPdUc3uHfSSh5lMalgAAX3DODUkPvPdTI0cechCSx2uLuyB01HN7h30CroeEJk3DA3c2empIfee6pIfee7V1ydrV6HaGrqT2hq9P+mrrj2RUmDpm/LzenBZAOV+NlqESCynNropGGcSqAXlX0+MFSpDgE8FCDxIh0AdPSdXJo20upT7NuLbtPqj2zYaPuroJ+YwRFwP8ASk+13d1dSvo1ZxnMu1mW7b2tyUck/wDAiD3Bgeexbnju4QWjI7Jo/wDJXttfxg/+5Qo//wBVdUn019cna1eh2hq6k9oa7v8Ab/vVxt8D+Js7GM7HGxnNWn7n9qi4LhfL2trGzxuTA6Ku/wBv+9Pw23+Hs42MZ35zv6KtP3P7V+BwHt7W37uirv8Ab/vURuHk/EBB2OXdjn6KuopZdHaOlNzFG4cwS3DjivRws0F3fzedpLl1XV0ihnhrtLSFv1HaZ9QBUgggjIIO4gg1bxW9rAgjhhiQRxxoORVVdwGrk6aCrpHQOn7q0dQMFrR3L2smPOm7VymrwXVk8skQkCshDwnZZSrgEanMd2bO4Fu4GSs3BnYI9RpgbmSNYb5R5N1BxZfiPGFHYgNrpCIeu1uwgq32+B/D29vG1sbs4xVp+5/arv8Ab/vVxt8D+Js7GM7HGxnNWn7n9qi4LhfL2trGzxuTA6Ku/wBv+9Pw23+Hs42MZ35zv6KtP3P7Vafuf21dU/01en2Tq64dk6vQ/rqlR/CSSLYu7wccWCH6zUZpDcyyE3EhLGWTOXJY72OTvNTxQQDQ88QklcRrmK8mB3tWl7GeTmSOdGY+oA0OMFb34rx59OXTP7EUS/dIG6oHm0FpyBdGafii3kSxD8OX+LAq7jurG7jEkE8Z4rqfoRyEHeDXMwNERrLpWe70UTzty7H/AMkWGGqRI9nB47BO0RWkrWXQGnrwXOj3imSSK3u5eOsRK/BVkLqAaYv4bqDkdoLiTLFPTq8F3ou+BkWQcsbk8ZHHMQdxGvqn+mr0+ydXXDsnXHD7j30kQSZhGxUHID7jjJqSb3jupnaSPGA5BXjcXfgDpqOH3HvoKiIvCAx7jkbufPTUk3vHdQ2zOSCJN/icmMY6aljPhXpOEmEJvFlCdxncdipZWtxKXuZ3YtJNIx2iNo8rNzmolRLBTtbIwqlwMIKUQaGttuKC8v5XS3XLZdYFwSfZFaW0ZpSeJCxtEDwSv+mXGCaeV0aUwwmfIlt5lOOCfa34J3YPIaPG0dpZbyEdMVyNj/sH3OTO+jEujjfTGwjubFHt3ti34fByqASMVY6LEF68YeKytHeaZkYMoG20lKYrye7mu/sxOTbJMFAjPQd2SNReO+0WYo754vHVI2zBcj9M7jRjTTFlsJpS1HNJzSoOrkq+sLywurl5YZLm5Mc0ayHOzKGBq/h0lf2ziW3s7cEWsUq8juz4MhFECU300ig+UQgbFCWXwcv5NjSdpymJuTh4x+dKu2ntLmJZoJY3VkeOQbSspxvBFRw+499JEEmYRsVByA+44yakm947qZ2kjxgOQV43F34A6ajh9x76CoiLwgMe45G7nz01JN7x3VJN7x3auuTtavQ7Q1dSe0NXGjsI2EEAODPPLuSNfOTU5kvr+Uy3EnkQxDcAo5kQcVRSBIIgAB09JPSTTMLe+v5Zrthyi2hzLIB0EqMCreDRNjonRBvb/STBYorW2iyI7W2yCOEISpbzTXg7POIpXuYuMOkwT4HHH5aMbWPhDZQaSikXckk8RGX9sYarJxaXei5o7uSJCLeEgoYlz7H3QHjPKjAMp/katbeBjymKJIz71A1xJLBMjRyxONpJEcYZWB5QRReTQV27C3D5KMjb5LKc9k1LmCXizQsfxbaYeNFIOkauRL68X4GEdJ+Kg/3lR5Sjy/WOernME5d9CyufEfle29rlShh0ODXXJ2tXodoaupPaGu3+du+odmSNC6HaY4ZRkHBNXHyL3VJtwvnaXAXOyMjeMGrf5276XgpGcITktxSCccbPRVx4x3nZXcBynkqbOh/B93iOOSa95JX9jxBS4vLkB5ulR5KfyrxQwrcZxpC0X+MxsRWSwsY/gE6F6RUtLjwftURuquGiEgn9YkOa0TbS6R0alzCUuYo7jggJ3CFCwO4oBSJHEvixooRB6guB/wAD3arUXFhdpsyJyMpHI6HmdTvBq+M4fTNvYXMXLHeW07DYLpzOEejxdvl8wNbxdXk8oP8A+RO0lAEc4PIRUjw4kW5spkOGidG2hg9KGok/xBV+y6RjUkcHdQjj7hzNkMtQ7MkaF0O0xwyjIOCauPkXuqTbhfO0uAudkZG8YNW/zt30vBSM4QnJbikE442eirj5F7quPkXu1dU/01en2Tq64dk0wF/KgtNGjpuJtyH2d71mSK2/HmLb9uQnig+s76O9uXUdieO4hvrdubhYWBI94ocLorTlhJFPFnjR8KpSWE9DoakaRLO1ht1d/GZYUCAnHOcf8FQbix0bPNAGGV4UDCEjnAJplP27R0EspTkE2ziVfZcEVcw2lrGMvPcSLDGo87OQKtX0/pAtsLIMxWgfty1FHZzyyz3MNlICJ2lnQorFP+kkYPFDU2y1nou4eL9VkKR/MRQwZrjH8o17zqXM8OZYenK8q+0Kmxo7whQQjoS8iyYj7e9K6p/pq9PsnV1w7J13U3xmp5WRpUVlZyQQTggiraL4BUSRSLs4dFCsMsAcEVdTfGadpkERYLIdsAgjfg02LbRVt9ruUH+YufEHsJQxLdfjv/CfEHurn1EC4jO3Ax/NzqfM1W/2rRs0mb3RkxKcceXGfIkrRumzd43WhhiGW/V26kNp4JWCTi4tIlAtg0iERQhuWSXJDE/eBFadttH6Vs5jFLaX5+yPnmKGTCurDepBrE9hpC0ltpTCwfMcylSVK53jORXh9BZWBkJCR3V3B7ZjWMgNX+0G8vyPIjWW4f2ZLk1Jo7R90F/57SE6zXr/AKfdGtaJe70hezCCHSF4nO3PFCe09aVm0hpPStyHvbqY5edbX8WV/MpkICChhhCHcelJxz9dbmGSKeO8tHXlRg22pH8LCnIttLWsDywqxKK7ePGR5jlTVtF8AqJIpF2cOihWGWAOCKupvjNO0yCIsFkO2AQRvwatovgFW0XwDV1ydrV6HaGrcBCcno3inLppTS7iFui3DbEfuQUAFwFUdCr9yIiUDCzIdmQd4q5M0c+3jKbJXYxuPvqNIzGbuOcLzzLO2WaunVKkiB3QshyA8bFGX1qRgjXoD/GBbTD7XFwpjMFvjjTYUEsBUximntQ1jpWAAyKnVTJ5YQ7itImlIOabR1xwUvtROUaovDC02en7Wgq403OJvBG/FuLpp3H2jihNjb8uvBi7tEY8e50iDaRr5zwuGNSjSGn7lNia+K4SJDyxQA8i9LVJwmi7FxYWpHIYbckyye22aGsb4pDE/wDC+8f6inzLoPS6vEOiC6/FHzB9XodoaupPaH3Oqf6avT7J1HYlt9EXRhboldCkfzGhutoJJP5kbA7Vc277oy9o4l9g7mqTjxSppO1HSj4hmrnGpyngn4Yyi8tbg+JZaROEm9lzvehvGrBzyg7wQeY0Fm8C9Kz7b6PmUyW1rO3LF0x+g4rwc0nZzc5tXju4/nMRq/0tF5jZt/Rqv9LSnmAsm/q1RSxcLEknBzLsSJtjOy678MOcVNjTmmUeC1weNBBySz/0Slw842IR0Rg729o/c5Vi4QeuI7VNiHSehnPrltnBHysa5QSPdXp9k6uuHZOu5i+MVPE8jRMqqrAkkjAAFWs3wGonjjXay7qVUZBAyTVzF8YqQYvbmytlI/XEh7FDxUiQe0Sx+lc/3QCCMEHkINFjYwzAXCDeWs7kbMi+yDkVIskToskUinKujDIYHoI1cTb/ABLW5Ay1tcKOLIPow5xTfZ9M2REWi76Q8S8h8iMuf2moYI1W0VzazoUmgmQSRyKeZlbIIq00howuckWV1xPhmElaU8IJR0GeBfpFWgEe+iIaO6u5HupEYcjKH4oNXIhsbVCzt5Tt5MaDndzuArivOdmGEHK28CbkiX1CiBEqKmxzxlRjZP3OSSN0PtDFHAlmuLdx+tA6VbylDIxUhCQQTUTxxrtZd1KqMggZJq5i+MUwmcSglYztkDB34FWs3wGrWb4Dq65O1q9DtDV/1fCG3H7U5rnuEX3L90gKBkknAApRczdYd0S//wBVI0sjkbbn3AeYVdBNKWIK6LeQ/wDNW3U/qRUN2oi10ragnR9+BviPVv0xNVlc/wC7YSDSqgyycFzM/XxdDir+3v7KTxZ7dxInqOOQ9IOsE1djTGllyBZWThlRuiabeqVMogjcm0sIeJbW/e3S5qb/AHwcba8g+j6vPWUkU7MsL+K4HMw+ho7LrjhYT4yH+o6Dr6RXN4SWifFME1eh2hq6k9oa7f5176h2Y43V3O0DhVOScA1cfI3dUm3M+NlcFc7Jyd5wKt/nXvoYeLwit/8AWGev82nY+43DXPNAh3j+M+TW0UJytvFuQedu80+23VIcKPWeeoIxAwwYwuFIp3EZYPBKDhkZd+MjkYVoM+F+h7GcW0xeMy3kZ2dvGYTwp/jINf7PdN6PccoR9v8A0lSOtFzwXjseHuNJRI3AjmESI7AmpVvbPJaIXWjYE4InnikWNWStLXej7jne3lKbQHM4G5h5jVvovSohTalmms2DheljblBWjdBW7NyFLeWV/nkNJpuTRgQvJwgGi7ARgZJctwUZAopK6yFAYTwiuQccQjxhVoseRkRySBXb+XfQfCk7Ibxo2Xcy0yrOo4knMw/K1FoLmP3Ef1U0oSeMhZo+gnkI8x1dIrn8KLJvdcA1Lssp3rssfoKk25nxsrgrnZOTvOBVv8699LwcbIUByG4xIOOLnoq4+Ru6rj5G7tXVP9NXp9k6v/I6Rspz7T8F/wB9fmhk7Q1TLFHnAzvLHoUc5pGt4juMzH8UjzflotFbk52z47/wg/Wogi8/S3nJ56cZ6BvNLsjpO80NsNy5rSJThABcWsg24Z1XkEic9aDudG3PlzWw+0wf0daxLo0yA2vEKB47WERo2GAO8jNFmHPzg1a/Z5T/ANWAbB/mBuNaQuA8XiXVoSsijnWROdTzjeK8FtDaQuutgga1nf1iGoxoPR7yRhrFeEAkduR5i+96jMlzs8e4ccb1L+UUQKGyl3Fb3AHnlTZf5gaORzqeQ0AJYELofKUjm9RrxBCin1s2Rq5FUsf5DNDOL57g/wDwRPNXWEe7dXp9k6uuHZOuOb3DvpJQ8ymNSwAAL7hnBqSH3nupkaOPOQhJY7XF3ZA6ajm9w76jcumipZwDztbfjqB8FHdPbMB61IfUTwYtQUHNksc0Vl2t6R+SuDjjdJrJYjcBR2F6By/djDdB5CPUaJKm2l2SfOAdTlF5yF2jV3bRjHLcxuWz6wcVPCt3d2LFZS6qj7gyYO4DIWrlJr22ExmeJxJwaOwKJtDnGCatGRxjjyO77fnO0cGlRSeZBsivGGjoi3qEjkajvdlT+poYe6kMnsrxV1HBFu6j1vxR9aXiaL0RcTe3KVhHaNSQ8ZieU859VMjRx5yEJLHa4u7IHTUc3uHfQKuh4QmTcMDdzZ6akh957qkh957tXXJ2tXodoakDwzW7LIh5GU8Ug+sGs7eidKzWshPOkbmMt6iNQ328mw/8EncaP/qx/RhXMSPf9/dGsnByn0G3H/Q1zNqJLyDNvaKcSz+c/lTpavCK10YLKWC2S2hgE8gXGRlCyYj6Go6Xe+5tKCUZD/oDiFK0qbjQaTrBFeRXCyRlnyUBgl4ykgVovRU23GJEim+zCZlYZG4EVbNaaQRBDwDRmIRbI2VAU82re7tuHpOdkV4kMaxr6lGNR41xNkj0It/1IpMG/wBIwWMP8Ft3mXV6HaGrqT2hru/2/wC9XG3wP4mzsYzscbGc1afuf2qLguF8va2sbPG5MDoq7/b/AL0/DB/wyuNjGd+efopMWfhBZpMG/wDcWwEUg7Jo5kVeCl/jj3f6jfXizRsnqJ5D/I0NkxS7Eg83isK5t/u+6QSOUA8moZZeOPZrSRgu4bdYZohC8juYtyuMDG8VoaW4vp3EcElwBJIWP5IV3e8mpRpbSsvGNozF4Iv1D5bfKK4WTQF7yp11jIcSRfqQ14XvomC0m+0GSEuEnjlClJVMZGXXlWt80vhBaoX53xBNQwI40T4VAqBH0naoZru6HjwwSDiQHtahmK2Bk+Hir/rrO0lqohUDfl+Vv9TiuJPYWq3N2mN7XMmZpV+NiKtP3P7VFwXC+XtbWNnjcmB0Vd/t/wB6fhtv8PZxsYzvznf0Vafuf2q0/c/tq6p/pq9PsnV1w7JqLb0roBvt1t0ukQxIntJTfh3QzH5pV7xqGIrteEH8Y3PRyWi2G9a8U/d5TIuD0HLVzHUGBJ4sYbALVCDpXSsW3G5G+C1bxFX9TlOqPa0hZZu7HpLoOPH7a1Nm70K4SLpNpNkx/AcrXjXnhTB2Cn/fWDFbA8HH10rHEcY9ZqQyX9/M087npY5wOgCvGxsr62oca5lwP4I9311eMi4jHTI25RSGSw0U3+J3xPI3BNmNPbeuqf6avT7J1dcOydccPuPfSRBJmEbFQcgPuOMmpJveO6mdpI8YDkFeNxd+AOmo4fce+gqIi8IDHuORu589NPIdpdllYggj3Uhj0Xeub7RTjkRGbJiH6TVgOeLKo8mQcooce1lV/ZfitR3xTbQ9TjvFfmP3P80BX5jqwWjJ4p8oGm/xDRseALK7JzGo5oZOVKvfsN+3/krwiNyeiN/FegVYHNEw6C0ucy8ypbXrYf8A/TIM0MmGa90jMP0QpQ++M1Lt6G0NIwDDxbm75GfzheRdW9iRu6XfcBW9YY1QefZG81fQRN+VnG17hvqTbtIBtbQyA8h5Tv6KSNtM+EGxe3HOEhx+DH7KmkiCTMI2Kg5AfccZNSTe8d1M7SR4wHIK8bi78AdNRw+499BURF4QGPccjdz56akm947qkm947tXXJ2tXodoaupPaGoIumrTautFSk4xMnLGfQkqKSJRK0F5A4IeJ4zsnI5mQ0Qyz2zhCN4OVypFckkGf5oa51B1uGAODjmNf5sdmvzHXEHHnG8eo020PyPuP8jV+89qnJZ3o4eL2SeMvsmtDSWWmbGctFLE4lgeKUYkQ5wy02dJw+DsWgLW5BO0luCduT9Qrxc1PENkb+MN55zU6sR5KnJNQGZkLOkYOBt8i5PQKmaNXICwW4I2ieQbt7VoptC6Ofe15pEGE+xCeO9eExvtIxJk2l3CIEn8yODxKeWLRekLp7QW8/LYaRzgbPRttxGWhhkuEU/ybV6HaGrqT2hrt/nbvqHZkjQuh2mOGUZBwTVx8i91SbcL52lwFzsjI3jBq3+du+l4KRnCE5LcUgnHGz0VcfIvdTbbw44M+LjbznxcdFWuZ4kzpm1jG+REH/NIO3Un4DNiCU+QT5J9E1u2biaH6iudSPcdUgRc4BNOUU+4nn3HmqNJeGYMdo4ww56gDyMdyRxtI3uFeCOnXQ8jiwkRPiZQK8GLpF6Zry2g7UgqwtIv1NIIexmotF+r7bWgrW5/SvoB2yteCl/a2sABmuAgmhjBOMs8RYCrWWRN42gN3vNQmN9na2TjkqDR01pc6PS+giS6zPJE6cIAFx49aUktLGwiimlhhH49wJWKYQnIUDnNWWj9DpgpHMUM17csPJRjtSPXgNLbaCJ4umNNXH2VZP0YIlkaSijSYG0VBVSfMCTQMA0xbLOHTdi8siEYj5DUYE95o5J3IJwlwg2ZF9lwRVx8i91SbcL52lwFzsjI3jBq3+du+l4KRnCE5LcUgnHGz0VcfIvdVx8i92rqn+mr0+ydXXDsnV6H9aGQatC+gpGMl/YxDJsDzyIOo7FMSRcRkk+uuZmGq2jmQHIDDePVVhCvriU1oWwv7R9CSTW0V1AkyRzI8RyqyVZ29rEBujgiWJB/JQPvDOdCXbAeeGPhB2aYDjycp9KjniOjH1HIp8vFbS2reb7LM8QobFrpFLtoFG5Qk8Yv0ArwGbwv8IUEcVpZ3N6I4I0XoW5fgUX2Sa/2YaEtrXkCPpdMgeuParQtno2cY2Utr03qn1sY4sUBwuitKRk/o3IMTfMVp8vom7MsXow3qFu2javT7J1dcOydd1N8ZqeVkaVFZWckEE4IIq2i+AVEkUi7OHRQrDLAHBFXU3xmnaZBEWCyHbAII34NW0XwCvwdvb2uD4mcYxnFXU3xmiZcyFTt8bK4G7fzVZpaWCvaTwwR7kQzQpI4X2q/OfuHCXcdzbP7cD4+/ySaJv099u1czNXNL9RRy9jpuXA6I54ketwvbazjc9LSSy21DRJ0mQmP8TaUQKOckQAsxq5/2dSJ0Ml+laJ0FGuN9zo2+nlBP6U8CdqgDFFoaVx+pERIvzCh+CV0bF6z+NVtF8AqJIpF2cOihWGWAOCKupvjNO0yCIsFkO2AQRvwatovgFW0XwDV1ydrV6HaGrqT2hq9P+mrrj2RXl6Nsm+WucZ/0H3G2UttNWjSH0BKu398Z4W2nTH8cRFc0jfQVzSKa5ZIbC5X2C6GtJQTyaKEMt5wUomaDgbvbw4SvCwOCxwEsronsVpbSb/p2D/1IqfSJRFDE3FncWowehpFCt7Jq4B0vpoxm5QHjQWaMHJf9UikKXen78XuDyiF8JF8i7er0O0NXUntD7nVP9NXp9k6uuHZOr0P66upH1NWkj6IvNFw20lyoykVxEzcV+jINSGaJRgK5yQPMabZf8jbjrJDRyggjmo5W/wBH210o/XjV/vcjMg94AqRUa3vZYsH/ANNiv9KZmYkYOzgbj5600+ihPaSy3dyC5AgixkMqFdqtMaZ0hJzuksdvEfZCE1HcyaShk/Gsrm5BFxE35HkwA6V/sn0eDEgQ3EGhRPK/neW2bjGvBvSejyeeHRP2f9y5qcQWpmE9zbNci6vL1uiR0JCqajWOOO3ZERAFVVVcAADkA1en2Tq64dk67mL4xU8TyNEyqqsCSSMAAVazfAaieONdrLupVRkEDJNXMXximEziUErGdsgYO/Aq1m+A1+Dt7GzwnEzjOcZq5i+MUjTIIgpaMbYBBO7IrR5ubSRSrwyxFlKnlGCOSoP/AAxpV+e1wIvbtjhfhxWj/wDEtEpvGkbAGVFXplTxo6cSp0P30jxn4hU6ltxC7wTg02Z7JZrGTzfZpCE+T73oGtNSaOg0RpyfIigEzyie4lGASwC42KuLyeyu9FpcrLdFC5l23jccQCvB9Ybi9sLc3d+A0ss5dAxy7ZNSpFIu1lHIVhlid4NXMXxijc8E0jFCoYqQTuIr7V8J7quYvjFTxPI0TKqqwJJIwABVrN8BqJ4412su6lVGQQMk1cxfGKYTOJQSsZ2yBg78CrWb4DVrN8B1dcna1eh2hq6k9oavT/pq649kavR7Ip8p+Rt4rQg0ffzoHN3o4/ZpMvzkAFH9oV4ZQunNFe2pQj24ia0voe7g0dGsskFq8zSlC4QkBkFP/wAteQ30Q6Rcpwb9j73PGP8AQ1z6TST9+WuW2vLixf1XCCVOwabaY6LhglPTLaDgH+ZK9DsjV1SfTX1ydrV6HaGrqT2hrt/nXvqHZjjdXc7QOFU5JwDVx8jd1Sbcz42VwVzsnJ3nAq3+de+l4ONkKA5DcYkHHFz0VcfI3dX4vBbW35ONrGPGx0Vb/OvfTcFIzlwMFuKQBni56KuPkbuqPbhfGy2QudkYO44NW/zr31NsyRoEcbLHDKMEZAq4+Ru6rfFlpGxns7jBU8SdCpriPdreaHuRzLNCdsfPF97nDLX/AFoOH/eib/vpf+VvrCdT0Ey8F9HqXCWOnZ4ovMk0aS1HtwvjZbIXOyMHccGrf5176m2ZI0CONljhlGCMgVcfI3dVv8699Q7Mcbq7naBwqnJOAauPkbuqTbmfGyuCudk5O84FW/zr30vBxshQHIbjEg44ueirj5G7quPkbu1dU/01en2Tq64dk6vQ/rq6kdo6vT7R1dc/a1pgXM1npu2/VjfEnvdKk27W8t47iFvzRyqHU+4/d8mT61cx21zfWdqheSFJwYpoInOBJ50qLT2l7dyMJwZtrAdiEVcRz6Wvb1r+9MRykbsgQRr0hQK9PtHV1z9rX1T/AE1en2Tq64dk645vcO+klDzKY1LAAAvuGcGpIfee6mRo485CEljtcXdkDpqOb3DvoFXQ8ITJuGBu5s9NSQ+891cfhsbPB78bHLnOOmo5vcO+iFRV4MiTccjfzZ6akh957qV2kjzkoAV43G3ZI6ajm9w76eIJMxkUMTkB94zgVJD7z3VHN7h31E/DaBvRHcZ/y17hO2FqDSMc+jozAt9FEJ4TCGJjyAdsFVrw00SC3IlxN9kf4Z9g1e29yh8uGVZB8pOrG7nZhGo/m1eF+hrYDfwK3aSv8ERZqvXurcaMggnlaFoQZoWbeofBI2alSKN4ImIcEMDIgfduPM1TRMx5SWYn6UrtJHnJQArxuNuyR01HN7h308QSZjIoYnID7xnAqSH3nuqOb3DvpJQ8ymNSwAAL7hnBqSH3nupkaOPOQhJY7XF3ZA6ajm9w76BV0PCEybhgbubPTUkPvPdUkPvPdq65O1q9DtDV1J7Q1en/AE1dceyNXodkauqT6a0L2GlbV7ScKcMBKMBlO/DDmNeF8Tp5EGkYCnvlhrRujr/z297GB+/sV4F3WR1dxbv2JK8FNLAfroB268EZ/XNe2y9qWrPRdl+veA//AEh60xBpOSBhJHo62Ui2Lr1jPxpRQ2Q05wPMFA1eh2Rq6pPpr65O1q9DtDV1J7Q+51ydrV6HaGrqT2hq9P8Apq649kavQ7I1dUn019cna1OVcbPGH8Qq6epS6CInBAxnI1Oyg7ecEjorea649kavQ7I1dUn019cna1eh2hq6k9oa/wD/xAA6EQABAgMDCAgGAQQDAAAAAAABAgMABBEFEiEQEyAxQVFxkSIwMjNSYYHBFCNicqGxQCQ0QoJgc5L/2gAIAQIBAT8A/l6ocnUpNEivnCJ1JNFJpAUlYqk1H8Caf1tpPGCoCLxhmYWyquzaISoLSFJ1Hrn3M02TtOAhR0JB3tNHiOunV9MJ2ARrMFBSAdhyyjThUHE6gYPVjJP4ODzSIlWs64AdQ1xMzDCm1NpxI1bsrc4tpKUhIoNfnCFpcQladR62fNXgNyRDS83LukayQnRkFVbWnca8+tnDWYX6RUwBWHE3FlMBJIJ2CEiqhEkLjryN3V1Chga4kcskz37nHIiHhVDbg1EXTxEMi+28nbQK5Qk0hhJz5VSl5sHqpuYErLOO7QMOJiROYkGlOGpIKuN41hp5LwNNYibFJheSUbadWpK92ETSG2GA2kmpVXGJVYS+muo4H1hlxMo84lYNIbmrzjrhFEJRq8h1VuPlS2mBs6R4nAQ5dCmW1dlKRAQlqYSU9lYI4ERO0z5puGUknJMjOttvjaKKhvBmZ/64s53OyqQdaOj1Ah5z4mbed2XjThqEPmrzB2G7CnTcWK45yo0SKRKEKQ60rslNYGErMnySOZiynLr6kbFp/I6icdzMo8vaEGnE4CGRRHGHCVSks6NgAPEQTUk6CBeUkbyIWDnCkDbSAj4VlRWemsUAheEk79S0jljDDmafbXuUK8IOnba7solHjWOQgCgAizyl+Xcl1HEGo4GBKZpDinaHCidAoW2UkjcQYM4yCVIa6e8whtyZUXXT0BiTE0QJRsAUvuFVOGGRhecYaXtKBXTtpVXpZG4E5GnVsuBaDQiHHjMSbbtKVOI4ZWwFlKSaAqpWJeZDYzTuw0Bh3MFpRTc4ikTc0kozbZrXWRFodH4drwt1Prks5V6UR9JI07UN6fp4WgMsqb8gsbULhWsw8MELGpSfyMDkMuJptLqCAoiiuIj4F/cIYbvvIT5xPOZ2acOwG6PTJZJqw4Ny/wBjTnzW0H/K6PxlsxRK3Wti0fkQsUMN/NYWjanpJ98jL7jJNw4HYYXOPLSRgOEWe3ipw8BDiVIcWlXaBIOSyDg8Pt05zGdmD9Q/Qy2fJlhJcWPmKGrcIm27jiuYhpwtOJWNkTLIQQ4jFCsRkZaW8u6n1MSUkFNKAwAFB90WrLEfOAxGCxksjtPcE6c5/eP/AH+wyWZIlRS8tNVHsJ94l5ZDKcQCojE+0Tkqi+ptWw4GE2eb4qsFO3YYaQwWyGyFIO43hBkGL1aq4VhospBS3Sg1xZtosPTJDSibuCvMGLRl0mq6VQsUVDzRZdW2f8TFkdt7gnTnxSce4j9CJCSL6g4vuwf/AEYkpe4nOKHSOryEOOXcBrh9nOC8O0PzE4otyr6hgQ2qJZczKrC2lU3p2HjCHJefZzt64pPb+mm+LTfzDDUuyeg4KlYPaEWKA1OgDan9EQSFsuIV4TSLSP8AVr4D9RZA78/b76dpik0TvSDFjModaZB1BN4jfjDjlOiMtstj4F9YGNw1jZEshlTMym4vPqbOOsEA1oKRMZ5uSlWq3QsLKgRiRXARZI/rmhDpo2vgYm1X5l4/WRywiyR8p0/VTkNO1k0daVvSRyiwHeg0NylJ54w6Omcs+3nZN5G9BHOE4pHCLKlzjMHaLqPcw6yy+m66gKHnEvZbUi+h4JUK4YqqBEyoJZUYJKiSdZxizE3ZQHxKJ9tO1UVZbXuVTnFiO3VLHhUlUPdocMrgvIUPIw3ZTzj6gvotBRpQ4qGykOSqWJdF0AFNAcj4Bau7yAItVebk3OBySqLks0n6QeenOozko6Nwryxiy13Zm74kke8KN5tpW9NclLzzI33v1kbaQJjD/EVh1N9tSd4gYkQ5i6keEV5xbzlJcJ3kD39obQXHEI8SgOcasNOgOBhgFieQnwuXeeENmsq0fTIgfPa9f1kdK2Xs4NRhtxLqbyYKKTN364QbxUvecOAwi3nKuIT5k8sIs6WcL6XVIIQASCdp6m0m81MtvDUqh9UxLmsonyUcjRBdbIO/9ZCAoEEVEKQ5LKvIOELcvuhYFD7xnGm0gXhgIclkPTGecxoME7K74r1M8xn5ZQHaT0k+kSJvSZP1A8wIJCQSTQQh8tO3k4pBJA4wqadO0DgILqzrWecVhCFuKuoSSYUkoUUkUI6yS7h0biIFNqQRtBicDOZBQgJN7YKaFnmj6vsMTdDMLI6yRPy3v9ck13XqNCV730MTPenrJLsPf65JjuVemhK976RNd56DrGnVNGqTxG+ELStN4Q93S+GhLqCXASaChh9aXF1TqpTrW3FNmqfUQX21tqFaEg4H+HX/AJX/AP/EAEYRAAIBAgMCCAoHBgUFAAAAAAECAwQRAAUSBiEHEBMiMUFRcRQgMDJhcoGRocEzUlOCkrHCIyRAYmOyFTVCk9FDYGRzdP/aAAgBAwEBPwD+MSnZhc4amYDdggg2P8BBFfnnAUnGgYlp1kG7pwQVJU9I8tGmtwMIo8SsjsQ47j5alXcT2nHQMLIrEgdI46mRd6HA8meKj3qfQcVMmhPScQQyq6ueN6UOzMTvOGUoxU9I8rRi0ZPacSLrnjHUBfxaxbOp7R5WlFoVxYYJAxG2tA2LgEDrOGNlOKk64428m8ckTAOpUlVYA7tzC4PtB4oPoU7uJxuGITpZ0PUb4lOmSJvTbDi4xI14gt+hj5LZ7KWzzOaShFwjveQjqjXexxtjNDV7T14pkCxxMsCgdAECiP5YeNoyL4pjeFeKpeRFBXt34p2eWYueoYqF1RG3SN+JFNREjLiDL5KqampIyOVmlCAnou24YIZSVYEEGxB8jwV5WI4KzNZBvduQjP8AKvOfE0jTT1U/+qSVj+I3wSWiN+lSPccUl+S9vGAB0Y6cQHk5HiPeMZKL59lX/wBKn3b8bbZaMvz2V0Fo6kCZe9tzfHyBxlNEMmyHLqG1nWJeU9c85/icFOTaqTrV3X3HCxAlTbcU346PEBvipGl45B03tjZtde0mWL/M7fhQnHCHQ8vlMNWBzqaWx9STcfjbyGzNCMy2gy2lIurTqXHaic9vgMVj65iPq7sZvB4Ln+aQHcDO7Duc6h8DgCwA8RzpUnsGEYBASekYLGolUKOapvjY9OU2lgP2cEre8afnjOKPw/Kq2ltcyQuF9YC6/HA8fgwpRNn81Qw3U9MxB7Gchfyvhm1MW7TfHCDQPTZjT5kg5kyBHP8AOn/IwakyMgTt3+JrRwwv34FPIbKZOb6DhnSBRHH5xxsBCWzatlO/k6ZY/a7A/pwNxvjOKUUWbV9OBYR1EgX1b7vH4L4dGX5xVfXeKMfdBJ/u4sxy6lzWjkpKpNUT9nSpHQw9IxmWWDJ85qaHleUEWmzkabhlDfPA4nJUFgLkDE0Je0kfXhOW1gHVimgbVrcWtjg7g/dMxqrfSzqn+2L/AKuLbiDkdpKlh0SpG4/CAfiPH4Po+S2ULdc1ZI3uAX5ce3cBh2ijm6p4EN/St1+WB0DER85PqniExgcowuOrHhUXTYXxM+iJm9GNk6LwDZ+iQizyJyrd8nOHw4uEeK2a0cv1qbT+Fz/z4+xq6Nksr/nM7H/cI4+ESlV8upKv/XDPo+7IL/pwhuuH/ZzK/U248UkKS2vhKWNGB3nvxWvuCDvOKGeCqo6eeD6KSJWT0Ajo9nFwlJZ8rftEw92nx9lt2zGUD+ix98jcW4bzuAxtltMucTrSUrfucL31fav0au4dWKZ9SAYkQSIVxBLqGhvOHFLKsS3OK2uMUidZJu3q44Pc9HOymV9zXkpj8WX5ji4Sh+wys9jzfEL4+ypvs3lXogP97cW3O1QAlyqjksi7qqUf2D54qqx53GklUU80fM4pKkvGki9Y39+DWcw7udipjq6abTUwyRS2vpdCjWPoOBVS2tYYdZnK3BLMbAdZJ9GNpNls2yegglr4BGJwWj3glSvU1ug4yaulp5IzG5SaBw8Z7jjKswTNMupq1BYSxgkdjDcw9hxwlH93ywf1JfyXx9jH17M5d6BIPdI2Nr9qFyeFqOla9bKnSP8Aoqev1j1YzCqMrmJTdQece04jjvvPRiln5E6W8w/DGzkKVWf5VEwBR6uG46iNQJxnNDk+f0zUtfEWG/RKBz4z2qcZxkWZZBmYoWR5lkI8HdAbTBujT6e0Y4OshiqayqzOsQ8tRPoSBlsY3tfW3pHVjhMaSpyBGYjmVAPvVhhLpPHIvTqF8bDqRs1SE9bSkfjIxwlt/lS/+8/2ePsDJymzyD7OeRfyb5425qJYs8zIm+ozaQewad3wxHHfnHj2GmYbT5ShO7wqO34gMG4vjParNabMMjqJaim/w2KsjBjXmyLIVKhnLdI7sZCmW120mf1wXlWhkpxC6uQoYoQx3Gx3rjhBsuzUt+qRLYhF5o/WGNnIPBshy2P/AMdGPe41n88cJEl8woYvqwFvxNb5ePwbzaqCvg+pOr/jW36ccJVLyec1L/axRSj2DQf7cReYOPIKsUOdZfUk2EVRG5+4wOHFnYek44QM6WaWPKoSCIyJJj/N1LiizCuy6QyUlQ8THp0mwNu0deMz2uzLPaBqKaZHCHXuTSxIBGKGNpqqNFFyTYd53YjjWGNI181FCjuG7G3s3K7RSJ9jDGnvGv8AV4/BzU6Mzq6cndLBqHfGR8jjhOpNRoZ7efHLEfZYj88Q+b7eOJtMqHsYYrdvqanyqBaQmWsMC62YELG1t979OI8wlrK2VpGLa7tc9JN7knv4qQkThwfNBY42PpvCtoaBLXHLoT3KdR+A4toanwvPcxmBuDO6qfQh0j4Dx9lKvwLaHL5CbK8nJHulGj544QKblshEoG+CdG9jXT54C6JJV7GI4gdME57NP58U88hpDqPnEKO4dOIH5OaN+xhgmyk4gGmB262IX3bzjg0puVz0S/ZRSP8ADR+rFbVCio6mqPRDE8n4RfFyxJJuSbk+OrMjBlNmUgg9hGM0lTONk6mdeiai5a3YVGu3sIxMNNXMPb7+JjaCYer+fFCkVTT8i3SPf3jE0LwPocdx6jgSaqPlP6d/hhhoVI/qrv7zvxwWUnMrqi2/TGg+8SxxtxnlFHlU9BDUxvUyuqOiG5RQdRvbut5HYasFfkVXlrnnw61A/pzA/O+KsWrGPag4pAVilBFiLfnxKxQhgbEYV4ayPRIOd2fMYjhEUBiZrqL7/RjkppXJ0Nzjikz6qy/Jny2jJiMspeWUHnFbBQq9g3b8W8jslmoyjPKeR2tDKeSl9Vuv2HGbx8jmTJ9XUvuJGFUsQALk4emE0Ol9zMqhiPRhaOFekFu84WGJehFHsxbEjpEup2CjtOEZZFDKbg9B8mcZjczxMTckHF2G9WKnqIxQPOZ2DyFlK9Zv4mZgmnX1xihv4NGD02P5+UzEftIPvcVF9OO4+JXfQj1hij+hHefKZj58H3uKkNqhPb4lb9B7Rii+h+8fKTQpMtmHcezEkbRMVbFObTx9/iVSM8JCi5uMUsbxR2bpJv5WWFJVs3sPWMClljlQgalDDeP4O38IP+1//9k=;fontColor=#4495D1;fontSize=12;imageBorder=#000000;fontStyle=1" parent="1" vertex="1">
                    <mxGeometry x="147.4" y="611.9999999999999" width="48" height="48" as="geometry"/>
                </mxCell>
                <mxCell id="69" value="&lt;b&gt;&lt;font style=&quot;font-size: 16px&quot;&gt;jenkins_to_aci.sh&lt;/font&gt;&lt;/b&gt;" style="text;html=1;resizable=0;autosize=1;align=center;verticalAlign=middle;points=[];fillColor=none;strokeColor=none;rounded=0;dashed=1;labelBackgroundColor=#FFFFFF;fontSize=12;fontColor=#4495D1;" parent="1" vertex="1">
                    <mxGeometry x="107" y="118.75000000000003" width="143" height="19" as="geometry"/>
                </mxCell>
                <mxCell id="71" value="&lt;b&gt;&lt;font style=&quot;font-size: 16px&quot;&gt;azure_admin.sh&lt;/font&gt;&lt;/b&gt;" style="text;html=1;resizable=0;autosize=1;align=center;verticalAlign=middle;points=[];fillColor=none;strokeColor=none;rounded=0;dashed=1;labelBackgroundColor=#FFFFFF;fontSize=12;fontColor=#4495D1;" parent="1" vertex="1">
                    <mxGeometry x="107" y="305" width="131" height="19" as="geometry"/>
                </mxCell>
                <mxCell id="72" value="&lt;b&gt;&lt;font style=&quot;font-size: 16px&quot;&gt;jenkins_admin.sh&lt;/font&gt;&lt;/b&gt;" style="text;html=1;resizable=0;autosize=1;align=center;verticalAlign=middle;points=[];fillColor=none;strokeColor=none;rounded=0;dashed=1;labelBackgroundColor=#FFFFFF;fontSize=12;fontColor=#4495D1;" parent="1" vertex="1">
                    <mxGeometry x="107" y="484" width="144" height="19" as="geometry"/>
                </mxCell>
            </root>
        </mxGraphModel>
    </diagram>
</mxfile>